<?xml version="1.0" encoding="UTF-8" standalone="no"?>
<!-- Created with Inkscape (http://www.inkscape.org/) -->

<svg
   width="175.99438mm"
   height="31.494001mm"
   viewBox="0 0 175.99438 31.494001"
   version="1.1"
   id="svg61349"
   inkscape:version="1.2.1 (9c6d41e, 2022-07-14)"
   sodipodi:docname="apigen-logo-white.svg"
   xmlns:inkscape="http://www.inkscape.org/namespaces/inkscape"
   xmlns:sodipodi="http://sodipodi.sourceforge.net/DTD/sodipodi-0.dtd"
   xmlns="http://www.w3.org/2000/svg"
   xmlns:svg="http://www.w3.org/2000/svg">
  <sodipodi:namedview
     id="namedview61351"
     pagecolor="#ffffff"
     bordercolor="#000000"
     borderopacity="0.25"
     inkscape:showpageshadow="2"
     inkscape:pageopacity="0.0"
     inkscape:pagecheckerboard="0"
     inkscape:deskcolor="#d1d1d1"
     inkscape:document-units="mm"
     showgrid="false"
     inkscape:zoom="1.180771"
     inkscape:cx="279.4784"
     inkscape:cy="170.6512"
     inkscape:window-width="1512"
     inkscape:window-height="867"
     inkscape:window-x="0"
     inkscape:window-y="748"
     inkscape:window-maximized="0"
     inkscape:current-layer="layer1" />
  <defs
     id="defs61346">
    <clipPath
       clipPathUnits="userSpaceOnUse"
       id="clipPath83945">
      <ellipse
         style="opacity:0.479545;fill:none;stroke:#000000;stroke-width:2.15768;stroke-dasharray:none;stroke-opacity:1"
         id="ellipse83947"
         ry="100.27882"
         rx="100.46437"
         cy="485.83551"
         cx="507.73788" />
    </clipPath>
  </defs>
  <g
     inkscape:label="Layer 1"
     inkscape:groupmode="layer"
     id="layer1"
     transform="translate(-19.63772,-113.86204)">
    <g
       aria-label="APIGen"
       id="text62198-2"
       style="font-size:42.1898px;font-family:Ubuntu;-inkscape-font-specification:Ubuntu;opacity:1;fill:#f5f5f5;fill-opacity:0.996835;stroke-width:0.725513">
      <path
         d="m 76.48832,144.76538 q -0.590658,-1.72978 -1.223505,-3.41737 -0.632847,-1.68759 -1.223504,-3.45957 H 61.721889 q -0.590657,1.77198 -1.223504,3.50176 -0.590657,1.68759 -1.181314,3.37518 h -5.526864 q 1.645402,-4.68307 3.122045,-8.64891 1.476643,-3.96584 2.868907,-7.50978 1.434453,-3.54395 2.826716,-6.75037 1.392264,-3.20643 2.868907,-6.32847 h 5.020586 q 1.476643,3.12204 2.868906,6.32847 1.392264,3.20642 2.784527,6.75037 1.434453,3.54394 2.911096,7.50978 1.518833,3.96584 3.164235,8.64891 z m -8.60672,-23.5841 q -0.970365,2.23606 -2.236059,5.44249 -1.223504,3.20642 -2.573578,6.96131 h 9.619274 q -1.350073,-3.75489 -2.615767,-7.0035 -1.265694,-3.24862 -2.19387,-5.4003 z"
         id="path88749" />
      <path
         d="m 94.207956,115.23252 q 6.370664,0 9.745844,2.32044 3.41737,2.32044 3.41737,7.25665 0,2.57357 -0.92817,4.42992 -0.88599,1.81417 -2.61577,2.99548 -1.72978,1.13912 -4.218979,1.68759 -2.489198,0.54847 -5.695623,0.54847 H 91.25467 v 10.29431 h -5.315914 v -28.81563 q 1.856351,-0.4219 4.09241,-0.54847 2.278249,-0.16876 4.17679,-0.16876 z m 0.379709,4.59869 q -2.025111,0 -3.332995,0.12657 v 9.95679 h 2.573578 q 3.839272,0 5.906572,-1.05474 2.0673,-1.09694 2.0673,-4.09241 0,-1.43446 -0.54847,-2.40482 -0.54846,-0.97037 -1.51883,-1.51884 -0.970365,-0.54846 -2.320439,-0.75941 -1.307884,-0.25314 -2.826716,-0.25314 z"
         id="path88751" />
      <path
         d="m 112.22297,115.52785 h 5.31591 v 29.23753 h -5.31591 z"
         id="path88753" />
      <path
         d="m 138.21188,119.53588 q -4.51431,0 -6.91913,2.82672 -2.36263,2.78452 -2.36263,7.76292 0,2.36263 0.54847,4.34555 0.59066,1.94073 1.68759,3.33299 1.13913,1.39227 2.78453,2.19387 1.68759,0.75942 3.92365,0.75942 1.39226,0 2.40482,-0.0844 1.01255,-0.12657 1.60321,-0.29533 v -10.50526 h 5.31592 v 14.0492 q -1.09694,0.4219 -3.71271,0.92818 -2.61576,0.50628 -6.03314,0.50628 -3.16423,0 -5.78,-1.01256 -2.61577,-1.01255 -4.47212,-2.95328 -1.81416,-1.94073 -2.82672,-4.76745 -1.01255,-2.82672 -1.01255,-6.49723 0,-3.67051 1.09693,-6.49723 1.13913,-2.82672 3.07986,-4.76745 1.94073,-1.98292 4.5565,-2.99547 2.61577,-1.01256 5.56905,-1.01256 2.02511,0 3.58613,0.29533 1.60322,0.25314 2.74234,0.59066 1.13913,0.33752 1.85635,0.71722 0.75942,0.37971 1.05475,0.54847 l -1.60321,4.34555 q -1.2657,-0.75941 -3.16424,-1.26569 -1.85635,-0.54847 -3.92365,-0.54847 z"
         id="path88755" />
      <path
         d="m 151.88132,133.83822 q 0,-2.91109 0.84379,-5.10496 0.88599,-2.19387 2.32044,-3.62833 1.43445,-1.47664 3.2908,-2.19387 1.85636,-0.75941 3.79709,-0.75941 4.5565,0 7.08788,2.82671 2.57358,2.82672 2.57358,8.43796 0,0.4219 -0.0422,0.97037 0,0.50628 -0.0422,0.92818 h -14.55548 q 0.21095,2.65795 1.85635,4.1346 1.68759,1.43445 4.85183,1.43445 1.85635,0 3.37518,-0.33752 1.56103,-0.33752 2.44701,-0.71723 l 0.67504,4.17679 q -0.4219,0.21095 -1.18132,0.46409 -0.71722,0.21095 -1.68759,0.37971 -0.92817,0.21095 -2.02511,0.33752 -1.09693,0.12657 -2.23606,0.12657 -2.91109,0 -5.06277,-0.8438 -2.15168,-0.88598 -3.54395,-2.40482 -1.39226,-1.56102 -2.0673,-3.62832 -0.67503,-2.10949 -0.67503,-4.59869 z m 14.80862,-2.27825 q 0,-1.05474 -0.29533,-1.98292 -0.29533,-0.97036 -0.88599,-1.6454 -0.54847,-0.71723 -1.39226,-1.09693 -0.80161,-0.4219 -1.94073,-0.4219 -1.18132,0 -2.0673,0.46409 -0.88599,0.42189 -1.51884,1.13912 -0.59065,0.71723 -0.92817,1.6454 -0.33752,0.92818 -0.46409,1.89854 z"
         id="path88757" />
      <path
         d="m 177.19516,123.41734 q 1.47664,-0.4219 3.83927,-0.8016 2.36263,-0.37971 5.23154,-0.37971 2.70014,0 4.5143,0.75941 1.81417,0.71723 2.86891,2.0673 1.09694,1.30789 1.51883,3.20643 0.46409,1.85635 0.46409,4.09241 v 12.4038 h -5.10496 v -11.60219 q 0,-1.77198 -0.25314,-2.99548 -0.21095,-1.26569 -0.75942,-2.02511 -0.50628,-0.80161 -1.43445,-1.13913 -0.88599,-0.3797 -2.19387,-0.3797 -0.97037,0 -2.02511,0.12657 -1.05475,0.12657 -1.56102,0.21095 v 17.80409 h -5.10497 z"
         id="path88759" />
    </g>
    <g
       stroke-width="16"
       stroke="url(#gggyrate-grad)"
       fill="none"
       id="g72442"
       style="opacity:1;fill:none;fill-opacity:0;stroke:#f5f5f5;stroke-opacity:1"
       transform="matrix(0.15102461,0.02691995,-0.02691995,0.15102461,-27.953626,42.631885)"
       clip-path="url(#clipPath83945)">
      <path
         d="m 333.95122,-552.6017 c 40.87099,-23.59263 91.22657,-23.59263 132.09756,0.007 l 725.90252,419.09932 c 40.871,23.59262 66.0488,67.204629 66.0488,114.396481 V 819.09933 c 0,47.19185 -25.1778,90.80386 -66.0488,114.40309 L 466.04878,1352.6017 c -40.87099,23.5927 -91.22657,23.5927 -132.09756,-0.01 l -725.9025,-419.09928 c -40.87098,-23.59263 -66.04877,-67.20464 -66.04877,-114.39649 V -19.099299 c 0,-47.191852 25.17779,-90.803861 66.04877,-114.403091 z"
         transform="rotate(44,400,400)"
         opacity="0.05"
         id="path72398"
         style="fill:none;fill-opacity:0;stroke:#f5f5f5;stroke-opacity:1" />
      <path
         d="m 336.95344,-509.30159 c 39.01321,-22.52023 87.07991,-22.52023 126.09312,0.006 l 692.90694,400.04934 c 39.0132,22.520235 63.0466,64.149879 63.0466,109.19664747 V 800.0494 c 0,45.04677 -24.0334,86.67641 -63.0466,109.20295 L 463.04656,1309.3017 c -39.01321,22.5202 -87.07991,22.5202 -126.09312,-0.01 L -355.95349,909.24605 C -394.9667,886.72581 -419.00005,845.09617 -419.00005,800.0494 V -0.04929253 c 0,-45.04676847 24.03335,-86.67641247 63.04656,-109.20294747 z"
         transform="rotate(42,400,400)"
         opacity="0.1"
         id="path72400"
         style="fill:none;fill-opacity:0;stroke:#f5f5f5;stroke-opacity:1" />
      <path
         d="m 339.95566,-466.00159 c 37.15544,-21.44784 82.93324,-21.44784 120.08868,0.006 L 1119.9557,-84.996213 C 1157.1111,-63.548373 1180,-23.901092 1180,19.000592 V 780.99935 c 0,42.90168 -22.8889,82.54896 -60.0443,104.00281 L 460.04434,1266.0015 c -37.15544,21.4479 -82.93324,21.4479 -120.08868,-0.01 L -319.95571,884.99615 c -37.15544,-21.44784 -60.04434,-61.09512 -60.04434,-103.9968 V 19.000592 c 0,-42.901684 22.8889,-82.548965 60.04434,-104.002809 z"
         transform="rotate(40,400,400)"
         opacity="0.14"
         id="path72402"
         style="fill:none;fill-opacity:0;stroke:#f5f5f5;stroke-opacity:1" />
      <path
         d="m 342.95787,-422.70149 c 35.29767,-20.37545 78.78659,-20.37545 114.08426,0.006 L 1083.9579,-60.746381 C 1119.2556,-40.370934 1141,-2.7060171 1141,38.050583 V 761.9494 c 0,40.7566 -21.7444,78.42152 -57.0421,98.80267 L 457.04213,1222.7015 c -35.29767,20.3754 -78.78659,20.3754 -114.08426,-0.01 L -283.95792,860.74636 C -319.25559,840.37092 -341.00005,802.706 -341.00005,761.9494 V 38.050583 c 0,-40.7566001 21.74446,-78.421517 57.04213,-98.802669 z"
         transform="rotate(38,400,400)"
         opacity="0.19"
         id="path72404"
         style="fill:none;fill-opacity:0;stroke:#f5f5f5;stroke-opacity:1" />
      <path
         d="m 345.96006,-379.40142 c 33.4399,-19.30306 74.63992,-19.30306 108.07982,0.005 L 1047.9601,-36.496581 C 1081.4,-17.193525 1102,18.489028 1102,57.100543 V 742.89942 c 0,38.61152 -20.6,74.29407 -54.0399,93.60253 L 454.03988,1179.4014 c -33.4399,19.303 -74.63992,19.303 -108.07982,-0.01 L -247.96017,836.49655 c -33.43989,-19.30306 -54.03991,-54.98561 -54.03991,-93.59713 V 57.100543 c 0,-38.611515 20.60002,-74.294068 54.03991,-93.602528 z"
         transform="rotate(36,400,400)"
         opacity="0.23"
         id="path72406"
         style="fill:none;fill-opacity:0;stroke:#f5f5f5;stroke-opacity:1" />
      <path
         d="m 348.96228,-336.10132 c 31.58212,-18.23067 70.49326,-18.23067 102.07538,0.005 L 1011.9623,-12.246749 C 1043.5444,5.9839144 1063,39.684103 1063,76.150534 V 723.84948 c 0,36.46643 -19.4556,70.16662 -51.0377,88.40238 L 451.03766,1136.1013 c -31.58212,18.2307 -70.49326,18.2307 -102.07538,-0.01 L -211.96238,812.24676 c -31.58212,-18.23066 -51.03769,-51.93085 -51.03769,-88.39728 V 76.150534 c 0,-36.466431 19.45557,-70.1666196 51.03769,-88.402387 z"
         transform="rotate(34,400,400)"
         opacity="0.28"
         id="path72408"
         style="fill:none;fill-opacity:0;stroke:#f5f5f5;stroke-opacity:1" />
      <path
         d="m 351.96449,-292.80125 c 29.72436,-17.15828 66.3466,-17.15828 96.07095,0.005 L 975.96453,12.003051 C 1005.6889,29.161323 1024,60.879148 1024,95.200495 V 704.7995 c 0,34.32135 -18.3111,66.03917 -48.03547,83.20225 L 448.03544,1092.8012 c -29.72435,17.1583 -66.34659,17.1583 -96.07095,0 L -175.96459,787.99694 c -29.72436,-17.15827 -48.03548,-48.87609 -48.03548,-83.19744 V 95.200495 c 0,-34.321347 18.31112,-66.039172 48.03548,-83.202247 z"
         transform="rotate(32,400,400)"
         opacity="0.32"
         id="path72410"
         style="fill:none;fill-opacity:0;stroke:#f5f5f5;stroke-opacity:1" />
      <path
         d="m 354.96671,-249.50115 c 27.86658,-16.08588 62.19994,-16.08588 90.06652,0.005 L 939.96675,36.252883 c 27.86658,16.085879 45.03326,45.82134 45.03326,77.997607 v 571.49906 c 0,32.17627 -17.16668,61.91173 -45.03326,78.00211 L 445.03323,1049.5012 c -27.86658,16.0859 -62.19994,16.0859 -90.06652,0 L -139.96681,763.74716 c -27.86658,-16.08588 -45.03326,-45.82134 -45.03326,-77.99761 V 114.25049 c 0,-32.176267 17.16668,-61.911728 45.03326,-78.002111 z"
         transform="rotate(30,400,400)"
         opacity="0.37"
         id="path72412"
         style="fill:none;fill-opacity:0;stroke:#f5f5f5;stroke-opacity:1" />
      <path
         d="m 357.96893,-206.20111 c 26.00881,-15.01349 58.05327,-15.01349 84.06208,0.004 L 903.96896,60.502653 C 929.97777,75.516141 946,103.26924 946,133.30042 v 533.39912 c 0,30.03118 -16.02223,57.78428 -42.03104,72.80197 L 442.03101,1006.2011 c -26.00881,15.0135 -58.05327,15.0135 -84.06208,0 L -103.96902,739.49731 c -26.00881,-15.01349 -42.03105,-42.76659 -42.03105,-72.79777 V 133.30042 c 0,-30.03118 16.02224,-57.784279 42.03105,-72.80197 z"
         transform="rotate(28,400,400)"
         opacity="0.41"
         id="path72414"
         style="fill:none;fill-opacity:0;stroke:#f5f5f5;stroke-opacity:1" />
      <path
         d="m 360.97115,-162.90104 c 24.15103,-13.9411 53.90661,-13.9411 78.05764,0.004 L 867.97118,84.752453 C 892.12221,98.693549 907,124.46428 907,152.35038 v 495.29919 c 0,27.88609 -14.87779,53.65682 -39.02882,67.60182 l -428.94239,247.6496 c -24.15103,13.94109 -53.90661,13.94109 -78.05764,-0.004 L -67.971239,715.24749 c -24.151036,-13.9411 -39.028821,-39.71183 -39.028821,-67.59792 V 152.35038 c 0,-27.8861 14.877785,-53.656831 39.028821,-67.601829 z"
         transform="rotate(26,400,400)"
         opacity="0.46"
         id="path72416"
         style="fill:none;fill-opacity:0;stroke:#f5f5f5;stroke-opacity:1" />
      <path
         d="m 363.97336,-119.60093 c 22.29327,-12.8687 49.75995,-12.8687 72.05322,0.004 L 831.97339,109.0023 C 854.26666,121.871 868,145.65937 868,171.40038 v 457.19926 c 0,25.74101 -13.73334,49.52937 -36.02661,62.40168 L 436.02658,919.60095 c -22.29327,12.8687 -49.75995,12.8687 -72.05322,-0.004 L -31.973454,690.99772 C -54.266718,678.12901 -68.00006,654.34065 -68.00006,628.59964 V 171.40038 c 0,-25.74101 13.733342,-49.52938 36.026606,-62.40168 z"
         transform="rotate(24,400,400)"
         opacity="0.5"
         id="path72418"
         style="fill:none;fill-opacity:0;stroke:#f5f5f5;stroke-opacity:1" />
      <path
         d="m 366.97558,-76.30089 c 20.43549,-11.796312 45.61329,-11.796312 66.04878,0.0033 L 795.97561,133.25207 C 816.4111,145.04838 829,166.85439 829,190.45031 v 419.09932 c 0,23.59592 -12.5889,45.40193 -33.02439,57.20154 L 433.02436,876.30083 c -20.43549,11.79631 -45.61329,11.79631 -66.04878,-0.003 L 4.0243314,666.74787 C -16.411161,654.95156 -29.000058,633.14555 -29.000058,609.54963 V 190.45031 c 0,-23.59592 12.588897,-45.40193 33.0243894,-57.20154 z"
         transform="rotate(22,400,400)"
         opacity="0.55"
         id="path72420"
         style="fill:none;fill-opacity:0;stroke:#f5f5f5;stroke-opacity:1" />
      <path
         d="m 369.9778,-33.000774 c 18.57772,-10.72392 41.46662,-10.72392 60.04434,0.003 L 759.97782,157.50192 c 18.57772,10.72392 30.02217,30.54756 30.02217,51.9984 V 590.4997 c 0,21.45084 -11.44445,41.27448 -30.02217,52.0014 L 430.02214,833.00079 c -18.57772,10.72392 -41.46662,10.72392 -60.04434,-0.003 L 40.022117,642.4981 C 21.444397,631.77418 9.9999446,611.95054 9.9999446,590.4997 V 209.50032 c 0,-21.45084 11.4444524,-41.27448 30.0221724,-52.00141 z"
         transform="rotate(20,400,400)"
         opacity="0.59"
         id="path72422"
         style="fill:none;fill-opacity:0;stroke:#f5f5f5;stroke-opacity:1" />
      <path
         d="m 372.98008,10.29928 c 16.71994,-9.65152783 37.31996,-9.65152783 54.03991,0.0027 L 723.9801,181.7517 c 16.71995,9.65153 27.01995,27.49281 27.01995,46.79856 V 571.4497 c 0,19.30576 -10.3,37.14704 -27.01995,46.80127 L 427.01999,789.70069 c -16.71995,9.65153 -37.31997,9.65153 -54.03991,-0.003 L 76.019963,618.24827 C 59.300015,608.59674 49.000008,590.75546 49.000008,571.4497 V 228.55026 c 0,-19.30575 10.300007,-37.14703 27.019955,-46.80126 z"
         transform="rotate(18,400,400)"
         opacity="0.64"
         id="path72424"
         style="fill:none;fill-opacity:0;stroke:#f5f5f5;stroke-opacity:1" />
      <path
         d="m 375.98229,53.599365 c 14.86218,-8.579136 33.1733,-8.579136 48.03548,0.0024 L 687.98231,206.00152 c 14.86218,8.57913 24.01774,24.43805 24.01774,41.59872 v 304.7995 c 0,17.16068 -9.15556,33.01959 -24.01774,41.60113 L 424.01777,746.40062 c -14.86218,8.57913 -33.1733,8.57913 -48.03548,-0.002 L 112.01775,593.99846 C 97.155572,585.41933 88.000011,569.56042 88.000011,552.39974 v -304.7995 c 0,-17.16067 9.155561,-33.01959 24.017739,-41.60112 z"
         transform="rotate(16,400,400)"
         opacity="0.68"
         id="path72426"
         style="fill:none;fill-opacity:0;stroke:#f5f5f5;stroke-opacity:1" />
      <path
         d="m 378.98451,96.89945 c 13.0044,-7.506744 29.02664,-7.506744 42.03104,0.0021 l 230.96898,133.34978 c 13.0044,7.50675 21.01552,21.3833 21.01552,36.39889 v 266.69956 c 0,15.01559 -8.01112,28.89214 -21.01552,36.40098 L 421.01555,703.10055 c -13.0044,7.50674 -29.02664,7.50674 -42.03104,-0.002 L 148.01553,569.74866 c -13.0044,-7.50674 -21.01552,-21.38329 -21.01552,-36.39888 V 266.65022 c 0,-15.01559 8.01112,-28.89214 21.01552,-36.40099 z"
         transform="rotate(14,400,400)"
         opacity="0.73"
         id="path72428"
         style="fill:none;fill-opacity:0;stroke:#f5f5f5;stroke-opacity:1" />
      <path
         d="m 381.9867,140.19954 c 11.14663,-6.43436 24.87997,-6.43436 36.0266,0.002 l 197.97341,114.29981 c 11.14663,6.43435 18.0133,18.32854 18.0133,31.19904 v 228.59963 c 0,12.8705 -6.86667,24.76469 -18.0133,31.20084 L 418.0133,659.80047 c -11.14663,6.43436 -24.87997,6.43436 -36.0266,-0.002 L 184.01329,545.49886 c -11.14663,-6.43435 -18.0133,-18.32854 -18.0133,-31.19904 V 285.70019 c 0,-12.8705 6.86667,-24.76469 18.0133,-31.20084 z"
         transform="rotate(12,400,400)"
         opacity="0.77"
         id="path72430"
         style="fill:none;fill-opacity:0;stroke:#f5f5f5;stroke-opacity:1" />
      <path
         d="m 384.98891,183.49961 c 9.28886,-5.36196 20.73332,-5.36196 30.02218,0.002 l 164.97784,95.24984 c 9.28886,5.36196 15.01108,15.27378 15.01108,25.9992 v 190.49969 c 0,10.72542 -5.72222,20.63724 -15.01108,26.0007 l -164.97784,95.24985 c -9.28886,5.36196 -20.73332,5.36196 -30.02218,-0.002 L 220.01107,521.24904 c -9.28886,-5.36196 -15.01108,-15.27378 -15.01108,-25.9992 V 304.75015 c 0,-10.72542 5.72222,-20.63724 15.01108,-26.0007 z"
         transform="rotate(10,400,400)"
         opacity="0.82"
         id="path72432"
         style="fill:none;fill-opacity:0;stroke:#f5f5f5;stroke-opacity:1" />
      <path
         d="m 387.99113,226.79967 c 7.43109,-4.28956 16.58665,-4.28956 24.01774,0.001 l 131.98227,76.19987 c 7.43109,4.28957 12.00887,12.21903 12.00887,20.79936 v 152.39975 c 0,8.58034 -4.57778,16.5098 -12.00887,20.80057 L 412.00887,573.2003 c -7.43109,4.28957 -16.58665,4.28957 -24.01774,-10e-4 L 256.00886,496.99922 c -7.43109,-4.28956 -12.00887,-12.21902 -12.00887,-20.79936 V 323.80011 c 0,-8.58033 4.57778,-16.50979 12.00887,-20.80056 z"
         transform="rotate(8,400,400)"
         opacity="0.86"
         id="path72434"
         style="fill:none;fill-opacity:0;stroke:#f5f5f5;stroke-opacity:1" />
      <path
         d="m 390.99335,270.09974 c 5.57331,-3.21717 12.43999,-3.21717 18.0133,9.1e-4 l 98.98671,57.1499 c 5.57331,3.21718 9.00665,9.16427 9.00665,15.59952 v 114.29982 c 0,6.43525 -3.43334,12.38234 -9.00665,15.60042 l -98.98671,57.1499 c -5.57331,3.21718 -12.43999,3.21718 -18.0133,-9e-4 l -98.98671,-57.1499 c -5.57331,-3.21718 -9.00665,-9.16427 -9.00665,-15.59952 V 342.85007 c 0,-6.43525 3.43334,-12.38234 9.00665,-15.60042 z"
         transform="rotate(6,400,400)"
         opacity="0.91"
         id="path72436"
         style="fill:none;fill-opacity:0;stroke:#f5f5f5;stroke-opacity:1" />
      <path
         d="m 393.99557,313.39984 c 3.71554,-2.14479 8.29332,-2.14479 12.00886,6e-4 l 65.99114,38.09994 C 475.71111,353.64516 478,357.60989 478,361.90006 v 76.19987 c 0,4.29017 -2.28889,8.2549 -6.00443,10.40028 l -65.99114,38.09994 c -3.71554,2.14478 -8.29332,2.14478 -12.00886,-6e-4 L 328.00443,448.49961 C 324.28889,446.35483 322,442.3901 322,438.09993 v -76.19987 c 0,-4.29017 2.28889,-8.2549 6.00443,-10.40028 z"
         transform="rotate(4,400,400)"
         opacity="0.95"
         id="path72438"
         style="fill:none;fill-opacity:0;stroke:#f5f5f5;stroke-opacity:1" />
    </g>
  </g>
</svg>
