<?xml version="1.0" encoding="UTF-8" standalone="no"?>
<!-- Created with Inkscape (http://www.inkscape.org/) -->

<svg
   width="141.46439mm"
   height="45.511906mm"
   viewBox="0 0 141.46439 45.511906"
   version="1.1"
   id="svg5"
   inkscape:version="1.2.1 (9c6d41e, 2022-07-14)"
   sodipodi:docname="apigenalt.svg"
   xmlns:inkscape="http://www.inkscape.org/namespaces/inkscape"
   xmlns:sodipodi="http://sodipodi.sourceforge.net/DTD/sodipodi-0.dtd"
   xmlns:xlink="http://www.w3.org/1999/xlink"
   xmlns="http://www.w3.org/2000/svg"
   xmlns:svg="http://www.w3.org/2000/svg">
  <sodipodi:namedview
     id="namedview7"
     pagecolor="#ffffff"
     bordercolor="#000000"
     borderopacity="0.25"
     inkscape:showpageshadow="2"
     inkscape:pageopacity="0.0"
     inkscape:pagecheckerboard="0"
     inkscape:deskcolor="#d1d1d1"
     inkscape:document-units="mm"
     showgrid="false"
     inkscape:zoom="1.9687727"
     inkscape:cx="231.10845"
     inkscape:cy="59.173921"
     inkscape:window-width="1512"
     inkscape:window-height="869"
     inkscape:window-x="-1"
     inkscape:window-y="748"
     inkscape:window-maximized="0"
     inkscape:current-layer="text1516-9" />
  <defs
     id="defs2">
    <linearGradient
       inkscape:collect="always"
       id="linearGradient17469">
      <stop
         style="stop-color:#000000;stop-opacity:1;"
         offset="0"
         id="stop17465" />
      <stop
         style="stop-color:#000000;stop-opacity:0;"
         offset="1"
         id="stop17467" />
    </linearGradient>
    <linearGradient
       inkscape:collect="always"
       id="linearGradient13505">
      <stop
         style="stop-color:#c00000;stop-opacity:1;"
         offset="0"
         id="stop13501" />
      <stop
         style="stop-color:#000000;stop-opacity:0;"
         offset="1"
         id="stop13503" />
    </linearGradient>
    <linearGradient
       inkscape:collect="always"
       xlink:href="#linearGradient13505"
       id="linearGradient14320"
       gradientUnits="userSpaceOnUse"
       x1="39.476074"
       y1="129.53249"
       x2="180.81421"
       y2="129.53249" />
    <linearGradient
       inkscape:collect="always"
       xlink:href="#linearGradient17469"
       id="linearGradient17471"
       x1="33.19704"
       y1="153.00692"
       x2="174.09917"
       y2="153.00692"
       gradientUnits="userSpaceOnUse" />
  </defs>
  <g
     inkscape:label="Layer 1"
     inkscape:groupmode="layer"
     id="layer1"
     transform="translate(-33.19704,-130.70242)">
    <g
       aria-label="APIGen"
       id="text1516-9"
       style="font-size:42.0006px;font-family:Ubuntu;-inkscape-font-specification:Ubuntu;fill:#ebebeb;stroke-width:0.858544">
      <path
         d="m 55.793363,167.36415 q -0.588009,-1.72202 -1.218018,-3.40205 -0.630008,-1.68002 -1.218017,-3.44405 H 41.093153 q -0.588008,1.76403 -1.218017,3.48605 -0.588009,1.68003 -1.176017,3.36005 h -5.502078 q 1.638023,-4.66207 3.108044,-8.61012 1.470021,-3.94806 2.856041,-7.47611 1.42802,-3.52805 2.81404,-6.72009 1.38602,-3.19205 2.856041,-6.30009 h 4.998071 q 1.470021,3.10804 2.856041,6.30009 1.386019,3.19204 2.772039,6.72009 1.42802,3.52805 2.898041,7.47611 1.512022,3.94805 3.150045,8.61012 z m -8.568122,-23.47833 q -0.966014,2.22603 -2.226032,5.41807 -1.218017,3.19205 -2.562037,6.9301 h 9.576137 q -1.344019,-3.73805 -2.604037,-6.9721 -1.260018,-3.23404 -2.184031,-5.37607 z"
         id="path48006" />
      <path
         d="m 73.433535,137.96373 q 6.342091,0 9.702139,2.31003 3.402048,2.31004 3.402048,7.22411 0,2.56203 -0.924013,4.41006 -0.882013,1.80603 -2.604037,2.98204 -1.722025,1.13402 -4.20006,1.68003 -2.478035,0.546 -5.670081,0.546 h -2.646038 v 10.24815 h -5.292075 v -28.68641 q 1.848026,-0.42 4.074058,-0.54601 2.268032,-0.168 4.158059,-0.168 z m 0.378006,4.57807 q -2.016029,0 -3.318048,0.126 v 9.91214 h 2.562037 q 3.822054,0 5.880084,-1.05001 2.058029,-1.09202 2.058029,-4.07406 0,-1.42802 -0.546008,-2.39404 -0.546007,-0.96601 -1.512021,-1.51202 -0.966014,-0.54601 -2.310033,-0.75601 -1.302019,-0.252 -2.81404,-0.252 z"
         id="path48008" />
      <path
         d="m 91.367756,138.25774 h 5.292075 v 29.10641 h -5.292075 z"
         id="path48010" />
      <path
         d="m 117.24012,142.24779 q -4.49407,0 -6.8881,2.81404 -2.35203,2.77204 -2.35203,7.72811 0,2.35204 0.546,4.32606 0.58801,1.93203 1.68003,3.31805 1.13401,1.38602 2.77204,2.18403 1.68002,0.75601 3.90605,0.75601 1.38602,0 2.39404,-0.084 1.00801,-0.126 1.59602,-0.294 v -10.45815 h 5.29208 v 13.9862 q -1.09202,0.42001 -3.69606,0.92401 -2.60403,0.50401 -6.00608,0.50401 -3.15005,0 -5.75409,-1.00801 -2.60403,-1.00802 -4.45206,-2.94005 -1.80602,-1.93202 -2.81404,-4.74606 -1.00801,-2.81404 -1.00801,-6.4681 0,-3.65405 1.09201,-6.46809 1.13402,-2.81404 3.06605,-4.74607 1.93202,-1.97402 4.53606,-2.98204 2.60404,-1.00801 5.54408,-1.00801 2.01603,0 3.57005,0.294 1.59602,0.252 2.73004,0.58801 1.13402,0.336 1.84803,0.71401 0.75601,0.378 1.05001,0.54601 l -1.59602,4.32606 q -1.26002,-0.75601 -3.15005,-1.26002 -1.84802,-0.54601 -3.90605,-0.54601 z"
         style="paint-order:fill markers stroke"
         id="path48012" />
      <path
         d="m 130.84826,156.486 q 0,-2.89805 0.84001,-5.08208 0.88201,-2.18403 2.31003,-3.61205 1.42802,-1.47002 3.27605,-2.18403 1.84803,-0.75601 3.78005,-0.75601 4.53607,0 7.0561,2.81404 2.56204,2.81404 2.56204,8.40012 0,0.42001 -0.042,0.96601 0,0.50401 -0.042,0.92402 h -14.49021 q 0.21001,2.64603 1.84803,4.11606 1.68002,1.42802 4.83007,1.42802 1.84802,0 3.36005,-0.33601 1.55402,-0.336 2.43603,-0.71401 l 0.67201,4.15806 q -0.42001,0.21 -1.17602,0.46201 -0.71401,0.21 -1.68002,0.378 -0.92401,0.21001 -2.01603,0.33601 -1.09201,0.126 -2.22603,0.126 -2.89804,0 -5.04007,-0.84001 -2.14203,-0.88202 -3.52805,-2.39404 -1.38602,-1.55402 -2.05803,-3.61205 -0.67201,-2.10003 -0.67201,-4.57806 z m 14.74221,-2.26804 q 0,-1.05001 -0.29401,-1.97402 -0.294,-0.96602 -0.88201,-1.63803 -0.54601,-0.71401 -1.38602,-1.09201 -0.79801,-0.42001 -1.93203,-0.42001 -1.17601,0 -2.05802,0.46201 -0.88202,0.42 -1.51203,1.13401 -0.588,0.71401 -0.92401,1.63803 -0.336,0.92401 -0.46201,1.89002 z"
         style="paint-order:fill markers stroke"
         id="path48014" />
      <path
         d="m 156.04858,146.11185 q 1.47002,-0.42001 3.82205,-0.79801 2.35203,-0.37801 5.20807,-0.37801 2.68804,0 4.49407,0.75601 1.80602,0.71401 2.85604,2.05803 1.09201,1.30202 1.51202,3.19205 0.46201,1.84802 0.46201,4.07405 v 12.34818 h -5.08208 v -11.55016 q 0,-1.76403 -0.252,-2.98205 -0.21,-1.26001 -0.75601,-2.01602 -0.50401,-0.79802 -1.42802,-1.13402 -0.88201,-0.37801 -2.18403,-0.37801 -0.96601,0 -2.01603,0.12601 -1.05001,0.126 -1.55402,0.21 v 17.72425 h -5.08207 z"
         style="paint-order:fill markers stroke"
         id="path48016" />
    </g>
    <text
       xml:space="preserve"
       style="font-size:18.0404px;font-family:Ubuntu;-inkscape-font-specification:Ubuntu;fill:#000000;fill-opacity:1;stroke-width:0.241992"
       x="142.92189"
       y="-121.236"
       id="text5551"
       transform="rotate(90)"><tspan
         sodipodi:role="line"
         id="tspan5549"
         style="stroke-width:0.241993"
         x="142.92189"
         y="-121.236" /></text>
  </g>
</svg>
