<?xml version="1.0" encoding="UTF-8" standalone="no"?>
<svg
   width="43.990479"
   height="29.728521"
   version="1.1"
   id="svg151817"
   sodipodi:docname="integration-icon-06.svg"
   inkscape:version="1.2.1 (9c6d41e, 2022-07-14)"
   xmlns:inkscape="http://www.inkscape.org/namespaces/inkscape"
   xmlns:sodipodi="http://sodipodi.sourceforge.net/DTD/sodipodi-0.dtd"
   xmlns="http://www.w3.org/2000/svg"
   xmlns:svg="http://www.w3.org/2000/svg">
  <g
     aria-label="ROUTE"
     id="text162934"
     style="font-size:10.6756px;font-family:Ubuntu;-inkscape-font-specification:Ubuntu;fill:#dee0e1;stroke-width:0.178866"
     transform="translate(-1.8558623,-7.7510524)">
    <g
       aria-label="remove"
       id="text175146"
       style="font-size:9.67753px;stroke-width:0.162144">
      <path
         d="M 2.2390472,26.649343 V 26.009138 H 3.0529523 V 22.063683 H 2.2390472 v -0.640206 h 1.4491481 l 0.153848,1.235746 q 0.302733,-0.645168 0.7344997,-0.99753 0.4317667,-0.352361 1.1414523,-0.352361 0.2183648,0 0.3871012,0.03474 0.1736993,0.02978 0.3523614,0.0794 l -0.1191081,1.76677 H 5.6534784 v -1.111676 q -0.019851,0 -0.044665,0 -1.2010063,0 -1.7221041,1.717142 v 2.213425 h 1.0620469 v 0.640205 z"
         style="font-family:'Fira Code';-inkscape-font-specification:'Fira Code'"
         id="path261786" />
      <path
         d="m 8.7999022,24.331699 q 0.03474,0.908199 0.4764323,1.325077 0.4466552,0.411916 1.0521215,0.411916 0.401989,0 0.724574,-0.119108 0.322584,-0.119108 0.669983,-0.352362 l 0.392064,0.550875 q -0.362287,0.287845 -0.833757,0.451618 -0.471469,0.163774 -0.96279,0.163774 -0.7642767,0 -1.300263,-0.342436 -0.5310234,-0.342436 -0.8139051,-0.952864 -0.2779188,-0.615392 -0.2779188,-1.424334 0,-0.794054 0.2779188,-1.409446 0.2828817,-0.615392 0.7940538,-0.967753 0.5161349,-0.352361 1.2109323,-0.352361 0.987604,0 1.553367,0.684871 0.570726,0.684871 0.570726,1.875952 0,0.133997 -0.0099,0.253105 -0.005,0.119108 -0.0099,0.203476 z m 1.4193708,-2.332533 q -0.5806515,0 -0.9727155,0.411916 -0.3920641,0.411915 -0.4416924,1.275448 h 2.7245969 q -0.01489,-0.838719 -0.36725,-1.26056 -0.352361,-0.426804 -0.942939,-0.426804 z"
         style="font-family:'Fira Code';-inkscape-font-specification:'Fira Code'"
         id="path261788" />
      <path
         d="m 17.544405,21.314295 q 0.248142,0 0.481395,0.109182 0.233254,0.109183 0.382139,0.421841 0.148885,0.312659 0.148885,0.913162 v 3.890863 h -0.774203 v -3.756866 q 0,-0.491321 -0.05955,-0.709686 -0.05955,-0.218365 -0.342435,-0.218365 -0.233254,0 -0.466507,0.148885 -0.233253,0.143923 -0.446655,0.476433 v 4.059599 h -0.779166 v -3.756866 q 0,-0.491321 -0.05955,-0.709686 -0.05955,-0.218365 -0.342435,-0.218365 -0.243179,0 -0.47147,0.148885 -0.22829,0.143923 -0.441692,0.476433 v 4.059599 h -0.76924 v -5.225866 h 0.655095 l 0.04963,0.605466 q 0.213402,-0.302733 0.476432,-0.506209 0.267993,-0.208439 0.660057,-0.208439 0.297771,0 0.560801,0.143922 0.26303,0.138959 0.387101,0.545912 0.213402,-0.307696 0.481395,-0.496284 0.267993,-0.19355 0.669983,-0.19355 z"
         style="font-family:'Fira Code';-inkscape-font-specification:'Fira Code'"
         id="path261790" />
      <path
         d="m 22.045683,21.314295 q 1.106713,0 1.672476,0.739462 0.565763,0.739463 0.565763,1.980172 0,0.799016 -0.258067,1.414408 -0.258068,0.615392 -0.759314,0.967753 -0.501247,0.347399 -1.230783,0.347399 -1.106713,0 -1.677439,-0.744426 -0.570726,-0.744425 -0.570726,-1.975208 0,-0.80398 0.258067,-1.419372 0.258068,-0.620354 0.759314,-0.96279 0.506209,-0.347398 1.240709,-0.347398 z m 0,0.679908 q -0.674946,0 -1.022344,0.501247 -0.342436,0.501246 -0.342436,1.548405 0,1.037232 0.337473,1.538479 0.342436,0.496283 1.017382,0.496283 0.674945,0 1.012418,-0.501246 0.342436,-0.501247 0.342436,-1.543442 0,-1.042196 -0.337473,-1.538479 -0.337473,-0.501247 -1.007456,-0.501247 z"
         style="font-family:'Fira Code';-inkscape-font-specification:'Fira Code'"
         id="path261792" />
      <path
         d="m 30.368345,21.423477 -1.900766,5.225866 h -0.967753 l -1.885878,-5.225866 h 0.883385 l 1.513665,4.466553 1.493814,-4.466553 z"
         style="font-family:'Fira Code';-inkscape-font-specification:'Fira Code'"
         id="path261794" />
      <path
         d="m 32.621458,24.331699 q 0.03474,0.908199 0.476433,1.325077 0.446655,0.411916 1.052121,0.411916 0.40199,0 0.724574,-0.119108 0.322584,-0.119108 0.669983,-0.352362 l 0.392064,0.550875 q -0.362287,0.287845 -0.833757,0.451618 -0.471469,0.163774 -0.96279,0.163774 -0.764277,0 -1.300263,-0.342436 -0.531023,-0.342436 -0.813905,-0.952864 -0.277919,-0.615392 -0.277919,-1.424334 0,-0.794054 0.277919,-1.409446 0.282882,-0.615392 0.794054,-0.967753 0.516135,-0.352361 1.210932,-0.352361 0.987604,0 1.553367,0.684871 0.570727,0.684871 0.570727,1.875952 0,0.133997 -0.0099,0.253105 -0.005,0.119108 -0.0099,0.203476 z m 1.419371,-2.332533 q -0.580651,0 -0.972715,0.411916 -0.392064,0.411915 -0.441693,1.275448 h 2.724597 q -0.01489,-0.838719 -0.36725,-1.26056 -0.352361,-0.426804 -0.942939,-0.426804 z"
         style="font-family:'Fira Code';-inkscape-font-specification:'Fira Code'"
         id="path261796" />
    </g>
    <g
       aria-label="/.:id"
       id="text175146-2"
       style="font-size:9.67753px;stroke-width:0.162144">
      <path
         d="m 2.7178225,37.479574 -0.6749457,-0.29777 4.2481877,-8.759406 0.66502,0.327547 z"
         style="font-family:'Fira Code';-inkscape-font-specification:'Fira Code'"
         id="path261799" />
      <path
         d="m 9.5764477,35.692953 q 0,-0.362287 0.2481418,-0.615392 0.2481415,-0.253104 0.6203545,-0.253104 0.377176,0 0.625317,0.253104 0.253105,0.253105 0.253105,0.615392 0,0.36725 -0.253105,0.625317 -0.248141,0.253105 -0.625317,0.253105 -0.372213,0 -0.6203545,-0.253105 -0.2481418,-0.258067 -0.2481418,-0.625317 z"
         style="font-family:'Fira Code';-inkscape-font-specification:'Fira Code'"
         id="path261801" />
      <path
         d="m 15.601316,32.184228 q 0,-0.33251 0.228291,-0.565764 0.233253,-0.233253 0.570726,-0.233253 0.347399,0 0.575689,0.233253 0.233253,0.233254 0.233253,0.565764 0,0.33251 -0.233253,0.570726 -0.22829,0.238216 -0.575689,0.238216 -0.337473,0 -0.570726,-0.238216 -0.228291,-0.238216 -0.228291,-0.570726 z m 0,3.578205 q 0,-0.322585 0.228291,-0.560801 0.233253,-0.238216 0.570726,-0.238216 0.347399,0 0.575689,0.238216 0.233253,0.238216 0.233253,0.560801 0,0.337472 -0.233253,0.575689 -0.22829,0.233253 -0.575689,0.233253 -0.337473,0 -0.570726,-0.233253 -0.228291,-0.238217 -0.228291,-0.575689 z"
         style="font-family:'Fira Code';-inkscape-font-specification:'Fira Code'"
         id="path261803" />
      <path
         d="m 22.365648,28.784685 q 0.277919,0 0.441692,0.168737 0.168737,0.168736 0.168737,0.411915 0,0.253105 -0.168737,0.426804 -0.163773,0.168736 -0.441692,0.168736 -0.263031,0 -0.431767,-0.168736 -0.168736,-0.173699 -0.168736,-0.426804 0,-0.243179 0.168736,-0.411915 0.168736,-0.168737 0.431767,-0.168737 z m 0.66502,2.446678 v 4.565809 h 1.473962 v 0.660058 h -3.92064 v -0.660058 h 1.612921 V 31.89142 h -1.563293 v -0.660057 z"
         style="font-family:'Fira Code';-inkscape-font-specification:'Fira Code'"
         id="path261805" />
      <path
         d="m 29.467452,29.022901 0.833756,0.10422 v 7.330109 h -0.729537 l -0.0794,-0.689835 q -0.292807,0.416879 -0.674946,0.610429 -0.377175,0.193551 -0.808942,0.193551 -0.679908,0 -1.121601,-0.342436 -0.441692,-0.342436 -0.655094,-0.952864 -0.213402,-0.615392 -0.213402,-1.424334 0,-0.784128 0.243179,-1.39952 0.243179,-0.620355 0.69976,-0.972716 0.461543,-0.357324 1.106712,-0.357324 0.868496,0 1.39952,0.615392 z m -1.181155,2.769263 q -0.655094,0 -1.007456,0.511172 -0.352361,0.511172 -0.352361,1.548405 0,2.044688 1.255597,2.044688 0.441693,0 0.759314,-0.248142 0.317622,-0.253104 0.526061,-0.575689 v -2.610451 q -0.213402,-0.317622 -0.516135,-0.491321 -0.302733,-0.178662 -0.66502,-0.178662 z"
         style="font-family:'Fira Code';-inkscape-font-specification:'Fira Code'"
         id="path261807" />
    </g>
    <g
       aria-label="[DELETE]"
       id="text175146-6"
       style="font-size:9.67753px;fill:#c3e1b4;stroke-width:0.162144">
      <path
         d="M 1.8558623,16.991853 V 7.7510524 H 4.3422432 V 8.4706636 H 2.6449533 v 7.8115044 h 1.6972899 v 0.709685 z"
         style="font-family:'Fira Code';-inkscape-font-specification:'Fira Code';fill:#e1b4b4"
         id="path261810" />
      <path
         d="m 11.468862,12.396267 q 0,1.071973 -0.277919,1.751881 -0.277919,0.674946 -0.7345,1.047158 -0.4565809,0.36725 -1.0024929,0.511173 -0.5409491,0.138959 -1.0719726,0.138959 H 6.8137213 V 9.0116128 h 1.4590738 q 0.6005032,0 1.1662665,0.1339965 0.5707264,0.1339966 1.0273074,0.4962836 0.461543,0.3573242 0.729537,1.0223441 0.272956,0.66502 0.272956,1.73203 z m -0.918125,0 q 0,-0.893311 -0.188588,-1.429297 Q 10.173561,10.430984 9.8658655,10.162991 9.5581696,9.8949976 9.1909198,9.8056665 8.8286327,9.7163355 8.4762714,9.7163355 H 7.6722919 v 5.4392685 h 0.8139052 q 0.3672498,0 0.7344997,-0.114145 0.3672499,-0.119109 0.66502,-0.416879 0.3027332,-0.29777 0.4813952,-0.838719 0.183625,-0.540949 0.183625,-1.389594 z"
         style="font-family:'Fira Code';-inkscape-font-specification:'Fira Code';fill:#e1b4b4"
         id="path261812" />
      <path
         d="m 14.049522,9.7163355 v 2.3027555 h 2.531046 v 0.709686 h -2.531046 v 2.426827 h 3.106735 v 0.689834 H 13.185989 V 9.0116128 h 3.880937 l -0.09926,0.7047227 z"
         style="font-family:'Fira Code';-inkscape-font-specification:'Fira Code';fill:#e1b4b4"
         id="path261814" />
      <path
         d="M 19.240634,15.845438 V 9.0116128 h 0.863534 v 6.0645852 h 3.116661 l -0.09926,0.76924 z"
         style="font-family:'Fira Code';-inkscape-font-specification:'Fira Code';fill:#e1b4b4"
         id="path261816" />
      <path
         d="m 25.9603,9.7163355 v 2.3027555 h 2.531046 v 0.709686 H 25.9603 v 2.426827 h 3.106735 v 0.689834 H 25.096767 V 9.0116128 h 3.880937 l -0.09926,0.7047227 z"
         style="font-family:'Fira Code';-inkscape-font-specification:'Fira Code';fill:#e1b4b4"
         id="path261818" />
      <path
         d="M 33.196101,9.7510753 V 15.845438 H 32.33753 V 9.7510753 H 30.203511 V 9.0116128 h 5.156386 l -0.08933,0.7394625 z"
         style="font-family:'Fira Code';-inkscape-font-specification:'Fira Code';fill:#e1b4b4"
         id="path261820" />
      <path
         d="m 37.871078,9.7163355 v 2.3027555 h 2.531047 v 0.709686 h -2.531047 v 2.426827 h 3.106735 v 0.689834 H 37.007545 V 9.0116128 h 3.880937 l -0.09926,0.7047227 z"
         style="font-family:'Fira Code';-inkscape-font-specification:'Fira Code';fill:#e1b4b4"
         id="path261822" />
      <path
         d="M 45.84634,7.7510524 V 16.991853 H 43.359959 V 16.28713 h 1.69729 V 8.4706636 h -1.69729 V 7.7510524 Z"
         style="font-family:'Fira Code';-inkscape-font-specification:'Fira Code';fill:#e1b4b4"
         id="path261824" />
    </g>
  </g>
  <sodipodi:namedview
     id="namedview151819"
     pagecolor="#ffffff"
     bordercolor="#000000"
     borderopacity="0.25"
     inkscape:showpageshadow="2"
     inkscape:pageopacity="0.0"
     inkscape:pagecheckerboard="0"
     inkscape:deskcolor="#d1d1d1"
     showgrid="false"
     inkscape:zoom="9.1092603"
     inkscape:cx="20.638339"
     inkscape:cy="16.631427"
     inkscape:window-width="1485"
     inkscape:window-height="737"
     inkscape:window-x="22"
     inkscape:window-y="824"
     inkscape:window-maximized="0"
     inkscape:current-layer="text162934" />
  <defs
     id="defs151791">
    <filter
       x="-1.0286082"
       y="-1.0286082"
       width="3.0572164"
       height="3.0572164"
       filterUnits="objectBoundingBox"
       id="a">
      <feGaussianBlur
         stdDeviation="4"
         in="SourceGraphic"
         id="feGaussianBlur151776" />
    </filter>
    <filter
       x="-1.0286082"
       y="-1.0284981"
       width="3.0572164"
       height="3.0569959"
       filterUnits="objectBoundingBox"
       id="b">
      <feGaussianBlur
         stdDeviation="4"
         in="SourceGraphic"
         id="feGaussianBlur151779" />
    </filter>
    <filter
       x="-1.0286082"
       y="-1.0286082"
       width="3.0572164"
       height="3.0572164"
       filterUnits="objectBoundingBox"
       id="c">
      <feGaussianBlur
         stdDeviation="4"
         in="SourceGraphic"
         id="feGaussianBlur151782" />
    </filter>
    <filter
       x="-1.0284981"
       y="-1.0286082"
       width="3.0569959"
       height="3.0572164"
       filterUnits="objectBoundingBox"
       id="d">
      <feGaussianBlur
         stdDeviation="4"
         in="SourceGraphic"
         id="feGaussianBlur151785" />
    </filter>
    <filter
       x="-1.0284981"
       y="-1.0284981"
       width="3.0569959"
       height="3.0569959"
       filterUnits="objectBoundingBox"
       id="e">
      <feGaussianBlur
         stdDeviation="4"
         in="SourceGraphic"
         id="feGaussianBlur151788" />
    </filter>
  </defs>
</svg>
