<?xml version="1.0" encoding="UTF-8" standalone="no"?>
<svg
   width="36"
   height="46"
   version="1.1"
   id="svg151817"
   sodipodi:docname="integration-icon-002.svg"
   inkscape:version="1.2.1 (9c6d41e, 2022-07-14)"
   xmlns:inkscape="http://www.inkscape.org/namespaces/inkscape"
   xmlns:sodipodi="http://sodipodi.sourceforge.net/DTD/sodipodi-0.dtd"
   xmlns="http://www.w3.org/2000/svg"
   xmlns:svg="http://www.w3.org/2000/svg">
  <g
     aria-label="ROUTE"
     id="text162934"
     style="font-size:10.6756px;font-family:Ubuntu;-inkscape-font-specification:Ubuntu;fill:#dee0e1;stroke-width:0.178866">
    <g
       aria-label="create"
       id="text175146"
       style="font-size:9.67753px;stroke-width:0.162144">
      <path
         d="m 6.1566227,26.068709 q 0.3920641,0 0.7295369,-0.124071 0.3424357,-0.129033 0.6302802,-0.33251 l 0.4069526,0.545912 q -0.3424357,0.292808 -0.8238308,0.461544 -0.4813951,0.168736 -0.9429389,0.168736 -0.7791652,0 -1.33004,-0.33251 -0.545912,-0.337472 -0.8337565,-0.942938 -0.2878445,-0.610429 -0.2878445,-1.429297 0,-0.784128 0.2878445,-1.404483 0.2878445,-0.620354 0.8387193,-0.977678 0.5508748,-0.362287 1.3350029,-0.362287 0.9975301,0 1.7469183,0.605466 L 7.5065141,22.50043 q -0.6799085,-0.466506 -1.3498914,-0.466506 -0.6749457,0 -1.1116752,0.511172 -0.4367296,0.506209 -0.4367296,1.538479 0,1.047158 0.4367296,1.518628 0.4367295,0.466506 1.1116752,0.466506 z"
         style="font-family:'Fira Code';-inkscape-font-specification:'Fira Code'"
         id="path213654" />
      <path
         d="M 9.7993302,26.674175 V 26.033969 H 10.613235 V 22.088515 H 9.7993302 v -0.640206 h 1.4491478 l 0.153848,1.235746 q 0.302733,-0.645169 0.7345,-0.99753 0.431767,-0.352361 1.141452,-0.352361 0.218365,0 0.387101,0.03474 0.1737,0.02978 0.352362,0.0794 l -0.119108,1.76677 h -0.684872 v -1.111676 q -0.01985,0 -0.04467,0 -1.201006,0 -1.722104,1.717142 v 2.213424 h 1.062047 v 0.640206 z"
         style="font-family:'Fira Code';-inkscape-font-specification:'Fira Code'"
         id="path213656" />
      <path
         d="m 16.360185,24.356531 q 0.03474,0.908199 0.476432,1.325077 0.446656,0.411915 1.052122,0.411915 0.401989,0 0.724574,-0.119108 0.322584,-0.119108 0.669983,-0.352361 l 0.392064,0.550875 q -0.362287,0.287844 -0.833757,0.451618 -0.471469,0.163773 -0.96279,0.163773 -0.764277,0 -1.300263,-0.342435 -0.531023,-0.342436 -0.813905,-0.952865 -0.277919,-0.615391 -0.277919,-1.424334 0,-0.794053 0.277919,-1.409445 0.282882,-0.615392 0.794054,-0.967753 0.516135,-0.352361 1.210932,-0.352361 0.987604,0 1.553367,0.684871 0.570726,0.684871 0.570726,1.875952 0,0.133996 -0.0099,0.253105 -0.005,0.119108 -0.0099,0.203476 z m 1.419371,-2.332533 q -0.580652,0 -0.972716,0.411915 -0.392064,0.411916 -0.441692,1.275449 h 2.724597 q -0.01489,-0.838719 -0.36725,-1.26056 -0.352361,-0.426804 -0.942939,-0.426804 z"
         style="font-family:'Fira Code';-inkscape-font-specification:'Fira Code'"
         id="path213658" />
      <path
         d="m 25.402458,25.532723 q 0,0.317621 0.10422,0.461544 0.104219,0.143922 0.322584,0.208439 l -0.203476,0.585614 q -0.337473,-0.04466 -0.590578,-0.213401 -0.253104,-0.1737 -0.36725,-0.521098 -0.282881,0.362287 -0.709685,0.550875 -0.421841,0.183624 -0.92805,0.183624 -0.784129,0 -1.235747,-0.441692 -0.451618,-0.441692 -0.451618,-1.171229 0,-0.808942 0.630281,-1.240709 0.63028,-0.431767 1.82136,-0.431767 h 0.76924 v -0.43673 q 0,-0.565763 -0.33251,-0.799016 -0.327547,-0.238216 -0.913162,-0.238216 -0.258067,0 -0.605466,0.06452 -0.347398,0.05955 -0.754351,0.203476 l -0.218365,-0.63028 q 0.476432,-0.178662 0.898274,-0.253105 0.426803,-0.07444 0.808942,-0.07444 0.972716,0 1.464036,0.45658 0.491321,0.456581 0.491321,1.230784 z m -2.158833,0.620354 q 0.387101,0 0.734499,-0.19355 0.352362,-0.198514 0.585615,-0.545912 v -1.344929 h -0.754351 q -0.863534,0 -1.220858,0.297771 -0.352361,0.29777 -0.352361,0.799016 0,0.987604 1.007456,0.987604 z"
         style="font-family:'Fira Code';-inkscape-font-specification:'Fira Code'"
         id="path213660" />
      <path
         d="m 31.7648,26.411145 q -0.267993,0.178662 -0.650132,0.277919 -0.382138,0.09926 -0.749388,0.09926 -0.843682,0 -1.300263,-0.441692 -0.456581,-0.441692 -0.456581,-1.136489 V 22.093478 H 27.40743 v -0.645169 h 1.201006 v -1.186118 l 0.833757,-0.09926 v 1.285375 h 1.806472 l -0.09926,0.645169 h -1.707215 v 3.106735 q 0,0.43673 0.22829,0.66502 0.233253,0.22829 0.76924,0.22829 0.292807,0 0.540949,-0.06948 0.248142,-0.06948 0.461543,-0.178662 z"
         style="font-family:'Fira Code';-inkscape-font-specification:'Fira Code'"
         id="path213662" />
      <path
         d="m 34.226352,24.356531 q 0.03474,0.908199 0.476433,1.325077 0.446655,0.411915 1.052121,0.411915 0.401989,0 0.724574,-0.119108 0.322584,-0.119108 0.669983,-0.352361 l 0.392064,0.550875 q -0.362287,0.287844 -0.833757,0.451618 -0.471469,0.163773 -0.96279,0.163773 -0.764277,0 -1.300263,-0.342435 -0.531023,-0.342436 -0.813905,-0.952865 -0.277919,-0.615391 -0.277919,-1.424334 0,-0.794053 0.277919,-1.409445 0.282882,-0.615392 0.794054,-0.967753 0.516135,-0.352361 1.210932,-0.352361 0.987604,0 1.553367,0.684871 0.570727,0.684871 0.570727,1.875952 0,0.133996 -0.0099,0.253105 -0.005,0.119108 -0.0099,0.203476 z m 1.419371,-2.332533 q -0.580651,0 -0.972716,0.411915 -0.392064,0.411916 -0.441692,1.275449 h 2.724597 q -0.01489,-0.838719 -0.36725,-1.26056 -0.352361,-0.426804 -0.942939,-0.426804 z"
         style="font-family:'Fira Code';-inkscape-font-specification:'Fira Code'"
         id="path213664" />
    </g>
    <g
       aria-label="/./new"
       id="text175146-2"
       style="font-size:9.67753px;stroke-width:0.162144">
      <path
         d="M 4.6063273,37.369798 3.9313816,37.072028 8.1795692,28.312623 8.8445893,28.64017 Z"
         style="font-family:'Fira Code';-inkscape-font-specification:'Fira Code'"
         id="path213667" />
      <path
         d="m 11.464952,35.583177 q 0,-0.362287 0.248142,-0.615391 0.248142,-0.253105 0.620355,-0.253105 0.377175,0 0.625317,0.253105 0.253105,0.253104 0.253105,0.615391 0,0.36725 -0.253105,0.625318 -0.248142,0.253104 -0.625317,0.253104 -0.372213,0 -0.620355,-0.253104 -0.248142,-0.258068 -0.248142,-0.625318 z"
         style="font-family:'Fira Code';-inkscape-font-specification:'Fira Code'"
         id="path213669" />
      <path
         d="m 16.517105,37.369798 -0.674945,-0.29777 4.248187,-8.759405 0.66502,0.327547 z"
         style="font-family:'Fira Code';-inkscape-font-specification:'Fira Code'"
         id="path213671" />
      <path
         d="m 22.273981,36.347454 v -5.225866 h 0.709685 l 0.06452,0.724574 q 0.317622,-0.40199 0.794054,-0.615392 0.476432,-0.218365 0.933013,-0.218365 0.76924,0 1.116638,0.406953 0.352362,0.406952 0.352362,1.131526 v 3.79657 h -0.833757 v -3.181178 q 0,-0.535986 -0.05955,-0.863533 -0.05955,-0.327547 -0.253104,-0.481395 -0.188588,-0.153848 -0.580652,-0.153848 -0.307696,0 -0.580652,0.133996 -0.267993,0.133997 -0.481395,0.337473 -0.208439,0.198514 -0.347399,0.40199 v 3.806495 z"
         style="font-family:'Fira Code';-inkscape-font-specification:'Fira Code'"
         id="path213673" />
      <path
         d="m 28.884464,34.02981 q 0.03474,0.908199 0.476433,1.325077 0.446655,0.411915 1.052121,0.411915 0.40199,0 0.724574,-0.119108 0.322584,-0.119108 0.669983,-0.352361 l 0.392064,0.550875 q -0.362287,0.287844 -0.833757,0.451618 -0.471469,0.163773 -0.96279,0.163773 -0.764277,0 -1.300263,-0.342435 -0.531023,-0.342436 -0.813905,-0.952865 -0.277919,-0.615392 -0.277919,-1.424334 0,-0.794054 0.277919,-1.409445 0.282882,-0.615392 0.794054,-0.967753 0.516135,-0.352362 1.210932,-0.352362 0.987604,0 1.553367,0.684872 0.570727,0.684871 0.570727,1.875952 0,0.133996 -0.0099,0.253104 -0.005,0.119108 -0.0099,0.203477 z m 1.419371,-2.332533 q -0.580651,0 -0.972715,0.411915 -0.392065,0.411915 -0.441693,1.275449 h 2.724597 q -0.01489,-0.838719 -0.36725,-1.26056 -0.352361,-0.426804 -0.942939,-0.426804 z"
         style="font-family:'Fira Code';-inkscape-font-specification:'Fira Code'"
         id="path213675" />
      <path
         d="m 38.055771,36.347454 h -1.181155 l -0.674946,-3.836272 -0.734499,3.836272 h -1.151378 l -0.952865,-5.225866 h 0.853608 l 0.66502,4.709731 0.833756,-4.044711 h 0.987605 l 0.789091,4.044711 0.66502,-4.709731 h 0.813905 z"
         style="font-family:'Fira Code';-inkscape-font-specification:'Fira Code'"
         id="path213677" />
    </g>
    <g
       aria-label="[GET]"
       id="text175146-6"
       style="font-size:9.67753px;fill:#c3e1b4;stroke-width:0.162144">
      <path
         d="M 4.8429391,16.882075 V 7.641274 H 7.3293199 V 8.3608852 H 5.63203 v 7.8115038 h 1.6972899 v 0.709686 z"
         style="font-family:'Fira Code';-inkscape-font-specification:'Fira Code'"
         id="path213680" />
      <path
         d="m 12.083703,15.849805 q -1.215895,0 -1.940469,-0.878422 -0.7196115,-0.883385 -0.7196115,-2.655117 0,-0.883385 0.2332533,-1.543442 0.2382161,-0.660058 0.6451682,-1.10175 0.406953,-0.4416925 0.918125,-0.6600572 0.511172,-0.2183648 1.062047,-0.2183648 0.669983,0 1.111675,0.1935506 0.441693,0.1885877 0.843682,0.5558376 l -0.521097,0.5409488 q -0.610429,-0.5707258 -1.429297,-0.5707258 -0.496284,0 -0.942939,0.2630303 -0.441692,0.2630305 -0.719611,0.8734595 -0.277919,0.610428 -0.277919,1.667513 0,1.48885 0.461544,2.148908 0.461544,0.660057 1.354854,0.660057 0.694797,0 1.300263,-0.327547 v -2.084392 h -1.344929 l -0.104219,-0.714648 h 2.302756 v 3.255621 q -0.461544,0.253104 -0.987605,0.426803 -0.521097,0.168737 -1.245671,0.168737 z"
         style="font-family:'Fira Code';-inkscape-font-specification:'Fira Code'"
         id="path213682" />
      <path
         d="m 17.036599,9.6065571 v 2.3027559 h 2.531046 v 0.709686 h -2.531046 v 2.426826 h 3.106735 V 15.73566 H 16.173065 V 8.9018344 h 3.880938 l -0.09926,0.7047227 z"
         style="font-family:'Fira Code';-inkscape-font-specification:'Fira Code'"
         id="path213684" />
      <path
         d="M 24.272399,9.6412969 V 15.73566 h -0.85857 V 9.6412969 h -2.13402 V 8.9018344 h 5.156387 l -0.08933,0.7394625 z"
         style="font-family:'Fira Code';-inkscape-font-specification:'Fira Code'"
         id="path213686" />
      <path
         d="m 30.967251,7.641274 v 9.240801 H 28.48087 v -0.704723 h 1.69729 V 8.3608852 H 28.48087 V 7.641274 Z"
         style="font-family:'Fira Code';-inkscape-font-specification:'Fira Code'"
         id="path213688" />
    </g>
  </g>
  <sodipodi:namedview
     id="namedview151819"
     pagecolor="#ffffff"
     bordercolor="#000000"
     borderopacity="0.25"
     inkscape:showpageshadow="2"
     inkscape:pageopacity="0.0"
     inkscape:pagecheckerboard="0"
     inkscape:deskcolor="#d1d1d1"
     showgrid="false"
     inkscape:zoom="9.6613825"
     inkscape:cx="15.059956"
     inkscape:cy="22.201792"
     inkscape:window-width="1485"
     inkscape:window-height="737"
     inkscape:window-x="27"
     inkscape:window-y="748"
     inkscape:window-maximized="0"
     inkscape:current-layer="text162934" />
  <defs
     id="defs151791">
    <filter
       x="-1.0286082"
       y="-1.0286082"
       width="3.0572163"
       height="3.0572163"
       filterUnits="objectBoundingBox"
       id="a">
      <feGaussianBlur
         stdDeviation="4"
         in="SourceGraphic"
         id="feGaussianBlur151776" />
    </filter>
    <filter
       x="-1.0286082"
       y="-1.028498"
       width="3.0572163"
       height="3.0569959"
       filterUnits="objectBoundingBox"
       id="b">
      <feGaussianBlur
         stdDeviation="4"
         in="SourceGraphic"
         id="feGaussianBlur151779" />
    </filter>
    <filter
       x="-1.0286082"
       y="-1.0286082"
       width="3.0572163"
       height="3.0572163"
       filterUnits="objectBoundingBox"
       id="c">
      <feGaussianBlur
         stdDeviation="4"
         in="SourceGraphic"
         id="feGaussianBlur151782" />
    </filter>
    <filter
       x="-1.028498"
       y="-1.0286082"
       width="3.0569959"
       height="3.0572163"
       filterUnits="objectBoundingBox"
       id="d">
      <feGaussianBlur
         stdDeviation="4"
         in="SourceGraphic"
         id="feGaussianBlur151785" />
    </filter>
    <filter
       x="-1.028498"
       y="-1.028498"
       width="3.0569959"
       height="3.0569959"
       filterUnits="objectBoundingBox"
       id="e">
      <feGaussianBlur
         stdDeviation="4"
         in="SourceGraphic"
         id="feGaussianBlur151788" />
    </filter>
  </defs>
</svg>
