<?xml version="1.0" encoding="UTF-8" standalone="no"?>
<svg
   width="36"
   height="46"
   version="1.1"
   id="svg151817"
   sodipodi:docname="integration-icon-05.svg"
   inkscape:version="1.2.1 (9c6d41e, 2022-07-14)"
   xmlns:inkscape="http://www.inkscape.org/namespaces/inkscape"
   xmlns:sodipodi="http://sodipodi.sourceforge.net/DTD/sodipodi-0.dtd"
   xmlns="http://www.w3.org/2000/svg"
   xmlns:svg="http://www.w3.org/2000/svg">
  <g
     aria-label="ROUTE"
     id="text162934"
     style="font-size:10.6756px;font-family:Ubuntu;-inkscape-font-specification:Ubuntu;fill:#dee0e1;stroke-width:0.178866">
    <g
       aria-label="update"
       id="text175146"
       style="font-size:9.67753px;stroke-width:0.162144">
      <path
         d="m 2.4742833,21.313698 v 3.702275 q 0,0.516135 0.213402,0.744426 0.2134019,0.22829 0.66502,0.22829 0.4317668,0 0.8139051,-0.243179 0.3871013,-0.248141 0.6005032,-0.585614 v -3.846198 h 0.8337565 v 5.225866 H 4.8911845 l -0.06948,-0.704723 Q 4.514009,26.231868 4.057428,26.44527 3.60581,26.653709 3.1492291,26.653709 q -0.759314,0 -1.1364895,-0.401989 -0.3722127,-0.406953 -0.3722127,-1.13649 v -3.801532 z"
         style="font-family:'Fira Code';-inkscape-font-specification:'Fira Code'"
         id="path258798" />
      <path
         d="m 9.9334117,21.204515 q 0.6947973,0 1.1067123,0.337473 0.416878,0.337473 0.600503,0.952865 0.183625,0.610429 0.183625,1.429297 0,0.78909 -0.223327,1.409445 -0.218365,0.615392 -0.66502,0.967753 -0.446656,0.352361 -1.1265642,0.352361 -0.8585706,0 -1.3796684,-0.605466 v 2.491344 l -0.8337565,0.10422 v -7.330109 h 0.7096856 l 0.06948,0.729537 q 0.2878445,-0.40199 0.6848713,-0.620355 0.3970269,-0.218365 0.8734592,-0.218365 z m -0.1985134,0.669983 q -0.4317668,0 -0.7642768,0.263031 -0.33251,0.258067 -0.5409491,0.575689 v 2.5906 q 0.2034762,0.302733 0.5111721,0.481395 0.3126587,0.173699 0.6848714,0.173699 0.6501311,0 0.9776791,-0.496283 0.327547,-0.496284 0.327547,-1.543442 0,-2.044689 -1.1960437,-2.044689 z"
         style="font-family:'Fira Code';-inkscape-font-specification:'Fira Code'"
         id="path258800" />
      <path
         d="m 16.677892,19.105236 0.833756,0.104219 v 7.330109 h -0.729537 l -0.07941,-0.689834 q -0.292807,0.416878 -0.674946,0.610429 -0.377175,0.19355 -0.808942,0.19355 -0.679909,0 -1.121601,-0.342435 -0.441693,-0.342436 -0.655094,-0.952865 -0.213402,-0.615392 -0.213402,-1.424334 0,-0.784128 0.243179,-1.39952 0.243179,-0.620354 0.699759,-0.972715 0.461544,-0.357325 1.106713,-0.357325 0.868496,0 1.39952,0.615392 z m -1.181155,2.769262 q -0.655095,0 -1.007456,0.511172 -0.352361,0.511172 -0.352361,1.548405 0,2.044689 1.255597,2.044689 0.441693,0 0.759314,-0.248142 0.317622,-0.253105 0.526061,-0.575689 V 22.544481 Q 16.46449,22.22686 16.161757,22.05316 15.859024,21.874498 15.496737,21.874498 Z"
         style="font-family:'Fira Code';-inkscape-font-specification:'Fira Code'"
         id="path258802" />
      <path
         d="m 23.248672,25.398112 q 0,0.317621 0.10422,0.461544 0.104219,0.143922 0.322584,0.208439 L 23.472,26.653709 q -0.337473,-0.04466 -0.590578,-0.213402 -0.253104,-0.173699 -0.367249,-0.521097 -0.282882,0.362287 -0.709686,0.550874 -0.421841,0.183625 -0.92805,0.183625 -0.784128,0 -1.235746,-0.441692 -0.451619,-0.441692 -0.451619,-1.171229 0,-0.808943 0.630281,-1.240709 0.63028,-0.431767 1.82136,-0.431767 h 0.76924 v -0.43673 q 0,-0.565763 -0.33251,-0.799016 -0.327547,-0.238216 -0.913162,-0.238216 -0.258067,0 -0.605466,0.06452 -0.347398,0.05955 -0.754351,0.203477 l -0.218365,-0.63028 q 0.476433,-0.178663 0.898274,-0.253105 0.426804,-0.07444 0.808942,-0.07444 0.972716,0 1.464037,0.456581 0.49132,0.456581 0.49132,1.230784 z m -2.158833,0.620354 q 0.387101,0 0.734499,-0.19355 0.352362,-0.198514 0.585615,-0.545912 v -1.344929 h -0.754351 q -0.863534,0 -1.220858,0.29777 -0.352361,0.297771 -0.352361,0.799017 0,0.987604 1.007456,0.987604 z"
         style="font-family:'Fira Code';-inkscape-font-specification:'Fira Code'"
         id="path258804" />
      <path
         d="m 29.611014,26.276534 q -0.267993,0.178662 -0.650132,0.277919 -0.382138,0.09926 -0.749388,0.09926 -0.843682,0 -1.300263,-0.441692 -0.456581,-0.441692 -0.456581,-1.13649 V 21.958866 H 25.253644 V 21.313698 H 26.45465 V 20.12758 l 0.833757,-0.09926 v 1.285375 h 1.806472 l -0.09926,0.645168 h -1.707215 v 3.106736 q 0,0.436729 0.22829,0.66502 0.233253,0.22829 0.76924,0.22829 0.292807,0 0.540949,-0.06948 0.248142,-0.06948 0.461544,-0.178662 z"
         style="font-family:'Fira Code';-inkscape-font-specification:'Fira Code'"
         id="path258806" />
      <path
         d="m 32.072566,24.22192 q 0.03474,0.908199 0.476433,1.325077 0.446655,0.411915 1.052121,0.411915 0.40199,0 0.724574,-0.119108 0.322584,-0.119108 0.669983,-0.352361 l 0.392064,0.550875 q -0.362287,0.287844 -0.833757,0.451618 -0.471469,0.163773 -0.96279,0.163773 -0.764277,0 -1.300263,-0.342435 -0.531023,-0.342436 -0.813905,-0.952865 -0.277919,-0.615392 -0.277919,-1.424334 0,-0.794054 0.277919,-1.409445 0.282882,-0.615392 0.794054,-0.967753 0.516135,-0.352362 1.210932,-0.352362 0.987604,0 1.553367,0.684872 0.570727,0.684871 0.570727,1.875952 0,0.133996 -0.0099,0.253104 -0.005,0.119108 -0.0099,0.203477 z m 1.419371,-2.332533 q -0.580651,0 -0.972715,0.411915 -0.392064,0.411916 -0.441693,1.275449 h 2.724597 q -0.01489,-0.838719 -0.36725,-1.26056 -0.352361,-0.426804 -0.942939,-0.426804 z"
         style="font-family:'Fira Code';-inkscape-font-specification:'Fira Code'"
         id="path258808" />
    </g>
    <g
       aria-label="/.:id"
       id="text175146-2"
       style="font-size:9.67753px;stroke-width:0.162144">
      <path
         d="m 1.5102601,37.369798 -0.6749457,-0.29777 4.2481877,-8.759405 0.66502,0.327547 z"
         style="font-family:'Fira Code';-inkscape-font-specification:'Fira Code'"
         id="path258811" />
      <path
         d="m 8.3688853,35.583177 q 0,-0.362287 0.2481418,-0.615391 0.2481418,-0.253105 0.6203545,-0.253105 0.3771755,0 0.6253173,0.253105 0.2531051,0.253104 0.2531051,0.615391 0,0.36725 -0.2531051,0.625318 -0.2481418,0.253104 -0.6253173,0.253104 -0.3722127,0 -0.6203545,-0.253104 -0.2481418,-0.258068 -0.2481418,-0.625318 z"
         style="font-family:'Fira Code';-inkscape-font-specification:'Fira Code'"
         id="path258813" />
      <path
         d="m 14.393754,32.074452 q 0,-0.33251 0.22829,-0.565763 0.233254,-0.233253 0.570727,-0.233253 0.347398,0 0.575689,0.233253 0.233253,0.233253 0.233253,0.565763 0,0.33251 -0.233253,0.570726 -0.228291,0.238217 -0.575689,0.238217 -0.337473,0 -0.570727,-0.238217 -0.22829,-0.238216 -0.22829,-0.570726 z m 0,3.578205 q 0,-0.322584 0.22829,-0.5608 0.233254,-0.238217 0.570727,-0.238217 0.347398,0 0.575689,0.238217 0.233253,0.238216 0.233253,0.5608 0,0.337473 -0.233253,0.575689 -0.228291,0.233253 -0.575689,0.233253 -0.337473,0 -0.570727,-0.233253 -0.22829,-0.238216 -0.22829,-0.575689 z"
         style="font-family:'Fira Code';-inkscape-font-specification:'Fira Code'"
         id="path258815" />
      <path
         d="m 21.158085,28.67491 q 0.277919,0 0.441693,0.168736 0.168736,0.168736 0.168736,0.411915 0,0.253105 -0.168736,0.426804 -0.163774,0.168737 -0.441693,0.168737 -0.26303,0 -0.431766,-0.168737 -0.168737,-0.173699 -0.168737,-0.426804 0,-0.243179 0.168737,-0.411915 0.168736,-0.168736 0.431766,-0.168736 z m 0.66502,2.446678 v 4.565809 h 1.473963 v 0.660057 h -3.920641 v -0.660057 h 1.612922 v -3.905752 h -1.563293 v -0.660057 z"
         style="font-family:'Fira Code';-inkscape-font-specification:'Fira Code'"
         id="path258817" />
      <path
         d="m 28.259889,28.913126 0.833757,0.104219 v 7.330109 h -0.729537 l -0.0794,-0.689834 q -0.292808,0.416878 -0.674946,0.610429 -0.377176,0.19355 -0.808942,0.19355 -0.679909,0 -1.121601,-0.342435 -0.441693,-0.342436 -0.655095,-0.952865 -0.213402,-0.615392 -0.213402,-1.424334 0,-0.784128 0.243179,-1.39952 0.243179,-0.620354 0.69976,-0.972715 0.461544,-0.357325 1.106713,-0.357325 0.868496,0 1.399519,0.615392 z m -1.181155,2.769262 q -0.655094,0 -1.007455,0.511172 -0.352362,0.511172 -0.352362,1.548405 0,2.044689 1.255598,2.044689 0.441692,0 0.759314,-0.248142 0.317621,-0.253105 0.52606,-0.575689 V 32.352371 Q 28.046488,32.03475 27.743755,31.86105 27.441022,31.682388 27.078734,31.682388 Z"
         style="font-family:'Fira Code';-inkscape-font-specification:'Fira Code'"
         id="path258819" />
    </g>
    <g
       aria-label="[PUT]"
       id="text175146-6"
       style="font-size:9.67753px;fill:#c3e1b4;stroke-width:0.162144">
      <path
         d="M 1.3069703,16.882075 V 7.641274 H 3.7933512 V 8.3608852 H 2.0960613 v 7.8115038 h 1.6972899 v 0.709686 z"
         style="font-family:'Fira Code';-inkscape-font-specification:'Fira Code';fill:#e1dab4"
         id="path258822" />
      <path
         d="m 10.964635,11.001114 q 0,0.799017 -0.342436,1.280412 -0.337472,0.481395 -0.9330128,0.69976 Q 9.0936459,13.19965 8.3194434,13.19965 H 7.4459843 v 2.53601 H 6.5824508 V 8.9018344 h 1.7469183 q 1.2208577,0 1.9255799,0.5111721 0.709686,0.5111721 0.709686,1.5881075 z m -0.923087,0.0099 q 0,-0.526061 -0.2084396,-0.83872 Q 9.6246693,9.8596617 9.2574194,9.7256651 8.8951324,9.5867057 8.4335887,9.5867057 H 7.4459843 v 2.9181473 h 0.9528645 q 0.4764323,0 0.848645,-0.129033 0.3722127,-0.129034 0.5806518,-0.451618 0.2134024,-0.327548 0.2134024,-0.913162 z"
         style="font-family:'Fira Code';-inkscape-font-specification:'Fira Code';fill:#e1dab4"
         id="path258824" />
      <path
         d="m 16.627217,8.9018344 v 4.6204006 q 0,0.689834 -0.277919,1.215895 -0.277919,0.52606 -0.789091,0.818868 -0.511172,0.292807 -1.201006,0.292807 -0.704723,0 -1.210932,-0.292807 -0.501247,-0.297771 -0.76924,-0.818868 -0.267993,-0.526061 -0.267993,-1.215895 V 8.9018344 h 0.853608 v 4.6501776 q 0,0.779165 0.362287,1.166266 0.36725,0.387101 1.03227,0.387101 0.669983,0 1.03227,-0.387101 0.367249,-0.387101 0.367249,-1.166266 V 8.9018344 Z"
         style="font-family:'Fira Code';-inkscape-font-specification:'Fira Code';fill:#e1dab4"
         id="path258826" />
      <path
         d="M 20.736431,9.6412969 V 15.73566 H 19.87786 V 9.6412969 H 17.743841 V 8.9018344 h 5.156386 l -0.08933,0.7394625 z"
         style="font-family:'Fira Code';-inkscape-font-specification:'Fira Code';fill:#e1dab4"
         id="path258828" />
      <path
         d="m 27.431282,7.641274 v 9.240801 h -2.486381 v -0.704723 h 1.69729 V 8.3608852 h -1.69729 V 7.641274 Z"
         style="font-family:'Fira Code';-inkscape-font-specification:'Fira Code';fill:#e1dab4"
         id="path258830" />
    </g>
  </g>
  <sodipodi:namedview
     id="namedview151819"
     pagecolor="#ffffff"
     bordercolor="#000000"
     borderopacity="0.25"
     inkscape:showpageshadow="2"
     inkscape:pageopacity="0.0"
     inkscape:pagecheckerboard="0"
     inkscape:deskcolor="#d1d1d1"
     showgrid="false"
     inkscape:zoom="9.1092603"
     inkscape:cx="22.504572"
     inkscape:cy="24.425694"
     inkscape:window-width="1485"
     inkscape:window-height="737"
     inkscape:window-x="22"
     inkscape:window-y="824"
     inkscape:window-maximized="0"
     inkscape:current-layer="text162934" />
  <defs
     id="defs151791">
    <filter
       x="-1.0286082"
       y="-1.0286082"
       width="3.0572163"
       height="3.0572163"
       filterUnits="objectBoundingBox"
       id="a">
      <feGaussianBlur
         stdDeviation="4"
         in="SourceGraphic"
         id="feGaussianBlur151776" />
    </filter>
    <filter
       x="-1.0286082"
       y="-1.028498"
       width="3.0572163"
       height="3.0569959"
       filterUnits="objectBoundingBox"
       id="b">
      <feGaussianBlur
         stdDeviation="4"
         in="SourceGraphic"
         id="feGaussianBlur151779" />
    </filter>
    <filter
       x="-1.0286082"
       y="-1.0286082"
       width="3.0572163"
       height="3.0572163"
       filterUnits="objectBoundingBox"
       id="c">
      <feGaussianBlur
         stdDeviation="4"
         in="SourceGraphic"
         id="feGaussianBlur151782" />
    </filter>
    <filter
       x="-1.028498"
       y="-1.0286082"
       width="3.0569959"
       height="3.0572163"
       filterUnits="objectBoundingBox"
       id="d">
      <feGaussianBlur
         stdDeviation="4"
         in="SourceGraphic"
         id="feGaussianBlur151785" />
    </filter>
    <filter
       x="-1.028498"
       y="-1.028498"
       width="3.0569959"
       height="3.0569959"
       filterUnits="objectBoundingBox"
       id="e">
      <feGaussianBlur
         stdDeviation="4"
         in="SourceGraphic"
         id="feGaussianBlur151788" />
    </filter>
  </defs>
</svg>
