<?xml version="1.0" encoding="UTF-8" standalone="no"?>
<svg
   width="36"
   height="46"
   version="1.1"
   id="svg151817"
   sodipodi:docname="integration-icon-01.svg"
   inkscape:version="1.2.1 (9c6d41e, 2022-07-14)"
   xmlns:inkscape="http://www.inkscape.org/namespaces/inkscape"
   xmlns:sodipodi="http://sodipodi.sourceforge.net/DTD/sodipodi-0.dtd"
   xmlns="http://www.w3.org/2000/svg"
   xmlns:svg="http://www.w3.org/2000/svg">
  <g
     aria-label="ROUTE"
     id="text162934"
     style="font-size:10.6756px;font-family:Ubuntu;-inkscape-font-specification:Ubuntu;fill:#dee0e1;stroke-width:0.178866">
    <g
       aria-label="index"
       id="text175146"
       style="font-size:9.67753px;stroke-width:0.162144">
      <path
         d="m 5.7744844,19.001631 q 0.2779188,0 0.4416924,0.168736 0.1687364,0.168737 0.1687364,0.411916 0,0.253104 -0.1687364,0.426803 -0.1637736,0.168737 -0.4416924,0.168737 -0.2630304,0 -0.4317668,-0.168737 -0.1687364,-0.173699 -0.1687364,-0.426803 0,-0.243179 0.1687364,-0.411916 0.1687364,-0.168736 0.4317668,-0.168736 z m 0.66502,2.446678 v 4.565809 h 1.4739623 v 0.660057 H 3.9928262 V 26.014118 H 5.6057479 V 22.108366 H 4.0424546 v -0.660057 z"
         style="font-family:'Fira Code';-inkscape-font-specification:'Fira Code'"
         id="path240009" />
      <path
         d="m 9.7497018,26.674175 v -5.225866 h 0.7096852 l 0.06452,0.724574 q 0.317622,-0.40199 0.794054,-0.615392 0.476432,-0.218364 0.933013,-0.218364 0.76924,0 1.116638,0.406952 0.352362,0.406953 0.352362,1.131527 v 3.796569 h -0.833757 v -3.181178 q 0,-0.535986 -0.05955,-0.863533 -0.05955,-0.327547 -0.253104,-0.481395 -0.188588,-0.153848 -0.580652,-0.153848 -0.307696,0 -0.580652,0.133996 -0.267993,0.133997 -0.481395,0.337473 -0.208439,0.198514 -0.347399,0.40199 v 3.806495 z"
         style="font-family:'Fira Code';-inkscape-font-specification:'Fira Code'"
         id="path240011" />
      <path
         d="m 18.831678,19.239847 0.833756,0.104219 v 7.330109 h -0.729537 l -0.07941,-0.689834 q -0.292808,0.416878 -0.674946,0.610429 -0.377176,0.19355 -0.808942,0.19355 -0.679909,0 -1.121601,-0.342435 -0.441693,-0.342436 -0.655095,-0.952865 -0.213402,-0.615391 -0.213402,-1.424334 0,-0.784128 0.243179,-1.399519 0.243179,-0.620355 0.69976,-0.972716 0.461544,-0.357324 1.106713,-0.357324 0.868496,0 1.39952,0.615391 z m -1.181155,2.769262 q -0.655095,0 -1.007456,0.511172 -0.352362,0.511173 -0.352362,1.548405 0,2.044689 1.255598,2.044689 0.441692,0 0.759314,-0.248142 0.317621,-0.253105 0.526061,-0.575689 v -2.610452 q -0.213402,-0.317621 -0.516135,-0.491321 -0.302733,-0.178662 -0.66502,-0.178662 z"
         style="font-family:'Fira Code';-inkscape-font-specification:'Fira Code'"
         id="path240013" />
      <path
         d="m 22.315574,24.356531 q 0.03474,0.908199 0.476432,1.325077 0.446656,0.411915 1.052122,0.411915 0.401989,0 0.724574,-0.119108 0.322584,-0.119108 0.669983,-0.352361 l 0.392064,0.550875 q -0.362287,0.287844 -0.833757,0.451618 -0.471469,0.163773 -0.96279,0.163773 -0.764277,0 -1.300263,-0.342435 -0.531023,-0.342436 -0.813905,-0.952865 -0.277919,-0.615391 -0.277919,-1.424334 0,-0.794053 0.277919,-1.409445 0.282882,-0.615392 0.794054,-0.967753 0.516135,-0.352361 1.210932,-0.352361 0.987604,0 1.553367,0.684871 0.570726,0.684871 0.570726,1.875952 0,0.133996 -0.0099,0.253105 -0.005,0.119108 -0.0099,0.203476 z m 1.419371,-2.332533 q -0.580652,0 -0.972716,0.411915 -0.392064,0.411916 -0.441692,1.275449 h 2.724597 q -0.01489,-0.838719 -0.36725,-1.26056 -0.352361,-0.426804 -0.942939,-0.426804 z"
         style="font-family:'Fira Code';-inkscape-font-specification:'Fira Code'"
         id="path240015" />
      <path
         d="m 28.122078,26.674175 h -0.952864 l 1.930543,-2.759337 -1.692327,-2.466529 h 0.987604 l 1.210932,1.945432 1.225821,-1.945432 h 0.952864 l -1.687364,2.43179 1.92558,2.794076 h -1.022344 l -1.429297,-2.243202 z"
         style="font-family:'Fira Code';-inkscape-font-specification:'Fira Code'"
         id="path240017" />
    </g>
    <g
       aria-label="/base"
       id="text175146-2"
       style="font-size:9.67753px;stroke-width:0.162144">
      <path
         d="M 4.6063273,37.369798 3.9313816,37.072028 8.1795692,28.312623 8.8445893,28.64017 Z"
         style="font-family:'Fira Code';-inkscape-font-specification:'Fira Code'"
         id="path240020" />
      <path
         d="m 11.196959,31.801496 q 0.282882,-0.377175 0.660058,-0.580652 0.382138,-0.208439 0.828793,-0.208439 0.69976,0 1.131527,0.337473 0.431766,0.337473 0.63028,0.952865 0.198513,0.610429 0.198513,1.429296 0,0.789091 -0.238216,1.409446 -0.233253,0.615392 -0.694797,0.967753 -0.461544,0.352361 -1.136489,0.352361 -0.908199,0 -1.424334,-0.655094 l -0.05955,0.540949 h -0.729537 v -7.330109 l 0.833756,-0.104219 z m 1.181155,3.985158 q 0.655095,0 1.007456,-0.50621 0.352361,-0.506209 0.352361,-1.553367 0,-2.044689 -1.230783,-2.044689 -0.43673,0 -0.76924,0.26303 -0.33251,0.258068 -0.540949,0.575689 v 2.590601 q 0.203477,0.312659 0.511172,0.496284 0.312659,0.178662 0.669983,0.178662 z"
         style="font-family:'Fira Code';-inkscape-font-specification:'Fira Code'"
         id="path240022" />
      <path
         d="m 20.06057,35.206002 q 0,0.317621 0.10422,0.461544 0.104219,0.143922 0.322584,0.208439 l -0.203476,0.585614 q -0.337473,-0.04467 -0.590578,-0.213402 -0.253104,-0.173699 -0.367249,-0.521097 -0.282882,0.362287 -0.709686,0.550874 -0.421841,0.183625 -0.92805,0.183625 -0.784128,0 -1.235747,-0.441692 -0.451618,-0.441693 -0.451618,-1.171229 0,-0.808943 0.630281,-1.240709 0.63028,-0.431767 1.82136,-0.431767 h 0.76924 v -0.43673 q 0,-0.565763 -0.33251,-0.799016 -0.327547,-0.238216 -0.913162,-0.238216 -0.258067,0 -0.605466,0.06452 -0.347398,0.05955 -0.754351,0.203477 l -0.218365,-0.63028 q 0.476433,-0.178663 0.898274,-0.253105 0.426803,-0.07444 0.808942,-0.07444 0.972716,0 1.464037,0.456581 0.49132,0.456581 0.49132,1.230784 z m -2.158833,0.620354 q 0.387101,0 0.734499,-0.19355 0.352362,-0.198514 0.585615,-0.545912 V 33.741965 H 18.4675 q -0.863534,0 -1.220858,0.29777 -0.352361,0.29777 -0.352361,0.799017 0,0.987604 1.007456,0.987604 z"
         style="font-family:'Fira Code';-inkscape-font-specification:'Fira Code'"
         id="path240024" />
      <path
         d="m 24.050676,35.771765 q 0.605466,0 0.952865,-0.223328 0.347398,-0.223327 0.347398,-0.605466 0,-0.233253 -0.08933,-0.406952 -0.08437,-0.173699 -0.352361,-0.312659 -0.267993,-0.143922 -0.823831,-0.282881 -0.540949,-0.133997 -0.942939,-0.307696 -0.397027,-0.178662 -0.620354,-0.461544 -0.218365,-0.282882 -0.218365,-0.7345 0,-0.660057 0.550875,-1.042195 0.550875,-0.382139 1.434259,-0.382139 0.630281,0 1.096787,0.168737 0.47147,0.168736 0.799017,0.406952 l -0.36725,0.565764 q -0.292807,-0.203477 -0.655095,-0.33251 -0.357324,-0.133997 -0.863533,-0.133997 -0.615392,0 -0.873459,0.193551 -0.258068,0.188587 -0.258068,0.49132 0,0.233254 0.124071,0.387102 0.129034,0.148885 0.431767,0.267993 0.302733,0.119108 0.833756,0.26303 0.511173,0.138959 0.893311,0.327547 0.382138,0.188588 0.590577,0.496284 0.213402,0.302733 0.213402,0.789091 0,0.555837 -0.317621,0.903236 -0.317622,0.342436 -0.823831,0.501246 -0.501246,0.153848 -1.062047,0.153848 -0.709685,0 -1.210932,-0.203476 -0.496283,-0.208439 -0.833756,-0.501246 l 0.476432,-0.550875 q 0.307696,0.253104 0.704723,0.411915 0.401989,0.153848 0.863533,0.153848 z"
         style="font-family:'Fira Code';-inkscape-font-specification:'Fira Code'"
         id="path240026" />
      <path
         d="m 28.884464,34.02981 q 0.03474,0.908199 0.476433,1.325077 0.446655,0.411915 1.052121,0.411915 0.40199,0 0.724574,-0.119108 0.322584,-0.119108 0.669983,-0.352361 l 0.392064,0.550875 q -0.362287,0.287844 -0.833757,0.451618 -0.471469,0.163773 -0.96279,0.163773 -0.764277,0 -1.300263,-0.342435 -0.531023,-0.342436 -0.813905,-0.952865 -0.277919,-0.615392 -0.277919,-1.424334 0,-0.794054 0.277919,-1.409445 0.282882,-0.615392 0.794054,-0.967753 0.516135,-0.352362 1.210932,-0.352362 0.987604,0 1.553367,0.684872 0.570727,0.684871 0.570727,1.875952 0,0.133996 -0.0099,0.253104 -0.005,0.119108 -0.0099,0.203477 z m 1.419371,-2.332533 q -0.580651,0 -0.972715,0.411915 -0.392065,0.411915 -0.441693,1.275449 h 2.724597 q -0.01489,-0.838719 -0.36725,-1.26056 -0.352361,-0.426804 -0.942939,-0.426804 z"
         style="font-family:'Fira Code';-inkscape-font-specification:'Fira Code'"
         id="path240028" />
    </g>
    <g
       aria-label="[GET]"
       id="text175146-6"
       style="font-size:9.67753px;fill:#c3e1b4;stroke-width:0.162144">
      <path
         d="M 3.3261446,16.882075 V 7.641274 h 2.4863809 v 0.7196112 h -1.69729 v 7.8115038 h 1.69729 v 0.709686 z"
         style="font-family:'Fira Code';-inkscape-font-specification:'Fira Code';fill:#b4c2e1"
         id="path240031" />
      <path
         d="m 10.566908,15.849805 q -1.2158947,0 -1.9404687,-0.878422 -0.7196112,-0.883385 -0.7196112,-2.655117 0,-0.883385 0.2332532,-1.543442 Q 8.3782975,10.112766 8.78525,9.671074 9.1922026,9.2293815 9.7033747,9.0110168 10.214547,8.792652 10.765422,8.792652 q 0.669982,0 1.111675,0.1935506 0.441692,0.1885877 0.843682,0.5558376 l -0.521098,0.5409488 q -0.610429,-0.5707258 -1.429297,-0.5707258 -0.496283,0 -0.9429384,0.2630303 -0.4416924,0.2630305 -0.7196112,0.8734595 -0.2779188,0.610428 -0.2779188,1.667513 0,1.48885 0.4615437,2.148908 0.4615438,0.660057 1.3548547,0.660057 0.694797,0 1.300263,-0.327547 v -2.084392 h -1.344929 l -0.10422,-0.714648 h 2.302756 v 3.255621 q -0.461543,0.253104 -0.987604,0.426803 -0.521098,0.168737 -1.245672,0.168737 z"
         style="font-family:'Fira Code';-inkscape-font-specification:'Fira Code';fill:#b4c2e1"
         id="path240033" />
      <path
         d="m 15.519804,9.6065571 v 2.3027559 h 2.531047 v 0.709686 h -2.531047 v 2.426826 H 18.62654 V 15.73566 H 14.656271 V 8.9018344 h 3.880938 l -0.09926,0.7047227 z"
         style="font-family:'Fira Code';-inkscape-font-specification:'Fira Code';fill:#b4c2e1"
         id="path240035" />
      <path
         d="M 22.755605,9.6412969 V 15.73566 H 21.897034 V 9.6412969 H 19.763015 V 8.9018344 h 5.156387 l -0.08933,0.7394625 z"
         style="font-family:'Fira Code';-inkscape-font-specification:'Fira Code';fill:#b4c2e1"
         id="path240037" />
      <path
         d="m 29.450457,7.641274 v 9.240801 h -2.486381 v -0.704723 h 1.69729 V 8.3608852 h -1.69729 V 7.641274 Z"
         style="font-family:'Fira Code';-inkscape-font-specification:'Fira Code';fill:#b4c2e1"
         id="path240039" />
    </g>
  </g>
  <sodipodi:namedview
     id="namedview151819"
     pagecolor="#ffffff"
     bordercolor="#000000"
     borderopacity="0.25"
     inkscape:showpageshadow="2"
     inkscape:pageopacity="0.0"
     inkscape:pagecheckerboard="0"
     inkscape:deskcolor="#d1d1d1"
     showgrid="false"
     inkscape:zoom="8.1621397"
     inkscape:cx="26.218615"
     inkscape:cy="25.299738"
     inkscape:window-width="1485"
     inkscape:window-height="737"
     inkscape:window-x="27"
     inkscape:window-y="748"
     inkscape:window-maximized="0"
     inkscape:current-layer="text162934" />
  <defs
     id="defs151791">
    <filter
       x="-1.0286082"
       y="-1.0286082"
       width="3.0572163"
       height="3.0572163"
       filterUnits="objectBoundingBox"
       id="a">
      <feGaussianBlur
         stdDeviation="4"
         in="SourceGraphic"
         id="feGaussianBlur151776" />
    </filter>
    <filter
       x="-1.0286082"
       y="-1.028498"
       width="3.0572163"
       height="3.0569959"
       filterUnits="objectBoundingBox"
       id="b">
      <feGaussianBlur
         stdDeviation="4"
         in="SourceGraphic"
         id="feGaussianBlur151779" />
    </filter>
    <filter
       x="-1.0286082"
       y="-1.0286082"
       width="3.0572163"
       height="3.0572163"
       filterUnits="objectBoundingBox"
       id="c">
      <feGaussianBlur
         stdDeviation="4"
         in="SourceGraphic"
         id="feGaussianBlur151782" />
    </filter>
    <filter
       x="-1.028498"
       y="-1.0286082"
       width="3.0569959"
       height="3.0572163"
       filterUnits="objectBoundingBox"
       id="d">
      <feGaussianBlur
         stdDeviation="4"
         in="SourceGraphic"
         id="feGaussianBlur151785" />
    </filter>
    <filter
       x="-1.028498"
       y="-1.028498"
       width="3.0569959"
       height="3.0569959"
       filterUnits="objectBoundingBox"
       id="e">
      <feGaussianBlur
         stdDeviation="4"
         in="SourceGraphic"
         id="feGaussianBlur151788" />
    </filter>
  </defs>
</svg>
