<?xml version="1.0" encoding="UTF-8" standalone="no"?>
<svg
   width="36"
   height="46"
   version="1.1"
   id="svg151817"
   sodipodi:docname="integration-icon-02.svg"
   inkscape:version="1.2.1 (9c6d41e, 2022-07-14)"
   xmlns:inkscape="http://www.inkscape.org/namespaces/inkscape"
   xmlns:sodipodi="http://sodipodi.sourceforge.net/DTD/sodipodi-0.dtd"
   xmlns="http://www.w3.org/2000/svg"
   xmlns:svg="http://www.w3.org/2000/svg">
  <g
     aria-label="ROUTE"
     id="text162934"
     style="font-size:10.6756px;font-family:Ubuntu;-inkscape-font-specification:Ubuntu;fill:#dee0e1;stroke-width:0.178866">
    <g
       aria-label="create"
       id="text175146"
       style="font-size:9.67753px;stroke-width:0.162144">
      <path
         d="m 4.0028369,25.934098 q 0.392064,0 0.7295368,-0.124071 0.3424357,-0.129034 0.6302802,-0.33251 l 0.4069526,0.545912 q -0.3424357,0.292808 -0.8238308,0.461544 -0.4813951,0.168736 -0.9429388,0.168736 -0.7791653,0 -1.3300401,-0.33251 -0.545912,-0.337473 -0.8337565,-0.942939 -0.2878445,-0.610428 -0.2878445,-1.429296 0,-0.784128 0.2878445,-1.404483 0.2878445,-0.620354 0.8387193,-0.977679 0.5508748,-0.362287 1.3350029,-0.362287 0.9975301,0 1.7469183,0.605466 l -0.4069525,0.555838 q -0.6799086,-0.466507 -1.3498914,-0.466507 -0.6749458,0 -1.1116753,0.511173 -0.4367296,0.506209 -0.4367296,1.538479 0,1.047158 0.4367296,1.518628 0.4367295,0.466506 1.1116753,0.466506 z"
         style="font-family:'Fira Code';-inkscape-font-specification:'Fira Code'"
         id="path243950" />
      <path
         d="M 7.6455443,26.539564 V 25.899358 H 8.4594494 V 21.953904 H 7.6455443 v -0.640206 h 1.4491481 l 0.1538479,1.235746 q 0.302733,-0.645169 0.7344998,-0.99753 0.4317669,-0.352361 1.1414519,-0.352361 0.218365,0 0.387102,0.03474 0.173699,0.02978 0.352361,0.07941 l -0.119108,1.766769 h -0.684872 v -1.111675 q -0.01985,0 -0.04467,0 -1.2010064,0 -1.7221042,1.717141 v 2.213425 h 1.0620472 v 0.640206 z"
         style="font-family:'Fira Code';-inkscape-font-specification:'Fira Code'"
         id="path243952" />
      <path
         d="m 14.206399,24.22192 q 0.03474,0.908199 0.476433,1.325077 0.446655,0.411915 1.052121,0.411915 0.40199,0 0.724574,-0.119108 0.322584,-0.119108 0.669983,-0.352361 l 0.392064,0.550875 q -0.362287,0.287844 -0.833757,0.451618 -0.471469,0.163773 -0.96279,0.163773 -0.764277,0 -1.300263,-0.342435 -0.531023,-0.342436 -0.813905,-0.952865 -0.277919,-0.615392 -0.277919,-1.424334 0,-0.794054 0.277919,-1.409445 0.282882,-0.615392 0.794054,-0.967753 0.516135,-0.352362 1.210932,-0.352362 0.987604,0 1.553367,0.684872 0.570727,0.684871 0.570727,1.875952 0,0.133996 -0.0099,0.253104 -0.005,0.119108 -0.0099,0.203477 z m 1.419371,-2.332533 q -0.580651,0 -0.972715,0.411915 -0.392065,0.411916 -0.441693,1.275449 h 2.724597 q -0.01489,-0.838719 -0.36725,-1.26056 -0.352361,-0.426804 -0.942939,-0.426804 z"
         style="font-family:'Fira Code';-inkscape-font-specification:'Fira Code'"
         id="path243954" />
      <path
         d="m 23.248672,25.398112 q 0,0.317621 0.10422,0.461544 0.104219,0.143922 0.322584,0.208439 L 23.472,26.653709 q -0.337473,-0.04466 -0.590578,-0.213402 -0.253104,-0.173699 -0.367249,-0.521097 -0.282882,0.362287 -0.709686,0.550874 -0.421841,0.183625 -0.92805,0.183625 -0.784128,0 -1.235746,-0.441692 -0.451619,-0.441692 -0.451619,-1.171229 0,-0.808943 0.630281,-1.240709 0.63028,-0.431767 1.82136,-0.431767 h 0.76924 v -0.43673 q 0,-0.565763 -0.33251,-0.799016 -0.327547,-0.238216 -0.913162,-0.238216 -0.258067,0 -0.605466,0.06452 -0.347398,0.05955 -0.754351,0.203477 l -0.218365,-0.63028 q 0.476433,-0.178663 0.898274,-0.253105 0.426804,-0.07444 0.808942,-0.07444 0.972716,0 1.464037,0.456581 0.49132,0.456581 0.49132,1.230784 z m -2.158833,0.620354 q 0.387101,0 0.734499,-0.19355 0.352362,-0.198514 0.585615,-0.545912 v -1.344929 h -0.754351 q -0.863534,0 -1.220858,0.29777 -0.352361,0.297771 -0.352361,0.799017 0,0.987604 1.007456,0.987604 z"
         style="font-family:'Fira Code';-inkscape-font-specification:'Fira Code'"
         id="path243956" />
      <path
         d="m 29.611014,26.276534 q -0.267993,0.178662 -0.650132,0.277919 -0.382138,0.09926 -0.749388,0.09926 -0.843682,0 -1.300263,-0.441692 -0.456581,-0.441692 -0.456581,-1.13649 V 21.958866 H 25.253644 V 21.313698 H 26.45465 V 20.12758 l 0.833757,-0.09926 v 1.285375 h 1.806472 l -0.09926,0.645168 h -1.707215 v 3.106736 q 0,0.436729 0.22829,0.66502 0.233253,0.22829 0.76924,0.22829 0.292807,0 0.540949,-0.06948 0.248142,-0.06948 0.461544,-0.178662 z"
         style="font-family:'Fira Code';-inkscape-font-specification:'Fira Code'"
         id="path243958" />
      <path
         d="m 32.072566,24.22192 q 0.03474,0.908199 0.476433,1.325077 0.446655,0.411915 1.052121,0.411915 0.40199,0 0.724574,-0.119108 0.322584,-0.119108 0.669983,-0.352361 l 0.392064,0.550875 q -0.362287,0.287844 -0.833757,0.451618 -0.471469,0.163773 -0.96279,0.163773 -0.764277,0 -1.300263,-0.342435 -0.531023,-0.342436 -0.813905,-0.952865 -0.277919,-0.615392 -0.277919,-1.424334 0,-0.794054 0.277919,-1.409445 0.282882,-0.615392 0.794054,-0.967753 0.516135,-0.352362 1.210932,-0.352362 0.987604,0 1.553367,0.684872 0.570727,0.684871 0.570727,1.875952 0,0.133996 -0.0099,0.253104 -0.005,0.119108 -0.0099,0.203477 z m 1.419371,-2.332533 q -0.580651,0 -0.972715,0.411915 -0.392064,0.411916 -0.441693,1.275449 h 2.724597 q -0.01489,-0.838719 -0.36725,-1.26056 -0.352361,-0.426804 -0.942939,-0.426804 z"
         style="font-family:'Fira Code';-inkscape-font-specification:'Fira Code'"
         id="path243960" />
    </g>
    <g
       aria-label="/base"
       id="text175146-2"
       style="font-size:9.67753px;stroke-width:0.162144">
      <path
         d="m 1.5102601,37.369798 -0.6749457,-0.29777 4.2481877,-8.759405 0.66502,0.327547 z"
         style="font-family:'Fira Code';-inkscape-font-specification:'Fira Code'"
         id="path243963" />
      <path
         d="m 8.1008921,31.801496 q 0.2828817,-0.377175 0.6600572,-0.580652 0.3821384,-0.208439 0.8287937,-0.208439 0.69976,0 1.131527,0.337473 0.431766,0.337473 0.63028,0.952865 0.198513,0.610429 0.198513,1.429296 0,0.789091 -0.238216,1.409446 -0.233253,0.615392 -0.694797,0.967753 -0.461544,0.352361 -1.1364894,0.352361 -0.908199,0 -1.424334,-0.655094 l -0.059554,0.540949 H 7.2671357 v -7.330109 l 0.8337564,-0.104219 z m 1.181155,3.985158 q 0.6550944,0 1.0074559,-0.50621 0.352361,-0.506209 0.352361,-1.553367 0,-2.044689 -1.2307831,-2.044689 -0.4367296,0 -0.7692396,0.26303 -0.33251,0.258068 -0.5409492,0.575689 v 2.590601 q 0.2034763,0.312659 0.5111722,0.496284 0.3126586,0.178662 0.6699828,0.178662 z"
         style="font-family:'Fira Code';-inkscape-font-specification:'Fira Code'"
         id="path243965" />
      <path
         d="m 16.964503,35.206002 q 0,0.317621 0.10422,0.461544 0.104219,0.143922 0.322584,0.208439 l -0.203476,0.585614 q -0.337473,-0.04467 -0.590578,-0.213402 -0.253104,-0.173699 -0.36725,-0.521097 -0.282881,0.362287 -0.709685,0.550874 -0.421841,0.183625 -0.928051,0.183625 -0.784128,0 -1.235746,-0.441692 -0.451618,-0.441693 -0.451618,-1.171229 0,-0.808943 0.63028,-1.240709 0.630281,-0.431767 1.821361,-0.431767 h 0.76924 v -0.43673 q 0,-0.565763 -0.33251,-0.799016 -0.327547,-0.238216 -0.913162,-0.238216 -0.258068,0 -0.605466,0.06452 -0.347399,0.05955 -0.754351,0.203477 l -0.218365,-0.63028 q 0.476432,-0.178663 0.898273,-0.253105 0.426804,-0.07444 0.808943,-0.07444 0.972716,0 1.464036,0.456581 0.491321,0.456581 0.491321,1.230784 z m -2.158834,0.620354 q 0.387102,0 0.7345,-0.19355 0.352361,-0.198514 0.585615,-0.545912 v -1.344929 h -0.754351 q -0.863534,0 -1.220858,0.29777 -0.352361,0.29777 -0.352361,0.799017 0,0.987604 1.007455,0.987604 z"
         style="font-family:'Fira Code';-inkscape-font-specification:'Fira Code'"
         id="path243967" />
      <path
         d="m 20.954609,35.771765 q 0.605466,0 0.952865,-0.223328 0.347398,-0.223327 0.347398,-0.605466 0,-0.233253 -0.08933,-0.406952 Q 22.081173,34.36232 21.81318,34.22336 21.545187,34.079438 20.989349,33.940479 20.4484,33.806482 20.04641,33.632783 q -0.397027,-0.178662 -0.620354,-0.461544 -0.218365,-0.282882 -0.218365,-0.7345 0,-0.660057 0.550875,-1.042195 0.550874,-0.382139 1.434259,-0.382139 0.63028,0 1.096787,0.168737 0.471469,0.168736 0.799017,0.406952 l -0.36725,0.565764 q -0.292808,-0.203477 -0.655095,-0.33251 -0.357324,-0.133997 -0.863533,-0.133997 -0.615392,0 -0.873459,0.193551 -0.258068,0.188587 -0.258068,0.49132 0,0.233254 0.124071,0.387102 0.129034,0.148885 0.431767,0.267993 0.302733,0.119108 0.833756,0.26303 0.511172,0.138959 0.893311,0.327547 0.382138,0.188588 0.590577,0.496284 0.213402,0.302733 0.213402,0.789091 0,0.555837 -0.317621,0.903236 -0.317622,0.342436 -0.823831,0.501246 -0.501246,0.153848 -1.062047,0.153848 -0.709686,0 -1.210932,-0.203476 -0.496284,-0.208439 -0.833756,-0.501246 l 0.476432,-0.550875 q 0.307696,0.253104 0.704723,0.411915 0.401989,0.153848 0.863533,0.153848 z"
         style="font-family:'Fira Code';-inkscape-font-specification:'Fira Code'"
         id="path243969" />
      <path
         d="m 25.788397,34.02981 q 0.03474,0.908199 0.476432,1.325077 0.446656,0.411915 1.052122,0.411915 0.401989,0 0.724574,-0.119108 0.322584,-0.119108 0.669983,-0.352361 l 0.392064,0.550875 q -0.362287,0.287844 -0.833757,0.451618 -0.471469,0.163773 -0.96279,0.163773 -0.764277,0 -1.300263,-0.342435 -0.531024,-0.342436 -0.813905,-0.952865 -0.277919,-0.615392 -0.277919,-1.424334 0,-0.794054 0.277919,-1.409445 0.282881,-0.615392 0.794054,-0.967753 0.516134,-0.352362 1.210932,-0.352362 0.987604,0 1.553367,0.684872 0.570726,0.684871 0.570726,1.875952 0,0.133996 -0.0099,0.253104 -0.005,0.119108 -0.0099,0.203477 z m 1.419371,-2.332533 q -0.580652,0 -0.972716,0.411915 -0.392064,0.411915 -0.441692,1.275449 h 2.724597 q -0.01489,-0.838719 -0.36725,-1.26056 -0.352361,-0.426804 -0.942939,-0.426804 z"
         style="font-family:'Fira Code';-inkscape-font-specification:'Fira Code'"
         id="path243971" />
    </g>
    <g
       aria-label="[POST]"
       id="text175146-6"
       style="font-size:9.67753px;fill:#c3e1b4;stroke-width:0.162144">
      <path
         d="M 1.3069703,16.882075 V 7.641274 H 3.7933512 V 8.3608852 H 2.0960613 v 7.8115038 h 1.6972899 v 0.709686 z"
         style="font-family:'Fira Code';-inkscape-font-specification:'Fira Code';fill:#bfe1b4"
         id="path243974" />
      <path
         d="m 10.964635,11.001114 q 0,0.799017 -0.342436,1.280412 -0.337472,0.481395 -0.9330128,0.69976 Q 9.0936459,13.19965 8.3194434,13.19965 H 7.4459843 v 2.53601 H 6.5824508 V 8.9018344 h 1.7469183 q 1.2208577,0 1.9255799,0.5111721 0.709686,0.5111721 0.709686,1.5881075 z m -0.923087,0.0099 q 0,-0.526061 -0.2084396,-0.83872 Q 9.6246693,9.8596617 9.2574194,9.7256651 8.8951324,9.5867057 8.4335887,9.5867057 H 7.4459843 v 2.9181473 h 0.9528645 q 0.4764323,0 0.848645,-0.129033 0.3722127,-0.129034 0.5806518,-0.451618 0.2134024,-0.327548 0.2134024,-0.913162 z"
         style="font-family:'Fira Code';-inkscape-font-specification:'Fira Code';fill:#bfe1b4"
         id="path243976" />
      <path
         d="m 16.885284,12.326191 q 0,1.037233 -0.282881,1.831287 -0.282882,0.794054 -0.843683,1.245672 -0.555837,0.446655 -1.389594,0.446655 -0.833756,0 -1.394557,-0.43673 -0.555837,-0.441692 -0.838719,-1.230783 -0.282882,-0.789091 -0.282882,-1.846175 0,-1.037233 0.282882,-1.836249 0.282882,-0.799017 0.838719,-1.2506351 0.560801,-0.4565809 1.394557,-0.4565809 0.833757,0 1.389594,0.4416924 0.560801,0.4416924 0.843683,1.2407086 0.282881,0.794054 0.282881,1.851138 z m -0.903236,0 q 0,-1.36478 -0.377175,-2.089354 -0.372213,-0.7245738 -1.235747,-0.7245738 -0.863533,0 -1.240709,0.7295368 -0.372212,0.729537 -0.372212,2.094317 0,1.36478 0.387101,2.079428 0.387101,0.709686 1.22582,0.709686 0.863534,0 1.235747,-0.714649 0.377175,-0.719611 0.377175,-2.084391 z"
         style="font-family:'Fira Code';-inkscape-font-specification:'Fira Code';fill:#bfe1b4"
         id="path243978" />
      <path
         d="m 22.671937,13.844819 q 0,0.590578 -0.292808,1.042196 -0.292807,0.451618 -0.853607,0.709685 -0.555838,0.253105 -1.349892,0.253105 -0.749388,0 -1.359817,-0.228291 -0.605466,-0.22829 -1.037233,-0.645168 l 0.511173,-0.575689 q 0.352361,0.33251 0.813905,0.531023 0.461543,0.193551 1.086861,0.193551 0.416878,0 0.779165,-0.133997 0.362287,-0.138959 0.585615,-0.416878 0.223327,-0.282882 0.223327,-0.714648 0,-0.327548 -0.129033,-0.560801 -0.129034,-0.238216 -0.456581,-0.416878 -0.327548,-0.183625 -0.913162,-0.357324 -0.674946,-0.198514 -1.171229,-0.446656 -0.491321,-0.253104 -0.764277,-0.615391 -0.267993,-0.36725 -0.267993,-0.913162 0,-0.511172 0.282881,-0.9081991 0.282882,-0.3970268 0.779166,-0.6203545 0.501246,-0.2282904 1.151378,-0.2282904 0.709685,0 1.230783,0.2034762 0.52606,0.1985135 0.952864,0.575689 l -0.506209,0.5608008 q -0.36725,-0.3225846 -0.789091,-0.4714697 -0.421841,-0.1488851 -0.85857,-0.1488851 -0.560801,0 -0.962791,0.2481418 -0.401989,0.248142 -0.401989,0.759314 0,0.29777 0.15881,0.511172 0.158811,0.208439 0.535987,0.387101 0.377175,0.178662 1.027307,0.36725 0.531023,0.153848 0.982641,0.387101 0.456581,0.228291 0.7345,0.625318 0.277919,0.392064 0.277919,1.047158 z"
         style="font-family:'Fira Code';-inkscape-font-specification:'Fira Code';fill:#bfe1b4"
         id="path243980" />
      <path
         d="M 26.69182,9.6412969 V 15.73566 H 25.833249 V 9.6412969 H 23.69923 V 8.9018344 h 5.156386 l -0.08933,0.7394625 z"
         style="font-family:'Fira Code';-inkscape-font-specification:'Fira Code';fill:#bfe1b4"
         id="path243982" />
      <path
         d="m 33.386671,7.641274 v 9.240801 h -2.48638 V 16.177352 H 32.59758 V 8.3608852 H 30.900291 V 7.641274 Z"
         style="font-family:'Fira Code';-inkscape-font-specification:'Fira Code';fill:#bfe1b4"
         id="path243984" />
    </g>
  </g>
  <sodipodi:namedview
     id="namedview151819"
     pagecolor="#ffffff"
     bordercolor="#000000"
     borderopacity="0.25"
     inkscape:showpageshadow="2"
     inkscape:pageopacity="0.0"
     inkscape:pagecheckerboard="0"
     inkscape:deskcolor="#d1d1d1"
     showgrid="false"
     inkscape:zoom="7.4287793"
     inkscape:cx="28.806886"
     inkscape:cy="26.989629"
     inkscape:window-width="1485"
     inkscape:window-height="737"
     inkscape:window-x="22"
     inkscape:window-y="825"
     inkscape:window-maximized="0"
     inkscape:current-layer="text162934" />
  <defs
     id="defs151791">
    <filter
       x="-1.0286082"
       y="-1.0286082"
       width="3.0572163"
       height="3.0572163"
       filterUnits="objectBoundingBox"
       id="a">
      <feGaussianBlur
         stdDeviation="4"
         in="SourceGraphic"
         id="feGaussianBlur151776" />
    </filter>
    <filter
       x="-1.0286082"
       y="-1.028498"
       width="3.0572163"
       height="3.0569959"
       filterUnits="objectBoundingBox"
       id="b">
      <feGaussianBlur
         stdDeviation="4"
         in="SourceGraphic"
         id="feGaussianBlur151779" />
    </filter>
    <filter
       x="-1.0286082"
       y="-1.0286082"
       width="3.0572163"
       height="3.0572163"
       filterUnits="objectBoundingBox"
       id="c">
      <feGaussianBlur
         stdDeviation="4"
         in="SourceGraphic"
         id="feGaussianBlur151782" />
    </filter>
    <filter
       x="-1.028498"
       y="-1.0286082"
       width="3.0569959"
       height="3.0572163"
       filterUnits="objectBoundingBox"
       id="d">
      <feGaussianBlur
         stdDeviation="4"
         in="SourceGraphic"
         id="feGaussianBlur151785" />
    </filter>
    <filter
       x="-1.028498"
       y="-1.028498"
       width="3.0569959"
       height="3.0569959"
       filterUnits="objectBoundingBox"
       id="e">
      <feGaussianBlur
         stdDeviation="4"
         in="SourceGraphic"
         id="feGaussianBlur151788" />
    </filter>
  </defs>
</svg>
