<?xml version="1.0" encoding="UTF-8" standalone="no"?>
<svg
   version="1.0"
   width="570.70172pt"
   height="108.92136pt"
   viewBox="0 0 570.70171 108.92136"
   preserveAspectRatio="xMidYMid"
   id="svg112339"
   sodipodi:docname="perceptify-logo.svg"
   inkscape:version="1.2.1 (9c6d41e, 2022-07-14)"
   xmlns:inkscape="http://www.inkscape.org/namespaces/inkscape"
   xmlns:sodipodi="http://sodipodi.sourceforge.net/DTD/sodipodi-0.dtd"
   xmlns="http://www.w3.org/2000/svg"
   xmlns:svg="http://www.w3.org/2000/svg">
  <defs
     id="defs112343">
    <clipPath
       clipPathUnits="userSpaceOnUse"
       id="clipPath113162">
      <path
         id="path113164"
         style="fill:#ff0000;fill-opacity:1;fill-rule:nonzero;stroke:none;stroke-width:7.5"
         d="M 645.83496,2386.4258 V 699.99515 H 2314.0576 V 2386.4258 Z M 1761.3867,1869.5703 c 0.8739,0.053 1.5697,-0.9283 0.8936,-2.417 -0.1567,-0.3472 -0.3105,-0.708 -0.4687,-1.0547 -1.3984,-3.0779 -2.7817,-6.1663 -4.3359,-9.1699 -0.5048,-0.9549 -1.0335,-1.8956 -1.5527,-2.8418 0.111,-0.023 0.2137,-0.06 0.3075,-0.117 0.3127,0.555 0.6052,1.2345 0.996,1.2891 0.045,0.01 0.077,0.015 0.117,0.015 0.6128,0 1.1416,-0.6495 1.04,-1.9482 -0.079,-1.0145 -0.4538,-1.9765 -0.747,-2.9443 -0.038,-0.1432 -0.091,-0.282 -0.132,-0.4245 -0.1388,-0.4612 -0.2408,0.381 -0.4688,0.132 -0.045,-0.1365 -0.098,-0.2655 -0.1462,-0.3952 -0.1538,-0.4125 -0.3008,-0.8259 -0.381,-1.2599 h 0.015 c -0.1928,-1.0801 -0.7596,-1.5988 -1.3183,-1.6405 v -0.6593 c 0,-0.9933 -0.378,-1.6213 -0.8496,-1.8603 -0.023,-0.2692 0.3308,-0.2272 0.1905,-0.5565 -0.6307,-1.4793 -1.3018,-2.9355 -2.0947,-4.3359 -0.4297,-0.7593 -0.9717,-1.1203 -1.4502,-1.1719 -0.06,-0.351 -0.195,-0.687 -0.249,-1.04 -0.396,-2.5857 -3.0164,-2.2079 -2.622,0.381 0.01,0.045 0.01,0.088 0.015,0.132 -0.015,-0.1 -0.093,0.091 -0.117,0 -0.1132,-0.129 -0.2279,-0.2625 -0.3367,-0.3952 -0.309,-0.3548 -0.6353,-0.6923 -0.9668,-1.0254 0.4065,-0.5355 0.2655,-1.4755 -0.8203,-2.2412 -0.351,-0.2482 -0.7095,-0.4912 -1.0547,-0.747 -1.8028,-1.3381 -2.4391,0.174 -1.5966,1.5968 -0.231,-0.2423 -0.396,-0.1943 -0.4688,0.6735 -0.03,0.3787 0.015,0.7387 0.117,1.0839 0.053,0.038 -0.098,0.038 -0.03,0.075 0.023,0.015 0.053,0.03 0.075,0.045 0,0 0,0.01 0,0.015 0.06,0.177 0.1335,0.3525 0.2198,0.5273 0.2002,0.4035 0.477,0.7682 0.7617,1.1132 0.015,0.015 0.03,0.03 0.045,0.045 0.132,0.315 0.255,0.6338 0.4102,0.9375 0.216,0.4523 0.4178,0.9156 0.6735,1.3476 0.2438,0.4148 0.528,0.7946 0.8057,1.1866 0.3562,0.51 0.7706,0.9755 1.1865,1.4355 0.396,0.4072 0.7703,0.8198 1.1279,1.2598 0,0.01 0.01,0.023 0.015,0.03 0.501,1.1286 0.9889,2.2632 1.5088,3.3837 1.2998,2.6343 2.7515,5.1873 4.1601,7.7637 -0.06,0.3322 -0.038,0.7425 0.088,1.2159 0.216,0.7962 0.5588,1.559 0.8496,2.3291 0.3315,0.826 0.621,1.6599 1.0109,2.4609 0.4297,0.8817 1.0401,1.2754 1.5672,1.2891 0.023,4e-4 0.053,7e-4 0.075,0 0.6383,1.377 1.32,2.7334 1.9482,4.1161 0.1583,0.3473 0.3255,0.693 0.4838,1.0401 0.4057,0.8931 0.9844,1.3017 1.5088,1.3329 z m -296.6748,-38.3349 c 0.2078,0.015 0.441,0 0.7028,-0.06 0.6397,-0.1448 1.236,-0.4185 1.831,-0.6885 0.5903,-0.27 1.1442,-0.6023 1.6992,-0.9375 0.48,-0.3263 0.971,-0.6465 1.4649,-0.9522 0.6008,-0.3638 1.1939,-0.732 1.8017,-1.084 0.5768,-0.3368 1.1373,-0.6938 1.6992,-1.0547 0.4613,-0.3015 0.9276,-0.6082 1.3917,-0.9081 0.015,-0.01 0.03,-0.023 0.045,-0.03 0.092,-0.045 0.147,-0.068 0.1027,-0.06 l 0.015,-0.015 c 0.222,-0.068 0.4313,-0.1425 0.63,-0.264 0.097,-0.06 0.2168,-0.123 0.4538,-0.249 0.237,-0.1223 0.4935,-0.2198 0.7327,-0.3368 0.3503,-0.135 0.7028,-0.2632 1.0547,-0.3952 0.4012,-0.174 0.7955,-0.342 1.1865,-0.5423 0.4057,-0.2017 0.8095,-0.4297 1.2305,-0.6007 0.2602,-0.1103 0.537,-0.2153 0.791,-0.3225 0.447,-0.1875 0.7981,-0.4058 1.0547,-0.63 h 0.015 c 0.3427,-0.1208 0.6262,-0.3465 0.9522,-0.498 0.2377,-0.1283 0.483,-0.234 0.732,-0.3368 0.276,-0.1072 0.5445,-0.2595 0.8203,-0.366 0.3143,-0.1402 0.6293,-0.2782 0.9521,-0.3952 0.273,-0.082 0.5197,-0.2033 0.7911,-0.2933 0.2332,-0.085 0.4597,-0.1935 0.6885,-0.2932 0.3157,-0.01 0.6277,-0.1013 0.9375,-0.1613 0.2512,-0.03 0.4627,-0.1672 0.6885,-0.2632 0.1,-0.038 0.2707,-0.1523 0.366,-0.2198 0.01,0 0.015,-0.01 0.03,-0.015 0.023,-0.01 0.045,-0.03 0.075,-0.045 0.117,0.045 0.2467,0.067 0.381,0.075 0.2557,0.015 0.5332,-0.045 0.8349,-0.1905 0.3203,-0.1567 0.627,-0.3382 0.9083,-0.5565 0.022,-0.01 0.053,-0.038 0.075,-0.06 1.6884,-1.3317 0.315,-3.0447 -1.3623,-1.6992 -0.037,0.03 -0.077,0.06 -0.117,0.088 0.082,-0.038 -0.1275,0.091 -0.2933,0.1905 0.5318,-0.9213 0.7448,-2.2293 -0.7327,-1.4941 -0.282,0.1402 -0.579,0.246 -0.8642,0.381 -0.474,0.216 -0.9176,0.4717 -1.3916,0.6885 -0.6487,0.2932 -1.3156,0.5655 -1.9336,0.9229 -0.696,0.387 -1.3844,0.7725 -2.0654,1.1865 -0.531,0.2985 -1.0643,0.6053 -1.6114,0.8789 0.1897,-0.678 -0.4553,-1.4077 -1.7578,-1.1719 -0.3608,0.067 -0.7088,0.1613 -1.04,0.3225 -0.4298,0.207 -0.8388,0.4485 -1.2598,0.6735 -0.4718,0.2753 -0.9386,0.5738 -1.3916,0.8789 -0.4845,0.33 -0.9625,0.6645 -1.4355,1.0108 -0.4275,0.3083 -0.8455,0.6315 -1.2745,0.9375 -0.471,0.3203 -0.9484,0.6278 -1.4062,0.9668 -0.4815,0.3278 -0.9854,0.642 -1.4355,1.0107 -0.4597,0.3495 -0.9143,0.6938 -1.4063,0.9961 -0.354,0.204 -0.7065,0.4178 -1.0986,0.5423 -1.1706,0.3697 -0.747,1.0374 -0.4395,1.5674 -0.094,0.045 -0.1845,0.088 -0.2783,0.132 -0.3742,0.165 -0.7447,0.354 -1.1278,0.498 -0.2948,0.077 -0.5708,0.1875 -0.8496,0.3075 -0.1733,0.03 -0.4418,0.2385 -0.5423,0.2782 -0.015,-0.01 -0.1942,0.117 -0.3075,0.1905 1.6689,-0.7042 -1.3416,2.1486 -0.03,2.1973 0.089,0 0.1898,0 0.3225,-0.03 0.015,0 0.03,-0.015 0.045,-0.015 0.1485,0.067 -0.2377,0.2963 -0.045,0.3075 z" />
    </clipPath>
  </defs>
  <sodipodi:namedview
     id="namedview112341"
     pagecolor="#ffffff"
     bordercolor="#000000"
     borderopacity="0.25"
     inkscape:showpageshadow="2"
     inkscape:pageopacity="0.0"
     inkscape:pagecheckerboard="0"
     inkscape:deskcolor="#d1d1d1"
     inkscape:document-units="pt"
     showgrid="false"
     inkscape:zoom="0.60991577"
     inkscape:cx="279.5468"
     inkscape:cy="-46.727764"
     inkscape:window-width="1309"
     inkscape:window-height="675"
     inkscape:window-x="43"
     inkscape:window-y="38"
     inkscape:window-maximized="0"
     inkscape:current-layer="svg112339" />
  <metadata
     id="metadata112329">
Created by potrace 1.10, written by Peter Selinger 2001-2011
</metadata>
  <text
     xml:space="preserve"
     style="font-size:101.23px;font-family:Ubuntu;-inkscape-font-specification:Ubuntu;fill:#6a7280;fill-opacity:1;stroke:#6a7280;stroke-width:1.69607;stroke-opacity:1"
     x="120.49729"
     y="86.81897"
     id="text119250"><tspan
       sodipodi:role="line"
       id="tspan119248"
       style="font-style:normal;font-variant:normal;font-weight:normal;font-stretch:normal;font-family:'Microsoft Sans Serif';-inkscape-font-specification:'Microsoft Sans Serif';stroke-width:1.69608"
       x="120.49729"
       y="86.81897">Perceptify</tspan></text>
  <path
     fill-rule="evenodd"
     clip-rule="evenodd"
     d="m 45.069061,90.138066 c 24.890972,0 45.069072,-20.1781 45.069072,-45.068964 C 90.138133,20.17813 69.960033,0 45.069061,0 20.178088,0 0,20.17813 0,45.069102 0,69.959966 20.178088,90.138066 45.069061,90.138066 Z M 79.981633,45.069102 c 0,19.281709 -15.630864,34.912573 -34.912572,34.912573 -16.340115,0 -30.058503,-11.225479 -33.863796,-26.385393 4.979085,5.300909 12.052249,8.611682 19.898745,8.611682 15.07476,0 27.295361,-12.220492 27.295361,-27.295361 0,-10.899528 -6.388678,-20.306916 -15.625542,-24.681999 0.758669,-0.04919 1.524072,-0.07419 2.295232,-0.07419 19.281708,0 34.912572,15.630865 34.912572,34.912682 z"
     fill="#1a1a1a"
     id="path127769"
     style="fill:#6a7280;fill-opacity:1;stroke-width:1.08614" />
</svg>
