<?xml version="1.0" encoding="UTF-8" standalone="no"?>
<!-- Created with Inkscape (http://www.inkscape.org/) -->

<svg
   width="77.145mm"
   height="19.025mm"
   version="1.1"
   viewBox="0 0 77.145 19.025"
   id="svg44616"
   sodipodi:docname="synthine-logo-white-path.svg"
   inkscape:version="1.2.1 (9c6d41e, 2022-07-14)"
   xmlns:inkscape="http://www.inkscape.org/namespaces/inkscape"
   xmlns:sodipodi="http://sodipodi.sourceforge.net/DTD/sodipodi-0.dtd"
   xmlns="http://www.w3.org/2000/svg"
   xmlns:svg="http://www.w3.org/2000/svg">
  <defs
     id="defs44620" />
  <sodipodi:namedview
     id="namedview44618"
     pagecolor="#ffffff"
     bordercolor="#000000"
     borderopacity="0.25"
     inkscape:showpageshadow="2"
     inkscape:pageopacity="0.0"
     inkscape:pagecheckerboard="0"
     inkscape:deskcolor="#d1d1d1"
     inkscape:document-units="mm"
     showgrid="false"
     inkscape:zoom="2.1623506"
     inkscape:cx="167.17918"
     inkscape:cy="80.005527"
     inkscape:window-width="1309"
     inkscape:window-height="456"
     inkscape:window-x="63"
     inkscape:window-y="293"
     inkscape:window-maximized="0"
     inkscape:current-layer="text44612" />
  <g
     transform="translate(-69.691 -58.57)"
     id="g44614">
    <g
       aria-label="synthine"
       id="text44612"
       style="font-size:19.756px;font-family:Ubuntu;opacity:0.9055;fill:#181714;stroke-width:0.265">
      <path
         d="m 73.06895,72.181329 q 0.948288,0 1.38292,-0.217316 0.434632,-0.237072 0.434632,-0.79024 0,-0.513656 -0.474144,-0.849508 -0.454388,-0.335852 -1.521212,-0.730972 -0.651948,-0.237072 -1.205116,-0.4939 -0.533412,-0.276584 -0.928532,-0.632192 -0.39512,-0.355608 -0.632192,-0.849508 -0.217316,-0.513656 -0.217316,-1.244628 0,-1.422433 1.047068,-2.232429 1.047068,-0.829752 2.844864,-0.829752 0.908776,0 1.738528,0.177804 0.829752,0.158048 1.244628,0.316096 l -0.434632,1.936088 q -0.39512,-0.177804 -1.007556,-0.316096 -0.612436,-0.158048 -1.422432,-0.158048 -0.730972,0 -1.18536,0.256828 -0.454388,0.237072 -0.454388,0.750729 0,0.256828 0.07902,0.454388 0.09878,0.19756 0.316096,0.375364 0.217316,0.158048 0.572924,0.335852 0.355608,0.158048 0.869264,0.335852 0.849508,0.316096 1.442188,0.632192 0.59268,0.29634 0.968044,0.69146 0.39512,0.375364 0.572924,0.869264 0.177804,0.4939 0.177804,1.18536 0,1.4817 -1.106336,2.252184 -1.08658,0.750728 -3.121448,0.750728 -1.363164,0 -2.192916,-0.237072 -0.829752,-0.217316 -1.165604,-0.355608 l 0.414876,-1.995356 q 0.533412,0.217316 1.264384,0.414876 0.750728,0.19756 1.699016,0.19756 z"
         style="fill:#6a7280"
         id="path55557" />
      <path
         d="m 87.945195,63.567712 q -1.600236,5.887289 -3.714128,10.668241 -0.39512,0.88902 -0.809996,1.521212 -0.414876,0.632192 -0.928532,1.047068 -0.513656,0.414876 -1.145848,0.59268 -0.632192,0.19756 -1.461944,0.19756 -0.553168,0 -1.106336,-0.118536 -0.533412,-0.118536 -0.809996,-0.256828 l 0.434632,-1.916332 q 0.711216,0.276584 1.402676,0.276584 0.928532,0 1.442188,-0.454388 0.533412,-0.434632 0.928532,-1.363164 -1.126092,-2.17316 -2.17316,-4.74144 -1.027312,-2.56828 -1.837308,-5.452657 h 2.548524 q 0.19756,0.829752 0.474144,1.797796 0.29634,0.968045 0.632192,1.975601 0.335852,0.9878 0.711216,1.9756 0.375364,0.9878 0.750728,1.837308 0.632192,-1.758284 1.18536,-3.733884 0.553168,-1.995357 1.007556,-3.852421 z"
         style="fill:#6a7280"
         id="path55559" />
      <path
         d="m 89.762728,63.903564 q 0.69146,-0.19756 1.797796,-0.375364 1.106336,-0.177804 2.449744,-0.177804 1.264384,0 2.113892,0.355608 0.849508,0.335852 1.343408,0.968044 0.513656,0.612436 0.711216,1.501457 0.217316,0.869264 0.217316,1.916332 v 5.808264 h -2.390476 v -5.4329 q 0,-0.829752 -0.118536,-1.402676 -0.09878,-0.59268 -0.355608,-0.948288 -0.237072,-0.375365 -0.671704,-0.533413 -0.414876,-0.177804 -1.027312,-0.177804 -0.454388,0 -0.948288,0.05927 -0.4939,0.05927 -0.730972,0.09878 v 8.337033 h -2.390476 z"
         style="fill:#6a7280"
         id="path55561" />
      <path
         d="m 101.20144,60.841384 2.39047,-0.39512 v 3.121448 h 3.67462 v 1.995356 h -3.67462 v 4.208029 q 0,1.244628 0.39512,1.77804 0.39512,0.533412 1.34341,0.533412 0.65195,0 1.14585,-0.138292 0.51365,-0.138292 0.80999,-0.256828 l 0.39512,1.896576 q -0.41487,0.177804 -1.08658,0.355608 -0.6717,0.19756 -1.58048,0.19756 -1.10633,0 -1.85706,-0.29634 -0.73097,-0.29634 -1.1656,-0.849508 -0.43464,-0.572924 -0.61244,-1.363164 -0.1778,-0.809996 -0.1778,-1.837308 z"
         style="fill:#6a7280"
         id="path55563" />
      <path
         d="M 109.57797,73.900101 V 58.964564 l 2.39047,-0.39512 v 5.116804 q 0.39512,-0.138292 0.90878,-0.237072 0.53341,-0.09878 1.04707,-0.09878 1.24463,0 2.05462,0.355608 0.82975,0.335852 1.32365,0.968044 0.4939,0.612436 0.69146,1.481701 0.21732,0.869264 0.21732,1.936088 v 5.808264 h -2.39048 v -5.4329 q 0,-0.829752 -0.11853,-1.402676 -0.0988,-0.59268 -0.35561,-0.948288 -0.23707,-0.375365 -0.65195,-0.533413 -0.41487,-0.177804 -1.02731,-0.177804 -0.47414,0 -0.96804,0.09878 -0.4939,0.09878 -0.73098,0.177804 v 8.218497 z"
         style="fill:#6a7280"
         id="path55565" />
      <path
         d="m 123.48617,73.900101 h -2.39048 V 63.567712 h 2.39048 z m 0.25682,-13.355057 q 0,0.671704 -0.43463,1.066824 -0.43463,0.39512 -1.02731,0.39512 -0.61244,0 -1.04707,-0.39512 -0.43463,-0.39512 -0.43463,-1.066824 0,-0.69146 0.43463,-1.08658 0.43463,-0.39512 1.04707,-0.39512 0.59268,0 1.02731,0.39512 0.43463,0.39512 0.43463,1.08658 z"
         style="fill:#6a7280"
         id="path55567" />
      <path
         d="m 126.52857,63.903564 q 0.69146,-0.19756 1.7978,-0.375364 1.10633,-0.177804 2.44974,-0.177804 1.26438,0 2.11389,0.355608 0.84951,0.335852 1.34341,0.968044 0.51366,0.612436 0.71122,1.501457 0.21731,0.869264 0.21731,1.916332 v 5.808264 h -2.39047 v -5.4329 q 0,-0.829752 -0.11854,-1.402676 -0.0988,-0.59268 -0.35561,-0.948288 -0.23707,-0.375365 -0.6717,-0.533413 -0.41488,-0.177804 -1.02731,-0.177804 -0.45439,0 -0.94829,0.05927 -0.4939,0.05927 -0.73097,0.09878 v 8.337033 h -2.39048 z"
         style="fill:#6a7280"
         id="path55569" />
      <path
         d="m 137.51289,68.783297 q 0,-1.363164 0.39512,-2.390476 0.41488,-1.027313 1.08658,-1.699017 0.67171,-0.69146 1.54097,-1.027312 0.86927,-0.355608 1.77804,-0.355608 2.13365,0 3.31901,1.323652 1.20512,1.323652 1.20512,3.951201 0,0.19756 -0.0198,0.454388 0,0.237072 -0.0198,0.434632 h -6.81582 q 0.0988,1.244628 0.86927,1.936088 0.79024,0.671704 2.27194,0.671704 0.86926,0 1.58048,-0.158048 0.73097,-0.158048 1.14585,-0.335852 l 0.31609,1.955844 q -0.19756,0.09878 -0.55317,0.217316 -0.33585,0.09878 -0.79024,0.177804 -0.43463,0.09878 -0.94828,0.158048 -0.51366,0.05927 -1.04707,0.05927 -1.36317,0 -2.37072,-0.39512 -1.00756,-0.414876 -1.65951,-1.126092 -0.65194,-0.730972 -0.96804,-1.699016 -0.3161,-0.9878 -0.3161,-2.153404 z m 6.93436,-1.066824 q 0,-0.4939 -0.13829,-0.928532 -0.13829,-0.454388 -0.41488,-0.770484 -0.25683,-0.335853 -0.65195,-0.513657 -0.37536,-0.19756 -0.90877,-0.19756 -0.55317,0 -0.96805,0.217316 -0.41487,0.19756 -0.71121,0.533413 -0.27659,0.335852 -0.43463,0.770484 -0.15805,0.434632 -0.21732,0.88902 z"
         style="fill:#6a7280"
         id="path55571" />
    </g>
  </g>
</svg>
