<?xml version="1.0" encoding="UTF-8" standalone="no"?>
<!-- Created with Inkscape (http://www.inkscape.org/) -->

<svg
   width="172.46397mm"
   height="40.723061mm"
   viewBox="0 0 172.46397 40.723061"
   version="1.1"
   id="svg143057"
   inkscape:version="1.2.1 (9c6d41e, 2022-07-14)"
   sodipodi:docname="vibrilify-logo.svg"
   xmlns:inkscape="http://www.inkscape.org/namespaces/inkscape"
   xmlns:sodipodi="http://sodipodi.sourceforge.net/DTD/sodipodi-0.dtd"
   xmlns="http://www.w3.org/2000/svg"
   xmlns:svg="http://www.w3.org/2000/svg">
  <sodipodi:namedview
     id="namedview143059"
     pagecolor="#ffffff"
     bordercolor="#000000"
     borderopacity="0.25"
     inkscape:showpageshadow="2"
     inkscape:pageopacity="0.0"
     inkscape:pagecheckerboard="0"
     inkscape:deskcolor="#d1d1d1"
     inkscape:document-units="mm"
     showgrid="false"
     inkscape:zoom="0.72051491"
     inkscape:cx="471.1908"
     inkscape:cy="-7.6334298"
     inkscape:window-width="1309"
     inkscape:window-height="843"
     inkscape:window-x="454"
     inkscape:window-y="781"
     inkscape:window-maximized="0"
     inkscape:current-layer="text143906" />
  <defs
     id="defs143054" />
  <g
     inkscape:label="Layer 1"
     inkscape:groupmode="layer"
     id="layer1"
     transform="translate(-15.685114,-121.38504)">
    <g
       id="g146895"
       transform="matrix(1.8515416,0,0,1.8515416,-102.5338,-145.91882)">
      <g
         aria-label="ibrilify"
         transform="scale(1.0560748,0.94690264)"
         id="text143906"
         style="font-size:20.8435px;font-family:'Sinhala MN';-inkscape-font-specification:'Sinhala MN';fill:#6a7280;stroke:#6a7280;stroke-width:0.349226">
        <path
           d="m 93.453828,160.1998 v 9.91287 h -2.289935 v -9.91287 z m -2.63597,-4.12189 q 0,-0.60047 0.437632,-1.0381 0.437632,-0.43763 1.048282,-0.43763 0.620826,0 1.058458,0.43763 0.437633,0.42745 0.437633,1.04828 0,0.62083 -0.437633,1.05846 -0.427454,0.43763 -1.048281,0.43763 -0.620827,0 -1.058459,-0.43763 -0.437632,-0.43763 -0.437632,-1.06864 z"
           style="font-family:Futura;-inkscape-font-specification:Futura;stroke-width:0.349227"
           id="path149907" />
        <path
           d="m 98.644348,152.92289 v 8.42696 q 1.373962,-1.42485 3.114312,-1.42485 2.00497,0 3.33822,1.49609 1.33325,1.48592 1.33325,3.70461 0,2.28994 -1.34343,3.78603 -1.33325,1.48591 -3.36875,1.48591 -1.719996,0 -3.073602,-1.32307 v 1.0381 h -2.289935 v -17.18978 z m 5.444962,12.30459 q 0,-1.42485 -0.77349,-2.32047 -0.78367,-0.91598 -1.96426,-0.91598 -1.26201,0 -2.055852,0.88545 -0.783667,0.87526 -0.783667,2.27975 0,1.44521 0.773489,2.31029 0.77349,0.88545 2.0355,0.88545 1.19076,0 1.97443,-0.88545 0.79385,-0.89562 0.79385,-2.23904 z"
           style="font-family:Futura;-inkscape-font-specification:Futura;stroke-width:0.349227"
           id="path149909" />
        <path
           d="m 108.85237,160.1998 h 2.28994 v 0.88544 q 0.631,-0.66154 1.11952,-0.9058 0.4987,-0.25444 1.18059,-0.25444 0.9058,0 1.89301,0.5903 l -1.04828,2.09656 q -0.65136,-0.46816 -1.27219,-0.46816 -1.87265,0 -1.87265,2.82934 v 5.13963 h -2.28994 z"
           style="font-family:Futura;-inkscape-font-specification:Futura;stroke-width:0.349227"
           id="path149911" />
        <path
           d="m 119.25377,160.1998 v 9.91287 h -2.28994 v -9.91287 z m -2.63597,-4.12189 q 0,-0.60047 0.43763,-1.0381 0.43763,-0.43763 1.04828,-0.43763 0.62083,0 1.05846,0.43763 0.43763,0.42745 0.43763,1.04828 0,0.62083 -0.43763,1.05846 -0.42746,0.43763 -1.04828,0.43763 -0.62083,0 -1.05846,-0.43763 -0.43763,-0.43763 -0.43763,-1.06864 z"
           style="font-family:Futura;-inkscape-font-specification:Futura;stroke-width:0.349227"
           id="path149913" />
        <path
           d="m 124.44429,152.92289 v 17.18978 h -2.28994 v -17.18978 z"
           style="font-family:Futura;-inkscape-font-specification:Futura;stroke-width:0.349227"
           id="path149915" />
        <path
           d="m 129.6348,160.1998 v 9.91287 h -2.28993 v -9.91287 z m -2.63597,-4.12189 q 0,-0.60047 0.43764,-1.0381 0.43763,-0.43763 1.04828,-0.43763 0.62083,0 1.05846,0.43763 0.43763,0.42745 0.43763,1.04828 0,0.62083 -0.43763,1.05846 -0.42746,0.43763 -1.04828,0.43763 -0.62083,0 -1.05846,-0.43763 -0.43764,-0.43763 -0.43764,-1.06864 z"
           style="font-family:Futura;-inkscape-font-specification:Futura;stroke-width:0.349227"
           id="path149917" />
        <path
           d="m 134.90675,162.33707 v 7.7756 h -2.30012 v -7.7756 h -0.8142 v -2.13727 h 0.8142 v -3.82674 q 0,-1.87266 0.65136,-2.64615 0.89562,-1.07881 2.60544,-1.07881 0.61065,0 1.5368,0.35621 v 2.34082 l -0.23408,-0.12213 q -0.74296,-0.37656 -1.2213,-0.37656 -0.61065,0 -0.82438,0.43763 -0.21372,0.42745 -0.21372,1.64875 v 3.26698 h 2.49348 v 2.13727 z"
           style="font-family:Futura;-inkscape-font-specification:Futura;stroke-width:0.349227"
           id="path149919" />
        <path
           d="m 141.8478,168.27055 -4.45774,-8.07075 h 2.65632 l 3.03289,5.69939 2.82934,-5.69939 h 2.58509 l -7.89774,15.30694 h -2.61561 z"
           style="font-family:Futura;-inkscape-font-specification:Futura;stroke-width:0.349227"
           id="path149921" />
      </g>
      <g
         aria-label="V"
         transform="scale(1.7420903,0.57402305)"
         id="text143906-5"
         style="font-size:33.9126px;font-family:'Sinhala MN';-inkscape-font-specification:'Sinhala MN';fill:#6a7280;stroke:#6a7280;stroke-width:0.568195">
        <path
           d="m 41.036342,252.20133 7.070645,17.71801 7.169998,-17.71801 h 4.222516 L 48.024192,279.68908 36.813826,252.20133 Z"
           style="font-family:Futura;-inkscape-font-specification:Futura;stroke-width:0.568196"
           id="path149924" />
      </g>
    </g>
    <path
       id="path147001"
       style="fill:#6a7280;stroke:#6a7280;stroke-width:0.330999"
       inkscape:transform-center-x="-2.514867e-06"
       inkscape:transform-center-y="2.0370241"
       transform="matrix(1.3272762,0,0,0.59713476,6.3523251,67.70747)"
       d="m 35.057995,116.5101 -5.9086,-10.23399 -5.9086,-10.233996 11.8172,-10e-7 11.817199,0 -5.908599,10.233997 z" />
  </g>
</svg>
