<?xml version="1.0" encoding="UTF-8" standalone="no"?>
<!-- Created with Inkscape (http://www.inkscape.org/) -->

<svg
   width="135.45085mm"
   height="63.534595mm"
   viewBox="0 0 135.45085 63.534595"
   version="1.1"
   id="svg139895"
   inkscape:version="1.2.1 (9c6d41e, 2022-07-14)"
   sodipodi:docname="zdravi-logo.svg"
   xmlns:inkscape="http://www.inkscape.org/namespaces/inkscape"
   xmlns:sodipodi="http://sodipodi.sourceforge.net/DTD/sodipodi-0.dtd"
   xmlns="http://www.w3.org/2000/svg"
   xmlns:svg="http://www.w3.org/2000/svg">
  <sodipodi:namedview
     id="namedview139897"
     pagecolor="#ffffff"
     bordercolor="#000000"
     borderopacity="0.25"
     inkscape:showpageshadow="2"
     inkscape:pageopacity="0.0"
     inkscape:pagecheckerboard="0"
     inkscape:deskcolor="#d1d1d1"
     inkscape:document-units="mm"
     showgrid="false"
     inkscape:zoom="0.55892001"
     inkscape:cx="217.38352"
     inkscape:cy="33.099548"
     inkscape:window-width="1309"
     inkscape:window-height="659"
     inkscape:window-x="0"
     inkscape:window-y="748"
     inkscape:window-maximized="0"
     inkscape:current-layer="text696" />
  <defs
     id="defs139892" />
  <g
     inkscape:label="Layer 1"
     inkscape:groupmode="layer"
     id="layer1"
     transform="translate(-41.944427,-98.50406)">
    <g
       aria-label="Phemeral"
       id="text696"
       style="font-weight:300;font-size:41.5075px;line-height:0;font-family:'Mukta Mahee';-inkscape-font-specification:'Mukta Mahee, Light';letter-spacing:-0.918104px;word-spacing:-0.0079375px;opacity:0.905495;fill:#6a7280;stroke-width:0.556777"
       transform="translate(-91.082203,-24.32909)">
      <g
         aria-label="Zdraví"
         transform="scale(1.0690404,0.93541834)"
         id="text140789"
         style="font-size:43.5886px;font-family:'Microsoft Sans Serif';-inkscape-font-specification:'Microsoft Sans Serif';stroke:#6a7280;stroke-width:0.730312">
        <path
           d="m 151.92864,139.15319 -20.41088,26.39154 h 20.41088 v 1.83038 h -26.79593 v -0.70236 l 19.81494,-25.68918 h -19.81494 v -1.83038 z"
           style="font-weight:normal;font-family:'Sinhala MN';-inkscape-font-specification:'Sinhala MN';stroke-width:0.730314"
           id="path141544" />
        <path
           d="m 170.05926,165.26804 q -0.74492,0.59594 -1.61755,1.08546 -0.87262,0.46824 -1.83038,0.80877 -0.93647,0.31925 -1.89423,0.48952 -0.95775,0.19155 -1.87294,0.19155 -1.91552,0 -3.59692,-0.8939 -1.66011,-0.89391 -2.91583,-2.40504 -1.23445,-1.51113 -1.95809,-3.51178 -0.72364,-2.02193 -0.72364,-4.25669 0,-2.21349 0.89391,-4.29927 0.91519,-2.08578 2.46889,-3.70333 1.55369,-1.63883 3.61819,-2.61787 2.08578,-0.97904 4.44825,-0.97904 1.59626,0 2.76686,0.55337 1.19187,0.55337 2.21348,1.46856 v -11.49309 l 3.04354,-1.23444 h 1.25573 v 32.90429 h -4.29927 z m 0,-12.74881 q 0,-1.27701 -0.48952,-2.3199 -0.46824,-1.06418 -1.23444,-1.8091 -0.76621,-0.76621 -1.74525,-1.17059 -0.95776,-0.42567 -1.9368,-0.42567 -1.29829,0 -2.42632,0.6385 -1.12802,0.63851 -1.97936,1.8091 -0.83006,1.14931 -1.31958,2.76685 -0.48952,1.59626 -0.48952,3.53306 0,2.08579 0.53209,3.89488 0.53209,1.8091 1.44728,3.17124 0.93647,1.34086 2.17091,2.12835 1.25573,0.76621 2.68172,0.76621 0.68108,0 1.36215,-0.17027 0.70235,-0.19155 1.31957,-0.48952 0.61723,-0.31925 1.14931,-0.72364 0.55337,-0.40438 0.95776,-0.85134 z"
           style="font-weight:normal;font-family:'Sinhala MN';-inkscape-font-specification:'Sinhala MN';stroke-width:0.730314"
           id="path141546" />
        <path
           d="m 184.1673,145.17642 h 0.65979 l 0.57466,4.44825 q 0.5108,-0.97904 1.27701,-1.78781 0.7662,-0.80878 1.68139,-1.40471 0.93648,-0.59594 1.95808,-0.91519 1.0429,-0.34054 2.10707,-0.34054 0.95776,0 1.87295,0.2554 0.93647,0.2554 1.74524,0.80878 l -1.36214,3.63947 q -0.42567,-0.46823 -0.89391,-0.74492 -0.46823,-0.29797 -0.95775,-0.44695 -0.48952,-0.17027 -1.00033,-0.21284 -0.5108,-0.0426 -1.02161,-0.0426 -0.80877,0 -1.59626,0.23411 -0.7662,0.23412 -1.46856,0.70236 -0.70235,0.44695 -1.29829,1.17059 -0.59594,0.70236 -1.04289,1.66011 v 15.17514 H 181.0812 V 146.3683 Z"
           style="font-weight:normal;font-family:'Sinhala MN';-inkscape-font-specification:'Sinhala MN';stroke-width:0.730314"
           id="path141548" />
        <path
           d="m 212.53529,167.37511 q -0.85134,-0.42567 -1.44727,-1.19188 -0.57466,-0.78749 -0.57466,-1.78781 -0.7662,0.57465 -1.51113,1.19187 -0.72364,0.61722 -1.59626,1.12803 -0.85134,0.48952 -1.91551,0.80877 -1.04289,0.31925 -2.42632,0.31925 -1.27701,0 -2.3199,-0.42567 -1.02161,-0.40438 -1.74525,-1.12802 -0.70235,-0.72364 -1.10674,-1.72396 -0.3831,-1.00033 -0.3831,-2.14964 0,-1.40471 0.55337,-2.53273 0.55337,-1.12803 1.51112,-2.00065 0.97905,-0.89391 2.25606,-1.57498 1.27701,-0.70236 2.72428,-1.23444 1.44728,-0.55337 2.97969,-0.97904 1.53241,-0.42567 2.97969,-0.78749 v -1.36215 q 0,-1.48984 -0.21283,-2.51145 -0.21284,-1.02161 -0.65979,-1.63883 -0.44695,-0.6385 -1.14931,-0.89391 -0.68107,-0.27668 -1.63883,-0.27668 -0.91519,0 -1.6814,0.36182 -0.7662,0.36182 -1.36214,0.97904 -0.57465,0.59594 -0.95776,1.42599 -0.36182,0.80878 -0.48952,1.72397 h -3.95873 q 0.17027,-1.40472 0.95776,-2.51146 0.80877,-1.10674 2.02193,-1.85166 1.21316,-0.76621 2.74557,-1.17059 1.5537,-0.40439 3.21381,-0.40439 2.12835,0 3.57563,0.42567 1.44728,0.40439 2.3199,1.14931 0.87262,0.74492 1.23444,1.83038 0.38311,1.06417 0.38311,2.36247 v 13.45117 q 0,1.00032 0.57465,1.78781 0.59594,0.76621 1.44728,1.19188 z m -2.02193,-12.68497 q -0.93647,0.29797 -1.9368,0.68107 -1.00032,0.38311 -1.95808,0.87263 -0.95776,0.46824 -1.83038,1.02161 -0.87262,0.55337 -1.53241,1.19187 -0.65979,0.63851 -1.04289,1.34086 -0.3831,0.70236 -0.3831,1.46856 0,0.80878 0.29796,1.53242 0.29797,0.70235 0.78749,1.25572 0.48952,0.53209 1.12803,0.85134 0.6385,0.29797 1.31958,0.29797 0.72363,0 1.38342,-0.19155 0.65979,-0.19155 1.27701,-0.51081 0.61722,-0.34053 1.23445,-0.7662 0.61722,-0.42567 1.25572,-0.91519 z"
           style="font-weight:normal;font-family:'Sinhala MN';-inkscape-font-specification:'Sinhala MN';stroke-width:0.730314"
           id="path141550" />
        <path
           d="m 221.93969,145.58081 7.70462,16.49471 7.38537,-16.49471 h 1.95809 l -9.8117,22.02842 h -1.48984 L 217.4063,145.58081 Z"
           style="font-weight:normal;font-family:'Sinhala MN';-inkscape-font-specification:'Sinhala MN';stroke-width:0.730314"
           id="path141552" />
        <path
           d="m 246.39151,167.37511 h -4.0013 v -23.77367 h 4.0013 z m 4.40568,-35.67114 -5.8104,7.96002 h -3.17124 l 3.80975,-7.96002 z"
           style="font-weight:normal;font-family:'Sinhala MN';-inkscape-font-specification:'Sinhala MN';stroke-width:0.730314"
           id="path141554" />
      </g>
      <g
         aria-label="ADMIN"
         transform="scale(1.0690404,0.93541834)"
         id="text140789-1"
         style="font-size:38.6795px;font-family:'Microsoft Sans Serif';-inkscape-font-specification:'Microsoft Sans Serif';letter-spacing:-0.814703px;word-spacing:-0.00704354px;opacity:0.905495;stroke:#6a7280;stroke-width:0.648061">
        <path
           d="m 137.86475,172.6927 11.78517,25.61006 h -4.28723 l -3.81507,-8.34782 h -10.74641 l -3.94727,8.34782 h -2.11529 l 12.06846,-25.61006 z m -6.32696,15.63801 h 9.23548 l -4.55164,-9.9154 z"
           style="font-weight:normal;font-family:'Sinhala MN';-inkscape-font-specification:'Sinhala MN';stroke-width:0.648063"
           id="path141557" />
        <path
           d="m 152.31032,173.2593 h 8.34783 q 3.85284,0 6.62915,0.71769 2.77631,0.71768 4.62719,2.30415 2.11528,1.8131 3.17292,4.15502 1.07653,2.34192 1.07653,5.11823 0,2.64411 -0.96321,4.96715 -0.94432,2.32303 -2.7952,4.06059 -1.83198,1.71867 -4.55164,2.71965 -2.70076,1.00098 -6.19476,1.00098 h -9.34881 z m 4.21169,23.21148 h 4.47609 q 2.11529,0 3.98505,-0.6988 1.86976,-0.6988 3.24847,-2.07751 1.3976,-1.37872 2.19083,-3.38068 0.81212,-2.02086 0.81212,-4.66496 0,-2.32304 -0.75546,-4.24946 -0.75546,-1.94531 -2.11528,-3.34291 -1.35983,-1.3976 -3.24848,-2.17194 -1.86976,-0.77435 -4.09836,-0.77435 h -4.49498 z"
           style="font-weight:normal;font-family:'Sinhala MN';-inkscape-font-specification:'Sinhala MN';stroke-width:0.648063"
           id="path141559" />
        <path
           d="m 181.01518,173.2593 h 4.30612 l 9.74542,19.20754 h 0.20775 l 9.55656,-19.20754 h 4.23057 v 25.04346 h -4.23057 v -20.52959 h -0.13221 l -10.27424,20.52959 h -0.86878 l -10.38756,-20.35962 h -0.2833 v 20.35962 h -1.86976 z"
           style="font-weight:normal;font-family:'Sinhala MN';-inkscape-font-specification:'Sinhala MN';stroke-width:0.648063"
           id="path141561" />
        <path
           d="m 215.04603,173.2593 h 4.21168 v 25.04346 h -4.21168 z"
           style="font-weight:normal;font-family:'Sinhala MN';-inkscape-font-specification:'Sinhala MN';stroke-width:0.648063"
           id="path141563" />
        <path
           d="m 225.24213,173.2593 h 2.36081 l 16.41235,18.31988 h 0.18886 V 173.2593 h 1.85088 v 25.62895 h -0.9821 l -17.77217,-20.35962 h -0.15109 v 19.77413 h -1.90754 z"
           style="font-weight:normal;font-family:'Sinhala MN';-inkscape-font-specification:'Sinhala MN';stroke-width:0.648063"
           id="path141565" />
      </g>
    </g>
  </g>
</svg>
