<?xml version="1.0" encoding="UTF-8" standalone="no"?>
<svg
   width="2143"
   height="737"
   version="1.1"
   id="svg21881"
   sodipodi:docname="hero-illustration.svg"
   inkscape:version="1.2.1 (9c6d41e, 2022-07-14)"
   xmlns:inkscape="http://www.inkscape.org/namespaces/inkscape"
   xmlns:sodipodi="http://sodipodi.sourceforge.net/DTD/sodipodi-0.dtd"
   xmlns:xlink="http://www.w3.org/1999/xlink"
   xmlns="http://www.w3.org/2000/svg"
   xmlns:svg="http://www.w3.org/2000/svg">
  <sodipodi:namedview
     id="namedview21883"
     pagecolor="#ffffff"
     bordercolor="#000000"
     borderopacity="0.25"
     inkscape:showpageshadow="2"
     inkscape:pageopacity="0.0"
     inkscape:pagecheckerboard="0"
     inkscape:deskcolor="#d1d1d1"
     showgrid="false"
     inkscape:zoom="0.2969376"
     inkscape:cx="1030.5195"
     inkscape:cy="484.95037"
     inkscape:window-width="1309"
     inkscape:window-height="742"
     inkscape:window-x="195"
     inkscape:window-y="860"
     inkscape:window-maximized="0"
     inkscape:current-layer="g21879" />
  <defs
     id="defs21525">
    <linearGradient
       x1="0.5"
       y1="0"
       x2="0.5"
       y2="1"
       id="linearGradient31165">
      <stop
         stop-color="hsl(213, 21%, 42%)"
         stop-opacity="1"
         offset="0"
         id="stop31161"
         style="stop-color:#000000;stop-opacity:0;" />
      <stop
         stop-color="hsl(206, 22%, 42%)"
         stop-opacity="1"
         offset="100%"
         id="stop31163" />
    </linearGradient>
    <linearGradient
       x1="-199.97%"
       y1="276.802%"
       x2="84.489%"
       y2="45.52%"
       id="a">
      <stop
         stop-color="#FFF"
         stop-opacity=".64"
         offset="0%"
         id="stop21480" />
      <stop
         stop-color="#FFF"
         stop-opacity="0"
         offset="100%"
         id="stop21482" />
    </linearGradient>
    <linearGradient
       x1="200"
       y1="-120"
       x2="200"
       y2="520"
       id="b"
       gradientUnits="userSpaceOnUse"
       gradientTransform="translate(872.89734,489.41687)">
      <stop
         stop-color="#3B82F6"
         stop-opacity="0"
         offset="0%"
         id="stop21485" />
      <stop
         stop-color="#3B82F6"
         offset="100%"
         id="stop21487" />
    </linearGradient>
    <linearGradient
       x1="78.435%"
       y1="20.1%"
       x2="39.176%"
       y2="96.998%"
       id="d">
      <stop
         stop-color="#2563EB"
         offset="0%"
         id="stop21490" />
      <stop
         stop-color="#F472B6"
         offset="34.045%"
         id="stop21492" />
      <stop
         stop-color="#C084FC"
         offset="50.898%"
         id="stop21494" />
      <stop
         stop-color="#376DF9"
         stop-opacity="0"
         offset="100%"
         id="stop21496" />
    </linearGradient>
    <linearGradient
       x1="200"
       y1="-120"
       x2="200"
       y2="520"
       id="e"
       gradientUnits="userSpaceOnUse"
       gradientTransform="translate(1305.7138,-715.31109)">
      <stop
         stop-color="#60A5FA"
         stop-opacity="0"
         offset="0%"
         id="stop21499" />
      <stop
         stop-color="#F472B6"
         offset="100%"
         id="stop21501" />
    </linearGradient>
    <linearGradient
       x1="-112.893%"
       y1="162.269%"
       x2="55.594%"
       y2="40.631%"
       id="g">
      <stop
         stop-color="#FFF"
         stop-opacity=".16"
         offset="0%"
         id="stop21504" />
      <stop
         stop-color="#FFF"
         stop-opacity="0"
         offset="100%"
         id="stop21506" />
    </linearGradient>
    <linearGradient
       x1="193.67"
       y1="-62.456752"
       x2="193.67"
       y2="431.12509"
       id="h"
       gradientTransform="matrix(1.0843186,0,0,0.92223815,448.38904,48.544319)"
       gradientUnits="userSpaceOnUse">
      <stop
         stop-color="#3B82F6"
         stop-opacity="0"
         offset="0%"
         id="stop21509" />
      <stop
         stop-color="#3B82F6"
         stop-opacity=".711"
         offset="70.928%"
         id="stop21511" />
      <stop
         stop-color="#DBEAFE"
         offset="100%"
         id="stop21513" />
    </linearGradient>
    <filter
       x="-0.3"
       y="-0.3"
       width="1.6"
       height="1.6"
       filterUnits="objectBoundingBox"
       id="c">
      <feGaussianBlur
         stdDeviation="50"
         in="SourceGraphic"
         id="feGaussianBlur21516" />
    </filter>
    <filter
       x="-0.3"
       y="-0.3"
       width="1.6"
       height="1.6"
       filterUnits="objectBoundingBox"
       id="f">
      <feGaussianBlur
         stdDeviation="50"
         in="SourceGraphic"
         id="feGaussianBlur21519" />
    </filter>
    <filter
       x="-0.13714286"
       y="-0.16941176"
       width="1.2742857"
       height="1.3388235"
       filterUnits="objectBoundingBox"
       id="i">
      <feGaussianBlur
         stdDeviation="24"
         in="SourceGraphic"
         id="feGaussianBlur21522" />
    </filter>
    <linearGradient
       x1="0.5"
       y1="0"
       x2="0.5"
       y2="1"
       id="gggyrate-grad">
      <stop
         stop-color="hsl(180, 3%, 18%)"
         stop-opacity="1"
         offset="0%"
         id="stop40315" />
      <stop
         stop-color="hsl(180, 1%, 45%)"
         stop-opacity="1"
         offset="100%"
         id="stop40317" />
    </linearGradient>
    <linearGradient
       x1="0.5"
       y1="0"
       x2="0.5"
       y2="1"
       id="gggyrate-grad-3">
      <stop
         stop-color="hsl(180, 3%, 18%)"
         stop-opacity="1"
         offset="0%"
         id="stop60846" />
      <stop
         stop-color="hsl(231, 46%, 31%)"
         stop-opacity="1"
         offset="100%"
         id="stop60848" />
    </linearGradient>
    <linearGradient
       x1="0.5"
       y1="0"
       x2="0.5"
       y2="1"
       id="gggyrate-grad-2">
      <stop
         stop-color="hsl(105, 69%, 40%)"
         stop-opacity="1"
         offset="0%"
         id="stop66569" />
      <stop
         stop-color="hsl(105, 69%, 60%)"
         stop-opacity="1"
         offset="100%"
         id="stop66571" />
    </linearGradient>
    <linearGradient
       x1="0.5"
       y1="0"
       x2="0.5"
       y2="1"
       id="gggyrate-grad-0">
      <stop
         stop-color="hsl(0, 0%, 42%)"
         stop-opacity="1"
         offset="0%"
         id="stop2916" />
      <stop
         stop-color="hsl(222, 30%, 40%)"
         stop-opacity="1"
         offset="100%"
         id="stop2918" />
    </linearGradient>
    <linearGradient
       x1="0.5"
       y1="0"
       x2="0.5"
       y2="1"
       id="gggyrate-grad-9">
      <stop
         stop-color="hsl(213, 21%, 42%)"
         stop-opacity="1"
         offset="0%"
         id="stop5801" />
      <stop
         stop-color="hsl(288, 30%, 40%)"
         stop-opacity="1"
         offset="100%"
         id="stop5803" />
    </linearGradient>
    <linearGradient
       x1="0.5"
       y1="0"
       x2="0.5"
       y2="1"
       id="gggyrate-grad-22">
      <stop
         stop-color="hsl(213, 21%, 42%)"
         stop-opacity="1"
         offset="0%"
         id="stop8926" />
      <stop
         stop-color="hsl(206, 22%, 42%)"
         stop-opacity="1"
         offset="100%"
         id="stop8928" />
    </linearGradient>
    <linearGradient
       inkscape:collect="always"
       xlink:href="#gggyrate-grad-22"
       id="linearGradient25431"
       x1="425.35177"
       y1="-291.11119"
       x2="425.35177"
       y2="1043.4302"
       gradientTransform="scale(0.94039802,1.0633795)"
       gradientUnits="userSpaceOnUse" />
    <linearGradient
       inkscape:collect="always"
       xlink:href="#gggyrate-grad-22"
       id="linearGradient25433"
       x1="425.35123"
       y1="-273.56412"
       x2="425.35123"
       y2="1025.8841"
       gradientTransform="scale(0.94039921,1.0633782)"
       gradientUnits="userSpaceOnUse" />
    <linearGradient
       inkscape:collect="always"
       xlink:href="#gggyrate-grad-22"
       id="linearGradient25435"
       x1="425.35067"
       y1="-256.01708"
       x2="425.35067"
       y2="1008.338"
       gradientTransform="scale(0.94040046,1.0633768)"
       gradientUnits="userSpaceOnUse" />
    <linearGradient
       inkscape:collect="always"
       xlink:href="#gggyrate-grad-22"
       id="linearGradient25437"
       x1="425.3501"
       y1="-238.47008"
       x2="425.3501"
       y2="990.7919"
       gradientTransform="scale(0.94040172,1.0633753)"
       gradientUnits="userSpaceOnUse" />
    <linearGradient
       inkscape:collect="always"
       xlink:href="#gggyrate-grad-22"
       id="linearGradient25439"
       x1="425.34946"
       y1="-220.9229"
       x2="425.34946"
       y2="973.24589"
       gradientTransform="scale(0.94040314,1.0633737)"
       gradientUnits="userSpaceOnUse" />
    <linearGradient
       inkscape:collect="always"
       xlink:href="#gggyrate-grad-22"
       id="linearGradient25441"
       x1="425.3488"
       y1="-203.37573"
       x2="425.3488"
       y2="955.69992"
       gradientTransform="scale(0.9404046,1.0633721)"
       gradientUnits="userSpaceOnUse" />
    <linearGradient
       inkscape:collect="always"
       xlink:href="#gggyrate-grad-22"
       id="linearGradient25443"
       x1="425.348"
       y1="-185.82858"
       x2="425.348"
       y2="938.15367"
       gradientTransform="scale(0.94040637,1.0633701)"
       gradientUnits="userSpaceOnUse" />
    <linearGradient
       inkscape:collect="always"
       xlink:href="#gggyrate-grad-22"
       id="linearGradient25445"
       x1="425.34724"
       y1="-168.28132"
       x2="425.34724"
       y2="920.60775"
       gradientTransform="scale(0.94040806,1.0633682)"
       gradientUnits="userSpaceOnUse" />
    <linearGradient
       inkscape:collect="always"
       xlink:href="#gggyrate-grad-22"
       id="linearGradient25447"
       x1="425.34643"
       y1="-150.734"
       x2="425.34643"
       y2="903.06192"
       gradientTransform="scale(0.94040985,1.0633661)"
       gradientUnits="userSpaceOnUse" />
    <linearGradient
       inkscape:collect="always"
       xlink:href="#gggyrate-grad-22"
       id="linearGradient25449"
       x1="425.34556"
       y1="-133.1867"
       x2="425.34556"
       y2="885.51606"
       gradientTransform="scale(0.94041176,1.063364)"
       gradientUnits="userSpaceOnUse" />
    <linearGradient
       inkscape:collect="always"
       xlink:href="#gggyrate-grad-22"
       id="linearGradient25451"
       x1="425.34463"
       y1="-115.63928"
       x2="425.34463"
       y2="867.97032"
       gradientTransform="scale(0.94041382,1.0633617)"
       gradientUnits="userSpaceOnUse" />
    <linearGradient
       inkscape:collect="always"
       xlink:href="#gggyrate-grad-22"
       id="linearGradient25453"
       x1="425.34368"
       y1="-98.091846"
       x2="425.34368"
       y2="850.42469"
       gradientTransform="scale(0.94041593,1.0633593)"
       gradientUnits="userSpaceOnUse" />
    <linearGradient
       inkscape:collect="always"
       xlink:href="#gggyrate-grad-22"
       id="linearGradient25455"
       x1="425.34261"
       y1="-80.544385"
       x2="425.34261"
       y2="832.879"
       gradientTransform="scale(0.94041829,1.0633566)"
       gradientUnits="userSpaceOnUse" />
    <linearGradient
       inkscape:collect="always"
       xlink:href="#gggyrate-grad-22"
       id="linearGradient25457"
       x1="425.34146"
       y1="-62.996774"
       x2="425.34146"
       y2="815.33345"
       gradientTransform="scale(0.94042085,1.0633537)"
       gradientUnits="userSpaceOnUse" />
    <linearGradient
       inkscape:collect="always"
       xlink:href="#gggyrate-grad-22"
       id="linearGradient25459"
       x1="425.34021"
       y1="-45.44909"
       x2="425.34021"
       y2="797.78799"
       gradientTransform="scale(0.9404236,1.0633506)"
       gradientUnits="userSpaceOnUse" />
    <linearGradient
       inkscape:collect="always"
       xlink:href="#gggyrate-grad-22"
       id="linearGradient25461"
       x1="425.33885"
       y1="-27.901355"
       x2="425.33885"
       y2="780.24257"
       gradientTransform="scale(0.9404266,1.0633472)"
       gradientUnits="userSpaceOnUse" />
    <linearGradient
       inkscape:collect="always"
       xlink:href="#gggyrate-grad-22"
       id="linearGradient25463"
       x1="425.33743"
       y1="-10.353455"
       x2="425.33743"
       y2="762.69732"
       gradientTransform="scale(0.94042988,1.0633435)"
       gradientUnits="userSpaceOnUse" />
    <linearGradient
       inkscape:collect="always"
       xlink:href="#gggyrate-grad-22"
       id="linearGradient25465"
       x1="425.33581"
       y1="7.1945716"
       x2="425.33581"
       y2="745.15219"
       gradientTransform="scale(0.94043347,1.0633394)"
       gradientUnits="userSpaceOnUse" />
    <linearGradient
       inkscape:collect="always"
       xlink:href="#gggyrate-grad-22"
       id="linearGradient25467"
       x1="425.33403"
       y1="24.7427"
       x2="425.33403"
       y2="727.60717"
       gradientTransform="scale(0.94043741,1.063335)"
       gradientUnits="userSpaceOnUse" />
    <linearGradient
       inkscape:collect="always"
       xlink:href="#gggyrate-grad-22"
       id="linearGradient25469"
       x1="425.33209"
       y1="42.291002"
       x2="425.33209"
       y2="710.06238"
       gradientTransform="scale(0.94044169,1.0633302)"
       gradientUnits="userSpaceOnUse" />
    <linearGradient
       inkscape:collect="always"
       xlink:href="#gggyrate-grad-22"
       id="linearGradient25471"
       x1="425.3299"
       y1="59.839528"
       x2="425.3299"
       y2="692.51775"
       gradientTransform="scale(0.94044653,1.0633247)"
       gradientUnits="userSpaceOnUse" />
    <linearGradient
       inkscape:collect="always"
       xlink:href="#gggyrate-grad-22"
       id="linearGradient25473"
       x1="425.32745"
       y1="77.388255"
       x2="425.32745"
       y2="674.97333"
       gradientTransform="scale(0.94045194,1.0633186)"
       gradientUnits="userSpaceOnUse" />
    <linearGradient
       inkscape:collect="always"
       xlink:href="#gggyrate-grad-22"
       id="linearGradient25475"
       x1="425.32471"
       y1="94.937237"
       x2="425.32471"
       y2="657.42916"
       gradientTransform="scale(0.94045802,1.0633117)"
       gradientUnits="userSpaceOnUse" />
    <linearGradient
       inkscape:collect="always"
       xlink:href="#gggyrate-grad-22"
       id="linearGradient25477"
       x1="425.32157"
       y1="112.48659"
       x2="425.32157"
       y2="639.88536"
       gradientTransform="scale(0.94046491,1.0633039)"
       gradientUnits="userSpaceOnUse" />
    <linearGradient
       inkscape:collect="always"
       xlink:href="#gggyrate-grad-22"
       id="linearGradient25479"
       x1="425.31799"
       y1="130.03632"
       x2="425.31799"
       y2="622.34192"
       gradientTransform="scale(0.94047279,1.063295)"
       gradientUnits="userSpaceOnUse" />
    <linearGradient
       inkscape:collect="always"
       xlink:href="#gggyrate-grad-22"
       id="linearGradient25481"
       x1="425.31388"
       y1="147.58653"
       x2="425.31388"
       y2="604.79897"
       gradientTransform="scale(0.9404819,1.0632847)"
       gradientUnits="userSpaceOnUse" />
    <linearGradient
       inkscape:collect="always"
       xlink:href="#gggyrate-grad-22"
       id="linearGradient25483"
       x1="425.3093"
       y1="165.13729"
       x2="425.3093"
       y2="587.2568"
       gradientTransform="scale(0.94049201,1.0632733)"
       gradientUnits="userSpaceOnUse" />
    <linearGradient
       inkscape:collect="always"
       xlink:href="#gggyrate-grad-22"
       id="linearGradient25485"
       x1="425.30334"
       y1="182.68886"
       x2="425.30334"
       y2="569.71492"
       gradientTransform="scale(0.9405052,1.0632583)"
       gradientUnits="userSpaceOnUse" />
    <linearGradient
       inkscape:collect="always"
       xlink:href="#gggyrate-grad-22"
       id="linearGradient25487"
       x1="425.29659"
       y1="200.24143"
       x2="425.29659"
       y2="552.17438"
       gradientTransform="scale(0.94052011,1.0632415)"
       gradientUnits="userSpaceOnUse" />
    <linearGradient
       inkscape:collect="always"
       xlink:href="#gggyrate-grad-22"
       id="linearGradient25489"
       x1="425.28836"
       y1="217.79533"
       x2="425.28836"
       y2="534.63518"
       gradientTransform="scale(0.94053832,1.0632209)"
       gradientUnits="userSpaceOnUse" />
    <linearGradient
       inkscape:collect="always"
       xlink:href="#gggyrate-grad-22"
       id="linearGradient25491"
       x1="425.27809"
       y1="235.35104"
       x2="425.27809"
       y2="517.09779"
       gradientTransform="scale(0.94056104,1.0631952)"
       gradientUnits="userSpaceOnUse" />
    <linearGradient
       inkscape:collect="always"
       xlink:href="#gggyrate-grad-22"
       id="linearGradient25493"
       x1="425.26482"
       y1="252.90932"
       x2="425.26482"
       y2="499.56294"
       gradientTransform="scale(0.94059037,1.0631621)"
       gradientUnits="userSpaceOnUse" />
    <linearGradient
       inkscape:collect="always"
       xlink:href="#gggyrate-grad-22"
       id="linearGradient25495"
       x1="425.24713"
       y1="270.47158"
       x2="425.24713"
       y2="482.03205"
       gradientTransform="scale(0.9406295,1.0631178)"
       gradientUnits="userSpaceOnUse" />
    <linearGradient
       inkscape:collect="always"
       xlink:href="#gggyrate-grad-22"
       id="linearGradient25497"
       x1="425.22242"
       y1="288.04"
       x2="425.22242"
       y2="464.50733"
       gradientTransform="scale(0.94068417,1.0630561)"
       gradientUnits="userSpaceOnUse" />
    <linearGradient
       inkscape:collect="always"
       xlink:href="#gggyrate-grad-22"
       id="linearGradient25499"
       x1="425.18547"
       y1="305.61929"
       x2="425.18547"
       y2="446.99345"
       gradientTransform="scale(0.94076592,1.0629637)"
       gradientUnits="userSpaceOnUse" />
    <linearGradient
       inkscape:collect="always"
       xlink:href="#gggyrate-grad-22"
       id="linearGradient25501"
       x1="425.12409"
       y1="323.22019"
       x2="425.12409"
       y2="429.50122"
       gradientTransform="scale(0.94090175,1.0628102)"
       gradientUnits="userSpaceOnUse" />
    <linearGradient
       inkscape:collect="always"
       xlink:href="#gggyrate-grad-22"
       id="linearGradient25503"
       x1="425.0022"
       y1="340.8747"
       x2="425.0022"
       y2="412.06257"
       gradientTransform="scale(0.94117159,1.0625055)"
       gradientUnits="userSpaceOnUse" />
    <linearGradient
       inkscape:collect="always"
       xlink:href="#gggyrate-grad-22"
       id="linearGradient25505"
       x1="424.64355"
       y1="358.73925"
       x2="424.64355"
       y2="394.83395"
       gradientTransform="scale(0.94196649,1.0616089)"
       gradientUnits="userSpaceOnUse" />
    <linearGradient
       inkscape:collect="always"
       xlink:href="#linearGradient31165"
       id="linearGradient25507"
       x1="379.35253"
       y1="-250.81322"
       x2="379.35253"
       y2="1094.3516"
       gradientTransform="scale(1.0544283,0.94838126)"
       gradientUnits="userSpaceOnUse" />
  </defs>
  <g
     fill="none"
     fill-rule="evenodd"
     id="g21879"
     style="display:inline">
    <circle
       filter="url(#c)"
       cx="1072.8973"
       cy="689.41687"
       r="200"
       fill="url(#b)"
       fill-opacity="0.48"
       id="circle21583"
       style="fill:url(#b)" />
    <circle
       filter="url(#f)"
       cx="1505.7137"
       cy="-515.3111"
       r="200"
       fill="url(#e)"
       fill-opacity="0.32"
       id="circle21741"
       style="fill:url(#e)" />
    <path
       filter="url(#i)"
       d="m 700.79904,388.54432 h 110.815 l -95.766,-172.04 152.541,-167.960001 h -110.814 l -83.453,91.800001 -51.303,-91.800001 h -110.814 l 93.029,167.960001 -156.645,172.04 h 110.814 l 88.241,-96.56 z"
       fill="url(#h)"
       fill-opacity="0.24"
       id="path21877"
       style="fill:url(#h)"
       transform="matrix(1.5726115,0,0,1.4586952,-223.77031,4.1537976)" />
    <g
       stroke-width="1"
       stroke="url(#gggyrate-grad)"
       fill="none"
       id="g24644"
       style="opacity:0.479545;stroke:url(#linearGradient25507);stroke-width:1.00034;stroke-dasharray:none"
       transform="matrix(1.4797487,0,0,1.1133848,485.768,277.02229)"
       sodipodi:insensitive="true">
      <path
         d="m 351.73355,-296.13204 c 29.86726,-17.24077 66.66558,-17.24077 96.53283,0.005 L 978.73359,10.137668 C 1008.6009,27.378431 1027,59.248745 1027,93.735099 V 706.26487 c 0,34.48635 -18.3991,66.35667 -48.26641,83.60226 L 448.26638,1096.132 c -29.86725,17.2408 -66.66557,17.2408 -96.53283,0 L -178.73366,789.8623 c -29.86725,-17.24076 -48.26641,-49.11108 -48.26641,-83.59743 V 93.735099 c 0,-34.486354 18.39916,-66.356668 48.26641,-83.602258 z"
         transform="rotate(152,400,400)"
         opacity="0.05"
         id="path24568"
         style="stroke:url(#linearGradient25431);stroke-width:1.00034;stroke-dasharray:none" />
      <path
         d="m 353.00372,-277.81276 c 29.08128,-16.78706 64.91122,-16.78706 93.9925,0.005 L 963.50376,20.397223 C 992.58504,37.184282 1010.5,68.215904 1010.5,101.79472 v 596.41057 c 0,33.57881 -17.91496,64.61044 -46.99624,81.40219 L 446.99622,1077.8128 c -29.08128,16.787 -64.91122,16.787 -93.9925,0 L -163.50382,779.60278 c -29.08128,-16.78705 -46.99625,-47.81868 -46.99625,-81.39749 V 101.79472 c 0,-33.578816 17.91497,-64.610438 46.99625,-81.402197 z"
         transform="rotate(148,400,400)"
         opacity="0.08"
         id="path24570"
         style="stroke:url(#linearGradient25433);stroke-width:1.00034;stroke-dasharray:none" />
      <path
         d="m 354.27389,-259.49354 c 28.2953,-16.33335 63.15686,-16.33335 91.45216,0.005 L 948.27393,30.656717 c 28.2953,16.333355 45.72608,46.526284 45.72608,79.197563 v 580.29136 c 0,32.67129 -17.43078,62.86421 -45.72608,79.20214 L 445.72605,1059.4935 c -28.2953,16.3333 -63.15686,16.3333 -91.45216,0 L -148.27399,769.34321 c -28.2953,-16.33336 -45.72608,-46.52628 -45.72608,-79.19757 V 109.85428 c 0,-32.671279 17.43078,-62.864208 45.72608,-79.202135 z"
         transform="rotate(144,400,400)"
         opacity="0.1"
         id="path24572"
         style="stroke:url(#linearGradient25435);stroke-width:1.00034;stroke-dasharray:none" />
      <path
         d="m 355.54406,-241.17427 c 27.50932,-15.87965 61.4025,-15.87965 88.91182,0.004 L 933.0441,40.916257 c 27.50931,15.879651 44.45591,45.233887 44.45591,76.997633 v 564.17216 c 0,31.76374 -16.9466,61.11798 -44.45591,77.00208 L 444.45588,1041.1742 c -27.50932,15.8797 -61.4025,15.8797 -88.91182,0 L -133.04416,759.08368 c -27.50932,-15.87965 -44.45591,-45.23389 -44.45591,-76.99763 V 117.91389 c 0,-31.763746 16.94659,-61.117982 44.45591,-77.002079 z"
         transform="rotate(140,400,400)"
         opacity="0.13"
         id="path24574"
         style="stroke:url(#linearGradient25437);stroke-width:1.00034;stroke-dasharray:none" />
      <path
         d="m 356.81423,-222.85497 c 26.72334,-15.42594 59.64814,-15.42594 86.37148,0.004 L 917.81427,51.175827 c 26.72333,15.425947 43.18574,43.941491 43.18574,74.797703 v 548.05295 c 0,30.85621 -16.46241,59.37176 -43.18574,74.80202 L 443.18571,1022.855 c -26.72334,15.4259 -59.64814,15.4259 -86.37148,0 L -117.81433,748.82418 c -26.72333,-15.42594 -43.18574,-43.94149 -43.18574,-74.7977 V 125.97353 c 0,-30.856212 16.46241,-59.371756 43.18574,-74.802021 z"
         transform="rotate(136,400,400)"
         opacity="0.15"
         id="path24576"
         style="stroke:url(#linearGradient25439);stroke-width:1.00034;stroke-dasharray:none" />
      <path
         d="m 358.0844,-204.5357 c 25.93735,-14.97224 57.89379,-14.97224 83.83114,0.004 L 902.58443,61.435367 C 928.52179,76.407609 944.5,104.08446 944.5,134.03314 v 531.93374 c 0,29.94868 -15.97821,57.62553 -41.91557,72.60196 L 441.91554,1004.5357 c -25.93735,14.9723 -57.89379,14.9723 -83.83114,0 L -102.58449,738.56465 c -25.93736,-14.97224 -41.91558,-42.64909 -41.91558,-72.59777 V 134.03314 c 0,-29.94868 15.97822,-57.625531 41.91558,-72.601964 z"
         transform="rotate(132,400,400)"
         opacity="0.18"
         id="path24578"
         style="stroke:url(#linearGradient25441);stroke-width:1.00034;stroke-dasharray:none" />
      <path
         d="m 359.35457,-186.21646 c 25.15137,-14.51854 56.13943,-14.51854 81.2908,0.004 L 887.3546,71.694877 C 912.50598,86.213414 928,113.05157 928,142.09271 v 515.81455 c 0,29.04114 -15.49402,55.87929 -40.6454,70.4019 L 440.64537,986.21643 c -25.15137,14.51857 -56.13943,14.51857 -81.2908,-0.004 L -87.354662,728.30509 C -112.50604,713.78655 -128.00006,686.9484 -128.00006,657.90726 V 142.09271 c 0,-29.04114 15.49402,-55.879296 40.645398,-70.401898 z"
         transform="rotate(128,400,400)"
         opacity="0.2"
         id="path24580"
         style="stroke:url(#linearGradient25443);stroke-width:1.00034;stroke-dasharray:none" />
      <path
         d="m 360.62474,-167.89719 c 24.36539,-14.06483 54.38507,-14.06483 78.75046,0.004 L 872.12477,81.954417 C 896.49016,96.01925 911.5,122.01872 911.5,150.15232 v 499.69534 c 0,28.1336 -15.00984,54.13307 -39.37523,68.20184 L 439.3752,967.89717 c -24.36539,14.06483 -54.38507,14.06483 -78.75046,-0.004 L -72.12483,718.04556 c -24.365394,-14.06483 -39.37523,-40.0643 -39.37523,-68.1979 V 150.15232 c 0,-28.1336 15.009836,-54.13307 39.37523,-68.201841 z"
         transform="rotate(124,400,400)"
         opacity="0.23"
         id="path24582"
         style="stroke:url(#linearGradient25445);stroke-width:1.00034;stroke-dasharray:none" />
      <path
         d="m 361.8949,-149.57789 c 23.57942,-13.61113 52.63072,-13.61113 76.21013,0.004 L 856.89494,92.213987 C 880.47435,105.82512 895,130.98589 895,158.21196 v 483.57613 c 0,27.22607 -14.52565,52.38684 -38.10506,66.00178 L 438.10503,949.57794 c -23.57941,13.61113 -52.63071,13.61113 -76.21013,-0.004 L -56.894998,707.78606 c -23.579414,-13.61113 -38.105064,-38.7719 -38.105064,-65.99797 V 158.21196 c 0,-27.22607 14.52565,-52.38684 38.105064,-66.001784 z"
         transform="rotate(120,400,400)"
         opacity="0.26"
         id="path24584"
         style="stroke:url(#linearGradient25447);stroke-width:1.00034;stroke-dasharray:none" />
      <path
         d="m 363.16507,-131.25868 c 22.79344,-13.15743 50.87636,-13.15743 73.6698,0.004 L 841.6651,102.47347 c 22.79344,13.15742 36.8349,37.4795 36.8349,63.79804 v 467.45692 c 0,26.31854 -14.04146,50.64062 -36.8349,63.80173 L 436.83487,931.25862 c -22.79344,13.15743 -50.87636,13.15743 -73.6698,-0.004 L -41.665165,697.52647 c -22.793434,-13.15742 -36.834896,-37.4795 -36.834896,-63.79804 V 166.27151 c 0,-26.31854 14.041462,-50.64062 36.834896,-63.80173 z"
         transform="rotate(116,400,400)"
         opacity="0.28"
         id="path24586"
         style="stroke:url(#linearGradient25449);stroke-width:1.00034;stroke-dasharray:none" />
      <path
         d="m 364.43524,-112.9394 c 22.00746,-12.70372 49.122,-12.70372 71.12946,0.004 L 826.43527,112.73302 C 848.44273,125.43674 862,148.92013 862,174.33113 v 451.33772 c 0,25.411 -13.55727,48.89439 -35.56473,61.60167 L 435.5647,912.93938 c -22.00746,12.70372 -49.122,12.70372 -71.12946,-0.004 L -26.435333,687.26696 C -48.442786,674.56324 -62.00006,651.07985 -62.00006,625.66885 V 174.33113 c 0,-25.411 13.557274,-48.89439 35.564727,-61.60167 z"
         transform="rotate(112,400,400)"
         opacity="0.31"
         id="path24588"
         style="stroke:url(#linearGradient25451);stroke-width:1.00034;stroke-dasharray:none" />
      <path
         d="m 365.70541,-94.620098 c 21.22147,-12.250012 47.36765,-12.250012 68.58912,0.0034 L 811.20544,122.99259 C 832.42691,135.24261 845.5,157.8873 845.5,182.39077 v 435.21852 c 0,24.50346 -13.07309,47.14815 -34.29456,59.4016 L 434.29453,894.62015 c -21.22147,12.25002 -47.36765,12.25002 -68.58912,-0.003 L -11.205501,677.00746 C -32.426973,664.75744 -45.500059,642.11275 -45.500059,617.60929 V 182.39077 c 0,-24.50347 13.073086,-47.14816 34.294558,-59.40161 z"
         transform="rotate(108,400,400)"
         opacity="0.33"
         id="path24590"
         style="stroke:url(#linearGradient25453);stroke-width:1.00034;stroke-dasharray:none" />
      <path
         d="m 366.97558,-76.30089 c 20.43549,-11.796312 45.61329,-11.796312 66.04878,0.0033 L 795.97561,133.25207 C 816.4111,145.04838 829,166.85439 829,190.45031 v 419.09932 c 0,23.59592 -12.5889,45.40193 -33.02439,57.20154 L 433.02436,876.30083 c -20.43549,11.79631 -45.61329,11.79631 -66.04878,-0.003 L 4.0243314,666.74787 C -16.411161,654.95156 -29.000058,633.14555 -29.000058,609.54963 V 190.45031 c 0,-23.59592 12.588897,-45.40193 33.0243894,-57.20154 z"
         transform="rotate(104,400,400)"
         opacity="0.36"
         id="path24592"
         style="stroke:url(#linearGradient25455);stroke-width:1.00034;stroke-dasharray:none" />
      <path
         d="m 368.24575,-57.981606 c 19.64951,-11.342607 43.85893,-11.342607 63.50844,0.0032 L 780.74578,143.51163 C 800.39529,154.85423 812.5,175.82154 812.5,198.50994 v 402.98011 c 0,22.68839 -12.10471,43.6557 -31.75422,55.00148 L 431.75419,857.98159 c -19.64951,11.3426 -43.85893,11.3426 -63.50844,-0.003 L 19.254164,656.48836 C -0.39534801,645.14575 -12.500057,624.17844 -12.500057,601.49005 V 198.50994 c 0,-22.6884 12.10470899,-43.65571 31.754221,-55.00149 z"
         transform="rotate(100,400,400)"
         opacity="0.38"
         id="path24594"
         style="stroke:url(#linearGradient25457);stroke-width:1.00034;stroke-dasharray:none" />
      <path
         d="m 369.51592,-39.662321 c 18.86353,-10.888904 42.10457,-10.888904 60.9681,0.003 L 765.51594,153.77118 c 18.86353,10.8889 30.48405,31.01752 30.48405,52.79838 v 386.8609 c 0,21.78086 -11.62052,41.90948 -30.48405,52.80143 L 430.48402,839.66234 c -18.86353,10.88891 -42.10457,10.88891 -60.9681,-0.003 L 34.483996,646.22884 C 15.620465,635.33994 3.9999442,615.21132 3.9999442,593.43046 v -386.8609 c 0,-21.78086 11.6205208,-41.90948 30.4840518,-52.80143 z"
         transform="rotate(96,400,400)"
         opacity="0.41"
         id="path24596"
         style="stroke:url(#linearGradient25459);stroke-width:1.00034;stroke-dasharray:none" />
      <path
         d="m 370.78609,-21.343098 c 18.07755,-10.435199 40.35021,-10.435199 58.42776,0.0029 L 750.28611,164.03067 c 18.07755,10.4352 29.21388,29.72513 29.21388,50.59845 v 370.7417 c 0,20.87332 -11.13633,40.16325 -29.21388,50.60137 L 429.21385,821.34304 c -18.07755,10.4352 -40.35021,10.4352 -58.42776,-0.003 L 49.713828,635.96927 C 31.636277,625.53407 20.499945,606.24414 20.499945,585.37082 v -370.7417 c 0,-20.87332 11.136332,-40.16325 29.213883,-50.60137 z"
         transform="rotate(92,400,400)"
         opacity="0.44"
         id="path24598"
         style="stroke:url(#linearGradient25461);stroke-width:1.00034;stroke-dasharray:none" />
      <path
         d="m 372.05632,-3.0238136 c 17.29157,-9.9814944 38.59585,-9.9814944 55.88742,0.00279 L 735.05634,174.29023 c 17.29157,9.98149 27.94371,28.43273 27.94371,48.39851 v 354.6225 c 0,19.96578 -10.65214,38.41702 -27.94371,48.40131 L 427.94374,803.0238 c -17.29157,9.98149 -38.59585,9.98149 -55.88742,-0.003 L 64.943721,625.70975 C 47.652151,615.72826 37.000007,597.27702 37.000007,577.31124 v -354.6225 c 0,-19.96578 10.652144,-38.41702 27.943714,-48.4013 z"
         transform="rotate(88,400,400)"
         opacity="0.46"
         id="path24600"
         style="stroke:url(#linearGradient25463);stroke-width:1.00034;stroke-dasharray:none" />
      <path
         d="m 373.32649,15.295471 c 16.50559,-9.5277906 36.8415,-9.5277906 53.34709,0.0027 L 719.82651,184.54978 c 16.50559,9.5278 26.67354,27.14034 26.67354,46.19859 v 338.50329 c 0,19.05825 -10.16795,36.67079 -26.67354,46.20125 L 426.67358,784.70455 c -16.50559,9.52779 -36.8415,9.52779 -53.34709,-0.003 L 80.173554,615.45024 C 63.667964,605.92245 53.500008,588.30991 53.500008,569.25166 V 230.74837 c 0,-19.05825 10.167956,-36.67079 26.673546,-46.20125 z"
         transform="rotate(84,400,400)"
         opacity="0.49"
         id="path24602"
         style="stroke:url(#linearGradient25465);stroke-width:1.00034;stroke-dasharray:none" />
      <path
         d="m 374.59665,33.614725 c 15.71961,-9.074086 35.08715,-9.074086 50.80676,0.0025 L 704.59668,194.80931 c 15.7196,9.07409 25.40337,25.84793 25.40337,43.99865 v 322.38409 c 0,18.15071 -9.68377,34.92456 -25.40337,44.00118 L 425.40341,766.38528 c -15.71961,9.07408 -35.08715,9.07408 -50.80676,-0.003 L 95.403386,605.19069 C 79.683777,596.11661 70.000009,579.34276 70.000009,561.19205 V 238.80796 c 0,-18.15072 9.683768,-34.92456 25.403377,-44.00119 z"
         transform="rotate(80,400,400)"
         opacity="0.51"
         id="path24604"
         style="stroke:url(#linearGradient25467);stroke-width:1.00034;stroke-dasharray:none" />
      <path
         d="m 375.86682,51.933978 c 14.93363,-8.620381 33.33279,-8.620381 48.26642,0.0024 l 265.2336,153.132442 c 14.93363,8.62039 24.13321,24.55554 24.13321,41.79872 v 306.26488 c 0,17.24318 -9.19958,33.17834 -24.13321,41.80113 L 424.13324,748.066 c -14.93363,8.62039 -33.33279,8.62039 -48.26642,-0.002 L 110.63322,594.93115 C 95.699589,586.31077 86.50001,570.37561 86.50001,553.13243 V 246.86755 c 0,-17.24318 9.199579,-33.17833 24.13321,-41.80113 z"
         transform="rotate(76,400,400)"
         opacity="0.54"
         id="path24606"
         style="stroke:url(#linearGradient25469);stroke-width:1.00034;stroke-dasharray:none" />
      <path
         d="m 377.13699,70.253263 c 14.14765,-8.166678 31.57843,-8.166678 45.72608,0.0023 L 674.13701,215.32839 c 14.14765,8.16668 22.86304,23.26314 22.86304,39.59878 v 290.14568 c 0,16.33564 -8.71539,31.43211 -22.86304,39.60107 L 422.86307,729.74676 c -14.14765,8.16668 -31.57843,8.16668 -45.72608,-0.002 L 125.86305,584.67164 C 111.7154,576.50496 103.00001,561.40849 103.00001,545.07285 V 254.92717 c 0,-16.33564 8.71539,-31.4321 22.86304,-39.60107 z"
         transform="rotate(72,400,400)"
         opacity="0.56"
         id="path24608"
         style="stroke:url(#linearGradient25471);stroke-width:1.00034;stroke-dasharray:none" />
      <path
         d="m 378.40716,88.572517 c 13.36167,-7.712973 29.82407,-7.712973 43.18574,0.0022 L 658.90718,225.58791 c 13.36167,7.71298 21.59287,21.97075 21.59287,37.39885 v 274.02648 c 0,15.42811 -8.2312,29.68588 -21.59287,37.40101 L 421.5929,711.42749 c -13.36167,7.71297 -29.82407,7.71297 -43.18574,-0.002 L 141.09288,574.41209 c -13.36167,-7.71297 -21.59287,-21.97074 -21.59287,-37.39885 V 262.98676 c 0,-15.4281 8.2312,-29.68587 21.59287,-37.40101 z"
         transform="rotate(68,400,400)"
         opacity="0.59"
         id="path24610"
         style="stroke:url(#linearGradient25473);stroke-width:1.00034;stroke-dasharray:none" />
      <path
         d="m 379.67733,106.89177 c 12.57569,-7.259268 28.06971,-7.259268 40.6454,0.002 l 223.35462,128.95364 c 12.57568,7.25927 20.3227,20.67835 20.3227,35.19892 V 528.9536 c 0,14.52057 -7.74702,27.93965 -20.3227,35.20095 L 420.32273,693.10821 c -12.57569,7.25927 -28.06971,7.25927 -40.6454,-0.002 L 156.32271,564.15255 c -12.57568,-7.25927 -20.3227,-20.67835 -20.3227,-35.19892 V 271.04636 c 0,-14.52057 7.74702,-27.93965 20.3227,-35.20095 z"
         transform="rotate(64,400,400)"
         opacity="0.61"
         id="path24612"
         style="stroke:url(#linearGradient25475);stroke-width:1.00034;stroke-dasharray:none" />
      <path
         d="m 380.94748,125.21105 c 11.78971,-6.80556 26.31536,-6.80556 38.10507,0.002 L 628.4475,246.10699 c 11.78971,6.80557 19.05253,19.38596 19.05253,32.99899 v 241.78807 c 0,13.61303 -7.26282,26.19342 -19.05253,33.00089 L 419.05255,674.78897 c -11.78971,6.80557 -26.31536,6.80557 -38.10507,-0.002 L 171.55253,553.89303 C 159.76282,547.08747 152.5,534.50708 152.5,520.89405 V 279.10598 c 0,-13.61303 7.26282,-26.19342 19.05253,-33.00089 z"
         transform="rotate(60,400,400)"
         opacity="0.64"
         id="path24614"
         style="stroke:url(#linearGradient25477);stroke-width:1.00034;stroke-dasharray:none" />
      <path
         d="m 382.21764,143.53031 c 11.00372,-6.35186 24.561,-6.35186 35.56472,0.002 l 195.43529,112.83443 c 11.00373,6.35186 17.78236,18.09355 17.78236,30.79905 v 225.66886 c 0,12.7055 -6.77863,24.4472 -17.78236,30.80084 L 417.78236,656.4697 c -11.00372,6.35186 -24.561,6.35186 -35.56472,-0.002 L 186.78235,543.63349 c -11.00373,-6.35186 -17.78236,-18.09356 -17.78236,-30.79906 V 287.16557 c 0,-12.7055 6.77863,-24.44719 17.78236,-30.80083 z"
         transform="rotate(56,400,400)"
         opacity="0.67"
         id="path24616"
         style="stroke:url(#linearGradient25479);stroke-width:1.00034;stroke-dasharray:none" />
      <path
         d="m 383.48781,161.84956 c 10.21774,-5.89815 22.80664,-5.89815 33.02438,0.002 l 181.47563,104.77483 c 10.21775,5.89816 16.51219,16.80116 16.51219,28.59912 v 209.54966 c 0,11.79796 -6.29444,22.70097 -16.51219,28.60077 L 416.51219,638.15042 c -10.21774,5.89816 -22.80664,5.89816 -33.02438,-0.002 L 202.01218,533.37394 c -10.21775,-5.89815 -16.51219,-16.80116 -16.51219,-28.59912 V 295.22516 c 0,-11.79796 6.29444,-22.70096 16.51219,-28.60077 z"
         transform="rotate(52,400,400)"
         opacity="0.69"
         id="path24618"
         style="stroke:url(#linearGradient25481);stroke-width:1.00034;stroke-dasharray:none" />
      <path
         d="m 384.75797,180.16885 c 9.43177,-5.44445 21.05229,-5.44445 30.48406,0.002 l 167.51596,96.71523 c 9.43176,5.44445 15.24202,15.50876 15.24202,26.39919 v 193.43045 c 0,10.89043 -5.81026,20.95474 -15.24202,26.40071 l -167.51596,96.71523 c -9.43177,5.44445 -21.05229,5.44445 -30.48406,-0.002 L 217.24201,523.11443 c -9.43176,-5.44445 -15.24202,-15.50876 -15.24202,-26.39919 V 303.28479 c 0,-10.89043 5.81026,-20.95474 15.24202,-26.40072 z"
         transform="rotate(48,400,400)"
         opacity="0.72"
         id="path24620"
         style="stroke:url(#linearGradient25483);stroke-width:1.00034;stroke-dasharray:none" />
      <path
         d="m 386.02814,198.48809 c 8.64579,-4.99075 19.29793,-4.99075 27.94372,0.001 l 153.55629,88.65563 c 8.64579,4.99074 13.97186,14.21636 13.97186,24.19925 v 177.31125 c 0,9.98289 -5.32607,19.20851 -13.97186,24.20066 L 413.97186,601.5115 c -8.64579,4.99075 -19.29793,4.99075 -27.94372,-10e-4 L 232.47185,512.85487 c -8.64579,-4.99075 -13.97186,-14.21637 -13.97186,-24.19926 V 311.34436 c 0,-9.98289 5.32607,-19.20851 13.97186,-24.20065 z"
         transform="rotate(44,400,400)"
         opacity="0.74"
         id="path24622"
         style="stroke:url(#linearGradient25485);stroke-width:1.00034;stroke-dasharray:none" />
      <path
         d="m 387.29831,216.80735 c 7.85981,-4.53704 17.54357,-4.53704 25.40338,10e-4 l 139.59663,80.59603 c 7.85981,4.53704 12.70169,12.92396 12.70169,21.99932 v 161.19205 c 0,9.07535 -4.84188,17.46228 -12.70169,22.00059 l -139.59663,80.59602 c -7.85981,4.53704 -17.54357,4.53704 -25.40338,-10e-4 L 247.70168,502.59534 c -7.85981,-4.53704 -12.70169,-12.92397 -12.70169,-21.99932 V 319.40397 c 0,-9.07536 4.84188,-17.46228 12.70169,-22.00059 z"
         transform="rotate(40,400,400)"
         opacity="0.77"
         id="path24624"
         style="stroke:url(#linearGradient25487);stroke-width:1.00034;stroke-dasharray:none" />
      <path
         d="m 388.56848,235.12662 c 7.07382,-4.08333 15.78922,-4.08333 22.86304,0.001 l 125.63697,72.53642 c 7.07382,4.08334 11.43152,11.63157 11.43152,19.79939 v 145.07284 c 0,8.16782 -4.3577,15.71605 -11.43152,19.80053 l -125.63697,72.53642 c -7.07382,4.08334 -15.78922,4.08334 -22.86304,-10e-4 L 262.93151,492.33581 c -7.07382,-4.08334 -11.43152,-11.63157 -11.43152,-19.79939 V 327.46358 c 0,-8.16782 4.3577,-15.71605 11.43152,-19.80054 z"
         transform="rotate(36,400,400)"
         opacity="0.79"
         id="path24626"
         style="stroke:url(#linearGradient25489);stroke-width:1.00034;stroke-dasharray:none" />
      <path
         d="m 389.83865,253.44589 c 6.28784,-3.62963 14.03486,-3.62963 20.3227,0.001 l 111.67731,64.47682 c 6.28784,3.62963 10.16135,10.33917 10.16135,17.59946 V 464.4768 c 0,7.26029 -3.87351,13.96983 -10.16135,17.60048 l -111.67731,64.47681 c -6.28784,3.62964 -14.03486,3.62964 -20.3227,-10e-4 L 278.16134,482.07628 c -6.28784,-3.62963 -10.16135,-10.33917 -10.16135,-17.59946 V 335.52319 c 0,-7.26029 3.87351,-13.96983 10.16135,-17.60048 z"
         transform="rotate(32,400,400)"
         opacity="0.82"
         id="path24628"
         style="stroke:url(#linearGradient25491);stroke-width:1.00034;stroke-dasharray:none" />
      <path
         d="m 391.10882,271.76513 c 5.50186,-3.17593 12.2805,-3.17593 17.78236,8.9e-4 l 97.71765,56.41722 c 5.50186,3.17593 8.89118,9.04677 8.89118,15.39952 v 112.83443 c 0,6.35275 -3.38932,12.2236 -8.89118,15.40042 l -97.71765,56.41722 c -5.50186,3.17593 -12.2805,3.17593 -17.78236,-8.9e-4 l -97.71765,-56.41722 c -5.50186,-3.17593 -8.89118,-9.04678 -8.89118,-15.39953 V 343.58276 c 0,-6.35275 3.38932,-12.22359 8.89118,-15.40041 z"
         transform="rotate(28,400,400)"
         opacity="0.85"
         id="path24630"
         style="stroke:url(#linearGradient25493);stroke-width:1.00034;stroke-dasharray:none" />
      <path
         d="m 392.37899,290.08443 c 4.71588,-2.72222 10.52614,-2.72222 15.24202,7.6e-4 l 83.75798,48.35762 c 4.71589,2.72222 7.62102,7.75438 7.62102,13.19959 v 96.71523 c 0,5.44521 -2.90513,10.47737 -7.62102,13.20035 l -83.75798,48.35762 c -4.71588,2.72222 -10.52614,2.72222 -15.24202,-7.6e-4 l -83.75798,-48.35762 c -4.71589,-2.72222 -7.62102,-7.75438 -7.62102,-13.19959 V 351.6424 c 0,-5.44521 2.90513,-10.47737 7.62102,-13.20036 z"
         transform="rotate(24,400,400)"
         opacity="0.87"
         id="path24632"
         style="stroke:url(#linearGradient25495);stroke-width:1.00034;stroke-dasharray:none" />
      <path
         d="m 393.64916,308.40368 c 3.9299,-2.26852 8.77178,-2.26852 12.70168,6.3e-4 l 69.79832,40.29801 c 3.9299,2.26853 6.35085,6.46199 6.35085,10.99967 v 80.59602 c 0,4.53768 -2.42095,8.73114 -6.35085,11.00029 l -69.79832,40.29802 c -3.9299,2.26852 -8.77178,2.26852 -12.70168,-6.4e-4 l -69.79832,-40.29801 c -3.9299,-2.26852 -6.35085,-6.46198 -6.35085,-10.99966 v -80.59602 c 0,-4.53768 2.42095,-8.73114 6.35085,-11.0003 z"
         transform="rotate(20,400,400)"
         opacity="0.9"
         id="path24634"
         style="stroke:url(#linearGradient25497);stroke-width:1.00034;stroke-dasharray:none" />
      <path
         d="m 394.91932,326.72295 c 3.14393,-1.81482 7.01743,-1.81482 10.16136,5e-4 l 55.83865,32.23841 c 3.14392,1.81482 5.08067,5.16959 5.08067,8.79973 v 64.47682 c 0,3.63014 -1.93675,6.98491 -5.08067,8.80024 l -55.83865,32.23841 c -3.14393,1.81481 -7.01743,1.81481 -10.16136,-5.1e-4 L 339.08067,441.03814 C 335.93675,439.22332 334,435.86855 334,432.23841 v -64.47682 c 0,-3.63014 1.93675,-6.98491 5.08067,-8.80023 z"
         transform="rotate(16,400,400)"
         opacity="0.92"
         id="path24636"
         style="stroke:url(#linearGradient25499);stroke-width:1.00034;stroke-dasharray:none" />
      <path
         d="m 396.18949,345.04222 c 2.35794,-1.36112 5.26308,-1.36112 7.62102,3.8e-4 l 41.87899,24.1788 c 2.35794,1.36112 3.8105,3.87719 3.8105,6.5998 v 48.35761 c 0,2.72261 -1.45256,5.23869 -3.8105,6.60018 l -41.87899,24.17881 c -2.35794,1.36111 -5.26308,1.36111 -7.62102,-3.8e-4 L 354.3105,430.77861 C 351.95256,429.4175 350.5,426.90142 350.5,424.17881 V 375.8212 c 0,-2.72261 1.45256,-5.23868 3.8105,-6.60018 z"
         transform="rotate(12,400,400)"
         opacity="0.95"
         id="path24638"
         style="stroke:url(#linearGradient25501);stroke-width:1.00034;stroke-dasharray:none" />
      <path
         d="m 397.45966,363.36147 c 1.57196,-0.90741 3.50872,-0.90741 5.08068,2.5e-4 l 27.91932,16.11921 c 1.57197,0.90741 2.54034,2.58479 2.54034,4.39986 v 32.23841 c 0,1.81507 -0.96837,3.49246 -2.54034,4.40012 l -27.91932,16.1192 c -1.57196,0.90741 -3.50872,0.90741 -5.08068,-2.5e-4 l -27.91932,-16.1192 C 367.96837,419.61166 367,417.93427 367,416.1192 v -32.23841 c 0,-1.81507 0.96837,-3.49245 2.54034,-4.40012 z"
         transform="rotate(8,400,400)"
         opacity="0.97"
         id="path24640"
         style="stroke:url(#linearGradient25503);stroke-width:1.00034;stroke-dasharray:none" />
      <path
         d="m 398.72983,381.68074 c 0.78598,-0.45371 1.75436,-0.45371 2.54034,1.3e-4 l 13.95966,8.0596 c 0.78598,0.4537 1.27017,1.29239 1.27017,2.19993 v 16.1192 c 0,0.90754 -0.48419,1.74623 -1.27017,2.20006 l -13.95966,8.05961 c -0.78598,0.4537 -1.75436,0.4537 -2.54034,-1.3e-4 l -13.95966,-8.0596 C 383.98419,409.80583 383.5,408.96714 383.5,408.0596 v -16.1192 c 0,-0.90754 0.48419,-1.74623 1.27017,-2.20006 z"
         transform="rotate(4,400,400)"
         opacity="1"
         id="path24642"
         style="stroke:url(#linearGradient25505);stroke-width:1.00034;stroke-dasharray:none" />
    </g>
  </g>
</svg>
