<?xml version="1.0" encoding="UTF-8" standalone="no"?>
<!-- Created with Inkscape (http://www.inkscape.org/) -->

<svg
   width="183.17726mm"
   height="30.695614mm"
   viewBox="0 0 183.17726 30.695614"
   version="1.1"
   id="svg21"
   inkscape:version="1.2.1 (9c6d41e, 2022-07-14)"
   sodipodi:docname="phemeral-logo.svg"
   inkscape:export-filename="../../../Coding/Home/Phemeral/synthine/synthine_FRONTEND/src/assets/cloud-upload.svg"
   inkscape:export-xdpi="96"
   inkscape:export-ydpi="96"
   xmlns:inkscape="http://www.inkscape.org/namespaces/inkscape"
   xmlns:sodipodi="http://sodipodi.sourceforge.net/DTD/sodipodi-0.dtd"
   xmlns="http://www.w3.org/2000/svg"
   xmlns:svg="http://www.w3.org/2000/svg">
  <sodipodi:namedview
     id="namedview23"
     pagecolor="#ffffff"
     bordercolor="#000000"
     borderopacity="0.25"
     inkscape:showpageshadow="2"
     inkscape:pageopacity="0.0"
     inkscape:pagecheckerboard="0"
     inkscape:deskcolor="#d1d1d1"
     inkscape:document-units="mm"
     showgrid="false"
     showguides="false"
     inkscape:zoom="1.1093734"
     inkscape:cx="361.46531"
     inkscape:cy="-1.3521146"
     inkscape:window-width="1512"
     inkscape:window-height="849"
     inkscape:window-x="0"
     inkscape:window-y="44"
     inkscape:window-maximized="0"
     inkscape:current-layer="layer1" />
  <defs
     id="defs18" />
  <g
     inkscape:label="Layer 1"
     inkscape:groupmode="layer"
     id="layer1"
     transform="translate(-12.098725,-128.96223)">
    <path
       style="fill:#6a7280;fill-opacity:1;stroke-width:0.080884"
       d="m 12.098725,137.84785 c 20.461516,0.62004 15.749164,18.22934 19.345428,0.62004 3.596266,-17.60931 -19.345428,-0.62004 -19.345428,-0.62004 z"
       id="path129" />
    <path
       style="fill:#6a7280;fill-opacity:1;stroke-width:0.080884"
       d="m 31.740722,141.15581 c -0.705314,3.29147 -1.724107,5.79926 -1.724107,5.79926 0,0 1.476001,0.12321 7.412589,10.34732 5.936576,10.22413 -5.688482,-16.14658 -5.688482,-16.14658 z"
       id="path11781" />
    <g
       aria-label="Phemeral"
       id="text696"
       style="font-weight:300;font-size:41.5075px;line-height:0;font-family:'Mukta Mahee';-inkscape-font-specification:'Mukta Mahee, Light';letter-spacing:-0.918104px;word-spacing:-0.0079375px;opacity:0.905495;fill:#6a7280;stroke-width:0.556777">
      <path
         d="m 47.295186,132.28283 h 7.678888 q 1.909345,0 3.528137,0.49809 1.618793,0.49809 2.781003,1.49427 1.203717,0.95467 1.82633,2.40744 0.66412,1.41125 0.66412,3.3206 0,1.95085 -0.705628,3.44512 -0.705627,1.45276 -1.950852,2.44894 -1.203718,0.95467 -2.905525,1.45276 -1.6603,0.49809 -3.65266,0.49809 h -4.275273 v 10.58442 h -2.98854 z m 2.98854,13.11637 h 2.98854 q 1.618793,0 2.98854,-0.24904 1.369748,-0.24905 2.32442,-0.83015 0.954673,-0.62262 1.49427,-1.6603 0.539598,-1.03769 0.539598,-2.61498 0,-1.53577 -0.581105,-2.57346 -0.539598,-1.03769 -1.452763,-1.6603 -0.871657,-0.62261 -2.033867,-0.87166 -1.16221,-0.24904 -2.365928,-0.24904 h -3.901705 z"
         style="stroke-width:0.556778"
         id="path111208" />
      <path
         d="m 70.285367,158.43256 h -2.905525 v -29.47033 h 2.905525 v 12.53527 q 1.369747,-1.20372 3.030047,-1.99236 1.6603,-0.83015 3.65266,-0.83015 1.618793,0 2.82251,0.49809 1.203718,0.45658 1.950853,1.32824 0.788642,0.83015 1.16221,1.99236 0.415075,1.1207 0.415075,2.49045 v 13.44843 h -2.905525 v -12.65979 q 0,-2.53196 -1.120703,-3.61115 -1.079195,-1.12071 -3.071555,-1.12071 -1.452762,0 -2.98854,0.74714 -1.49427,0.74713 -2.947032,2.07537 z"
         style="stroke-width:0.556778"
         id="path111210" />
      <path
         d="M 104.06746,148.88583 H 90.120939 v 0.37357 q 0,3.44512 1.867838,5.35447 1.867837,1.90934 5.105422,1.90934 1.452762,0 2.697987,-0.20754 1.245224,-0.24904 2.573464,-0.78864 l 0.62261,2.15839 q -1.16221,0.49809 -2.73949,0.78864 -1.535779,0.33206 -3.279094,0.33206 -2.033867,0 -3.818689,-0.5811 -1.784823,-0.58111 -3.15457,-1.78482 -1.32824,-1.24523 -2.116883,-3.15457 -0.788642,-1.90935 -0.788642,-4.56583 0,-2.28291 0.66412,-4.15075 0.66412,-1.86784 1.82633,-3.15457 1.203717,-1.32824 2.864017,-2.03387 1.701808,-0.70562 3.777183,-0.70562 1.784822,0 3.196077,0.62261 1.452761,0.5811 2.490451,1.70181 1.03769,1.1207 1.57728,2.69798 0.58111,1.57729 0.58111,3.48663 z m -2.98854,-2.15839 q 0,-1.16221 -0.29055,-2.1999 -0.29056,-1.07919 -0.913169,-1.86783 -0.581105,-0.83015 -1.535777,-1.28674 -0.954673,-0.49809 -2.282912,-0.49809 -2.407435,0 -3.98472,1.57729 -1.535778,1.57728 -1.867838,4.31678 z"
         style="stroke-width:0.556778"
         id="path111212" />
      <path
         d="m 110.66217,158.43256 h -2.90553 v -19.50853 h 2.15839 l 0.45659,2.69799 q 1.36974,-1.36975 2.94703,-2.15839 1.57728,-0.83015 3.77718,-0.83015 2.07538,0 3.40362,0.87166 1.32824,0.83015 1.99236,2.32442 1.45276,-1.53578 3.19607,-2.36593 1.74332,-0.83015 3.8602,-0.83015 2.98854,0 4.48281,1.70181 1.53578,1.6603 1.53578,4.64884 v 13.44843 h -2.90553 v -12.78431 q 0,-2.24141 -0.95467,-3.40362 -0.91316,-1.20372 -3.27909,-1.20372 -1.41126,0 -2.82251,0.70563 -1.41126,0.70563 -2.53196,1.99236 0.0415,0.29055 0.0415,0.62261 0,0.33206 0,0.62262 v 13.44843 h -2.90553 v -12.78431 q 0,-2.24141 -0.91316,-3.40362 -0.91317,-1.20372 -3.23759,-1.20372 -1.45276,0 -2.86401,0.74714 -1.36975,0.74713 -2.53196,2.07537 z"
         style="stroke-width:0.556778"
         id="path111214" />
      <path
         d="m 156.27394,148.88583 h -13.94652 v 0.37357 q 0,3.44512 1.86783,5.35447 1.86784,1.90934 5.10543,1.90934 1.45276,0 2.69798,-0.20754 1.24523,-0.24904 2.57347,-0.78864 l 0.62261,2.15839 q -1.16221,0.49809 -2.73949,0.78864 -1.53578,0.33206 -3.2791,0.33206 -2.03386,0 -3.81869,-0.5811 -1.78482,-0.58111 -3.15457,-1.78482 -1.32824,-1.24523 -2.11688,-3.15457 -0.78864,-1.90935 -0.78864,-4.56583 0,-2.28291 0.66412,-4.15075 0.66412,-1.86784 1.82633,-3.15457 1.20372,-1.32824 2.86402,-2.03387 1.7018,-0.70562 3.77718,-0.70562 1.78482,0 3.19608,0.62261 1.45276,0.5811 2.49045,1.70181 1.03768,1.1207 1.57728,2.69798 0.58111,1.57729 0.58111,3.48663 z m -2.98854,-2.15839 q 0,-1.16221 -0.29056,-2.1999 -0.29055,-1.07919 -0.91316,-1.86783 -0.58111,-0.83015 -1.53578,-1.28674 -0.95467,-0.49809 -2.28291,-0.49809 -2.40744,0 -3.98472,1.57729 -1.53578,1.57728 -1.86784,4.31678 z"
         style="stroke-width:0.556778"
         id="path111216" />
      <path
         d="m 159.88011,158.43256 v -19.50853 h 2.07538 l 0.53959,3.90171 q 0.70563,-1.86784 2.36593,-2.98854 1.6603,-1.16221 3.77718,-1.16221 1.03769,0 1.78483,0.16603 0.74713,0.16603 1.20371,0.37356 l -0.53959,2.57347 q -0.49809,-0.24905 -1.12071,-0.41508 -0.62261,-0.16603 -1.45276,-0.16603 -1.20372,0 -2.2414,0.45659 -1.03769,0.41507 -1.82633,1.24522 -0.78865,0.83015 -1.24523,2.11688 -0.45658,1.28674 -0.45658,2.94704 v 10.45989 z"
         style="stroke-width:0.556778"
         id="path111218" />
      <path
         d="m 173.36501,140.66735 q 1.95085,-1.03769 3.56964,-1.49427 1.6603,-0.49809 3.65266,-0.49809 1.49427,0 2.7395,0.37356 1.28673,0.33206 2.1999,1.16221 0.95467,0.83015 1.45276,2.1999 0.5396,1.32824 0.5396,3.3206 v 12.7013 h -2.24141 l -0.45658,-2.36593 h -0.083 q -1.24522,1.45276 -2.86401,2.11688 -1.57729,0.62261 -3.48663,0.62261 -1.36975,0 -2.57347,-0.37356 -1.16221,-0.41508 -2.03387,-1.16221 -0.83015,-0.74714 -1.32824,-1.78483 -0.45658,-1.03768 -0.45658,-2.32442 0,-1.53577 0.62261,-2.69798 0.62262,-1.16221 1.74332,-1.95086 1.16221,-0.78864 2.73949,-1.16221 1.6188,-0.41507 3.56965,-0.41507 h 3.94321 v -1.45276 q 0,-2.49045 -1.16221,-3.44513 -1.16221,-0.99618 -3.07155,-0.99618 -1.16221,0 -2.65648,0.37357 -1.45277,0.33206 -3.23759,1.32824 z m 11.24853,8.38451 -3.23758,0.0415 q -3.44513,0.083 -4.89789,1.20372 -1.45276,1.1207 -1.45276,2.73949 0,1.95085 1.20372,2.7395 1.20371,0.78864 2.86401,0.78864 1.45277,0 2.94704,-0.66412 1.49427,-0.70563 2.57346,-2.28291 z"
         style="stroke-width:0.556778"
         id="path111220" />
      <path
         d="m 192.41198,158.43256 v -29.47033 h 2.86402 v 29.47033 z"
         style="stroke-width:0.556778"
         id="path111222" />
    </g>
  </g>
</svg>
